<?xml version="1.0" encoding="UTF-8"?>
<svg version="1.1" xmlns="http://www.w3.org/2000/svg" width="1223" height="473">
<path d="M0 0 C0.70839203 -0.00140232 1.41678407 -0.00280463 2.14664253 -0.00424945 C4.53715491 -0.00774868 6.92760343 -0.00408266 9.31811494 -0.00049198 C11.04996284 -0.00153448 12.78181052 -0.00301526 14.51365772 -0.00489634 C19.30360334 -0.00881216 24.09352897 -0.00644906 28.88347429 -0.00311839 C34.08290785 -0.00059308 39.28233823 -0.00383707 44.48177135 -0.00636172 C53.60476441 -0.00998311 62.72775156 -0.00985791 71.8507449 -0.00731456 C85.41678708 -0.00354279 98.98282424 -0.00546025 112.54886637 -0.00852287 C135.36827597 -0.01349185 158.18768249 -0.01366451 181.00709218 -0.01094615 C181.70245195 -0.01086336 182.39781171 -0.01078056 183.11424299 -0.01069526 C183.81071175 -0.01061233 184.50718051 -0.0105294 185.22475439 -0.01044396 C206.42615563 -0.00792277 227.6275559 -0.00726845 248.82895726 -0.0084666 C250.24760858 -0.00854408 251.66625989 -0.00862124 253.08491121 -0.00869807 C258.78563184 -0.00900853 264.48635248 -0.00932719 270.18707311 -0.00965784 C286.12415263 -0.01057495 302.06123216 -0.01114547 317.9983117 -0.01144397 C318.72411495 -0.01145762 319.4499182 -0.01147126 320.19771549 -0.01148532 C343.33276099 -0.01189474 366.46780617 -0.01076702 389.60285157 -0.00859439 C390.35345625 -0.00852414 391.10406093 -0.0084539 391.8774112 -0.00838152 C404.0674172 -0.00723651 416.25742318 -0.00601708 428.44742917 -0.00479134 C476.78947849 0.00006438 525.13152504 -0.00015956 573.47357434 -0.00502193 C585.65379748 -0.00624309 597.83402063 -0.00745413 610.01424378 -0.00859439 C610.76419266 -0.00866484 611.51414153 -0.00873529 612.28681613 -0.00880787 C635.39462244 -0.0109637 658.50242851 -0.0118784 681.61023492 -0.01144397 C682.33554842 -0.01143039 683.06086192 -0.0114168 683.80815461 -0.01140281 C699.7292491 -0.01109034 715.65034355 -0.01045673 731.57143801 -0.00953347 C737.26806752 -0.00920432 742.96469702 -0.00889124 748.66132653 -0.00858276 C750.0785456 -0.00850537 751.49576466 -0.00842664 752.91298372 -0.00834656 C774.10750614 -0.00715232 795.30202748 -0.00817069 816.49654976 -0.01069526 C817.53921684 -0.01081945 817.53921684 -0.01081945 818.60294789 -0.01094615 C819.29678124 -0.01102884 819.99061458 -0.01111152 820.70547318 -0.01119671 C844.09337478 -0.0139533 867.48127303 -0.01294181 890.86917446 -0.00766541 C904.36062542 -0.00472232 917.85206978 -0.00454723 931.34352058 -0.00831159 C940.34533612 -0.01054681 949.34714635 -0.00917141 958.3489611 -0.00480682 C963.48457971 -0.00241856 968.62018517 -0.0016343 973.75580338 -0.0052128 C978.42391026 -0.0084325 983.09199226 -0.00708603 987.76009731 -0.00203214 C989.4420753 -0.00102148 991.12405533 -0.00170022 992.80603172 -0.00423808 C995.08501095 -0.00743385 997.36390332 -0.00448477 999.64287853 0 C1001.53787053 0.00010164 1001.53787053 0.00010164 1003.4711452 0.00020533 C1007.04823279 0.12672038 1010.47842386 0.55360852 1014.00946301 1.12534916 C1014.03680676 3.33238041 1014.03680676 3.33238041 1013.00946301 6.12534916 C1010.40873417 8.09021877 1007.50405933 9.4093771 1004.57196301 10.81284916 C1002.81575498 11.69367126 1001.06056812 12.57653194 999.30633801 13.46128666 C997.96925793 14.12789311 997.96925793 14.12789311 996.60516614 14.80796635 C992.78441007 16.74709349 989.05341857 18.83333042 985.32196301 20.93784916 C978.25224492 24.89843797 971.14010648 28.77559754 964.00946301 32.62534916 C956.26581576 36.80751327 948.54824644 41.03016521 940.86566418 45.32334721 C934.71516407 48.75233851 928.52074655 52.09711334 922.32196301 55.43784916 C914.45501201 59.67949144 906.6467612 64.00781275 898.88446301 68.43784916 C889.3723471 73.86188117 879.74011072 79.03200407 870.06433362 84.15528691 C861.80970212 88.52878476 853.61910295 92.9863112 845.50946301 97.62534916 C836.12409273 102.99415584 826.61514741 108.09859318 817.06067151 113.15711796 C808.84801976 117.50809688 800.70059862 121.94368086 792.63446301 126.56284916 C782.84111905 132.16908194 772.89937783 137.46377513 762.91974133 142.72758305 C753.41472245 147.74435309 744.00863318 152.8951753 734.68060559 158.23594487 C726.76526594 162.74706378 718.74461088 167.04417688 710.69696301 171.31284916 C701.94434654 175.95549175 693.21344871 180.62447661 684.57074231 185.46983159 C678.41623133 188.9157523 672.21602638 192.27423092 666.00946301 195.62534916 C658.26583077 199.80754103 650.54824672 204.03016505 642.86566418 208.32334721 C636.71516407 211.75233851 630.52074655 215.09711334 624.32196301 218.43784916 C616.45501201 222.67949144 608.6467612 227.00781275 600.88446301 231.43784916 C592.01000549 236.49827337 583.03618218 241.34453124 574.00946301 246.12534916 C562.22325061 252.36900242 550.55342065 258.78881463 538.98102063 265.42271245 C535.54738793 267.39010796 532.11158248 269.35368015 528.67547864 271.31675541 C528.03185376 271.68450078 527.38822888 272.05224614 526.72510022 272.4311353 C525.15323885 273.32923757 523.58135342 274.22729772 522.00946301 275.12534916 C522.87858447 275.12496944 523.74770593 275.12458972 524.6431644 275.1241985 C576.1324755 275.10182972 627.62178608 275.08466731 679.11110106 275.07428383 C685.29084477 275.0730331 691.47058846 275.07173878 697.65033215 275.07041752 C698.88062927 275.07015521 700.11092638 275.0698929 701.37850522 275.06962264 C721.31007886 275.06526907 741.24164961 275.05738323 761.17322154 275.04819637 C781.61856952 275.03885116 802.06391599 275.03329171 822.50926602 275.03126067 C835.12930402 275.02988725 847.74933388 275.0255464 860.36936938 275.0174327 C869.01854961 275.01215456 877.66772563 275.01054731 886.31690735 275.01184779 C891.31006214 275.01248949 896.30320268 275.01149252 901.29635495 275.00614369 C905.86665659 275.0012835 910.4369344 275.00102782 915.00723713 275.00445027 C916.66145619 275.00487337 918.31567672 275.00359975 919.96989287 275.00046598 C922.21788156 274.99645466 924.46578415 274.99861528 926.71377152 275.00230134 C927.96267169 275.00192162 929.21157185 275.00154189 930.49831748 275.00115067 C934.0657811 275.12734128 937.4878014 275.55579052 941.00946301 276.12534916 C941.00946301 277.44534916 941.00946301 278.76534916 941.00946301 280.12534916 C936.71917287 282.50284227 932.42738632 284.87761493 928.13446301 287.25034916 C927.48209668 287.61093419 926.82973035 287.97151921 926.15759534 288.34303105 C917.01491954 293.3935782 907.84334894 298.38385314 898.63446301 303.31284916 C890.46659247 307.68520406 882.36759107 312.15705938 874.32196301 316.75034916 C865.86120541 321.57977112 857.29411475 326.14634437 848.63373059 330.6063062 C841.8337767 334.12613283 835.15551124 337.82373734 828.50946301 341.62534916 C820.92496085 345.96376684 813.27757701 350.12497146 805.50946301 354.12534916 C797.97366703 358.00779126 790.55126996 362.03443779 783.19696301 366.25034916 C773.57853742 371.76006354 763.82007008 376.96942441 754.00946301 382.12534916 C744.38932222 387.18202746 734.81384633 392.28038824 725.38446301 397.68784916 C714.98278975 403.65188043 704.41259463 409.2707422 693.81341809 414.87266362 C692.45946329 415.58834149 691.10554043 416.30407981 689.75165051 417.01988041 C688.76019276 417.54404294 688.76019276 417.54404294 687.74870557 418.0787946 C672.66167373 425.61946789 672.66167373 425.61946789 658.28300771 434.33413119 C651.37332531 438.826702 645.14888201 438.82252187 637.08017129 438.74058831 C635.66951826 438.74429103 634.2588696 438.75018879 632.84823373 438.7580708 C628.97324594 438.77337657 625.0989168 438.75757473 621.22397822 438.73668013 C617.00801862 438.71947798 612.79212444 438.73136899 608.57615161 438.73956758 C601.18782629 438.74992993 593.7997024 438.74172845 586.4114005 438.72137654 C575.42531314 438.6911982 564.43935275 438.6896978 553.45323151 438.69408648 C534.97279582 438.70065605 516.49244951 438.68394872 498.01203984 438.65399945 C479.71273547 438.62441965 461.41346832 438.6051708 443.11414021 438.59973538 C441.97656816 438.59939168 440.83899611 438.59904798 439.66695218 438.59869387 C433.88985597 438.59700222 428.11275973 438.59549529 422.33566345 438.59405949 C381.41090527 438.58355597 340.48619574 438.54986508 299.56146497 438.50254643 C259.80235301 438.45662855 220.04325437 438.42120838 180.28412122 438.40000737 C179.05868505 438.39934974 177.83324888 438.39869211 176.57067828 438.39801455 C164.26440362 438.39142198 151.95812886 438.3850429 139.651854 438.37882025 C114.58229999 438.366139 89.51274684 438.35203274 64.44319409 438.33706486 C63.2905233 438.33637841 62.1378525 438.33569196 60.95025228 438.33498471 C-16.03003103 438.2889773 -93.01028738 438.20975082 -169.99053699 438.12534916 C-168.75230658 434.41065793 -167.86777417 434.2257522 -164.48663074 432.44566166 C-163.53062976 431.93575688 -162.57462878 431.42585209 -161.58965808 430.90049565 C-160.02465564 430.08367314 -160.02465564 430.08367314 -158.42803699 429.25034916 C-156.22087731 428.07741372 -154.01384967 426.90422978 -151.80694324 425.73081791 C-150.67272937 425.13188725 -149.5385155 424.53295659 -148.36993152 423.91587651 C-143.18235206 421.16730638 -138.02433621 418.36495057 -132.86553699 415.56284916 C-130.86818361 414.48073955 -128.87078792 413.39870802 -126.87334949 412.31675541 C-110.88026493 403.64482058 -94.9242253 394.90588413 -78.99053699 386.12534916 C-80.43990079 383.1331789 -82.09719776 380.4183269 -83.96001941 377.66197026 C-93.60720513 363.26762723 -99.85175147 347.92552883 -103.99053699 331.12534916 C-104.16987781 330.39751225 -104.34921863 329.66967534 -104.53399402 328.91978276 C-109.5834752 307.08215559 -108.97337334 280.89712218 -103.99053699 259.12534916 C-103.80732898 258.30083256 -103.62412097 257.47631596 -103.43536121 256.62681401 C-98.40928843 234.90395708 -89.89216789 214.02097705 -82.20293933 193.14243901 C-80.16518435 187.60703664 -78.14555781 182.06523684 -76.13506824 176.51988041 C-75.82551196 175.6661887 -75.51595569 174.81249699 -75.19701892 173.93293583 C-74.56996031 172.20354394 -73.94292586 170.47414328 -73.31591541 168.74473393 C-61.26590425 135.53310469 -49.11303588 102.35856982 -36.98968345 69.17365372 C-34.87643056 63.3890445 -32.76351347 57.60431269 -30.6507991 51.81950676 C-29.15291238 47.71824557 -27.65457205 43.6171505 -26.15586311 39.51618969 C-25.44952886 37.58318307 -24.74342819 35.65009131 -24.03742725 33.71696293 C-23.18416006 31.38060154 -22.33054704 29.0443664 -21.47648364 26.70829594 C-21.08972965 25.64894841 -20.70297565 24.58960087 -20.30450183 23.4981519 C-19.92831714 22.46979222 -19.55213245 21.44143254 -19.16454822 20.38191044 C-18.31272683 18.01906376 -17.47714047 15.65388518 -16.65685779 13.28016484 C-16.43384809 12.64002729 -16.21083839 11.99988974 -15.98107082 11.34035408 C-15.35443341 9.53787125 -14.7340304 7.73322456 -14.11398059 5.92846501 C-12.99053699 3.12534916 -12.99053699 3.12534916 -10.99053699 1.12534916 C-7.40252594 -0.1864265 -3.7829001 0.00020293 0 0 Z M146.00946301 164.12534916 C145.01946301 166.76534916 144.02946301 169.40534916 143.00946301 172.12534916 C142.20359837 173.66091442 141.37343312 175.18420887 140.50946301 176.68784916 C137.71711944 182.09749387 136.81871668 187.55146495 135.75165051 193.50425541 C134.62933861 198.97995614 132.67377825 203.88591126 130.12567395 208.84556401 C127.44548041 214.07154995 125.21574925 219.38503288 123.13446301 224.87534916 C122.79004163 225.77696782 122.44562024 226.67858647 122.09076184 227.6075269 C119.36368196 234.88037161 117.05474143 242.23819021 115.00018567 249.72788823 C113.8446079 253.83717357 112.79063858 256.8075881 110.00946301 260.12534916 C107.85109102 265.01055326 106.47131169 269.74383592 107.00946301 275.12534916 C109.23298364 277.34886979 114.37494009 276.55292186 117.43475598 276.58726323 C126.10070852 276.41474924 132.97193432 272.84450114 140.07196301 268.06284916 C143.0079223 266.12636538 145.74483404 264.97452056 149.00946301 263.68784916 C153.90250461 261.72578793 157.16763637 259.67903881 161.00946301 256.12534916 C163.38446301 254.81284916 163.38446301 254.81284916 165.00946301 254.12534916 C165.00946301 253.46534916 165.00946301 252.80534916 165.00946301 252.12534916 C165.66946301 251.90105229 166.32946301 251.67675541 167.00946301 251.44566166 C171.71399582 249.37517717 175.86402085 246.43724124 180.12665051 243.58238041 C184.01239387 241.06764462 186.2778585 239.79765358 191.00946301 240.12534916 C193.55202457 239.17344576 193.55202457 239.17344576 196.00946301 237.81284916 C196.88086926 237.35523198 197.75227551 236.89761479 198.65008801 236.42613041 C201.14221237 235.05216119 203.58133455 233.60920545 206.00946301 232.12534916 C206.93758801 231.67159916 207.86571301 231.21784916 208.82196301 230.75034916 C211.3964049 229.4378886 213.89631295 228.09103191 216.38446301 226.62534916 C217.07282239 226.22316166 217.76118176 225.82097416 218.47040051 225.40659916 C219.23223645 224.77238041 219.23223645 224.77238041 220.00946301 224.12534916 C220.00946301 223.13534916 220.00946301 222.14534916 220.00946301 221.12534916 C220.77258801 220.91909916 221.53571301 220.71284916 222.32196301 220.50034916 C226.38745922 218.98440142 229.95582876 217.01738629 233.73993176 214.91050541 C237.52335531 212.8447652 241.347293 210.87658999 245.19696301 208.93784916 C245.84971204 208.60510991 246.50246106 208.27237065 247.17499036 207.92954838 C250.50594918 206.26029618 253.82762174 204.7754886 257.32586926 203.48863041 C260.54626939 202.29677501 263.10100933 200.90273752 266.00946301 199.12534916 C268.32196301 198.43784916 268.32196301 198.43784916 270.00946301 198.12534916 C270.00946301 197.46534916 270.00946301 196.80534916 270.00946301 196.12534916 C271.34557629 195.95519291 271.34557629 195.95519291 272.70868176 195.78159916 C275.9532003 195.13653512 277.98627233 194.27453922 280.82196301 192.62534916 C286.48069188 189.40733577 292.21690742 186.36990726 297.99505872 183.37339604 C302.1813712 181.17761737 306.08021676 178.7636379 310.00946301 176.12534916 C312.05633801 175.14878666 312.05633801 175.14878666 313.75946301 174.50034916 C317.02772646 173.35755579 317.02772646 173.35755579 319.00946301 171.12534916 C320.18508801 170.81597416 321.36071301 170.50659916 322.57196301 170.18784916 C324.27352551 169.66191166 324.27352551 169.66191166 326.00946301 169.12534916 C326.33946301 168.13534916 326.66946301 167.14534916 327.00946301 166.12534916 C326.67946301 165.46534916 326.34946301 164.80534916 326.00946301 164.12534916 C266.60946301 164.12534916 207.20946301 164.12534916 146.00946301 164.12534916 Z " fill="#0D0F14" transform="translate(188.99053698778152,16.874650835990906)"/>
<path d="M0 0 C185.79 0 371.58 0 563 0 C560.02580685 2.97419315 557.65050609 4.40452662 553.953125 6.3359375 C553.05370934 6.80963776 553.05370934 6.80963776 552.13612366 7.29290771 C550.84693616 7.97161158 549.55653337 8.64801105 548.26504517 9.32232666 C544.85614489 11.10315942 541.4571118 12.90257664 538.05859375 14.703125 C537.37480148 15.06516022 536.69100922 15.42719543 535.98649597 15.80020142 C527.91778919 20.08544975 519.98148803 24.59861525 512.05078125 29.1328125 C508.37042905 31.22861897 504.68313459 33.31101986 500.98046875 35.3671875 C500.07578857 35.8710498 499.1711084 36.37491211 498.23901367 36.89404297 C496 38 496 38 494 38 C494 38.66 494 39.32 494 40 C492.96875 40.433125 491.9375 40.86625 490.875 41.3125 C488.41715468 42.35945237 486.07393602 43.47176844 483.6875 44.6875 C481 46 481 46 479 46 C479 46.66 479 47.32 479 48 C476.39105299 49.818357 473.77972788 51.09253067 470.84765625 52.32421875 C466.61392988 54.12334506 462.56389312 56.22385683 458.5 58.375 C457.26503784 59.02637939 457.26503784 59.02637939 456.00512695 59.69091797 C448.70127615 63.57200655 441.51821331 67.65364285 434.33520508 71.75268555 C426.19415545 76.37545888 417.95745369 80.80142527 409.6875 85.1875 C400.97707826 89.80736229 392.28934917 94.45446657 383.69091797 99.28076172 C377.27482556 102.87275954 370.79463972 106.34144001 364.3125 109.8125 C356.10530157 114.21001766 347.95808654 118.69101566 339.875 123.3125 C329.91634484 129.00328596 319.80562173 134.37789047 309.66098022 139.72637939 C299.22116781 145.23504506 288.94618956 150.96099933 278.77783203 156.95849609 C273.11237374 160.27748059 267.30463976 163.32670222 261.4765625 166.34765625 C252.2442579 171.13932933 243.094018 176.02584005 234.0625 181.1875 C225.12677266 186.2935202 216.09458761 191.1855649 207 196 C185.97191827 206.47493117 185.97191827 206.47493117 166.29281616 219.05871582 C160.41905155 222.37673829 153.42712984 221.52135948 146.88500977 221.45410156 C145.34705129 221.45297223 143.80909065 221.45360863 142.27113342 221.45587158 C138.11033311 221.45701631 133.94999678 221.43354646 129.78930402 221.40557575 C125.43580829 221.38052163 121.0823012 221.37821694 116.72874451 221.37347412 C108.49112138 221.3610561 100.25371132 221.32825045 92.01618189 221.28807616 C82.63533337 221.24332185 73.25447452 221.22136222 63.87354577 221.20129442 C44.58224318 221.15951673 25.29113874 221.08918758 6 221 C6 220.34 6 219.68 6 219 C6.66306152 218.65855957 7.32612305 218.31711914 8.00927734 217.96533203 C19.43361885 212.07456344 30.8408112 206.17399281 42.04736328 199.87695312 C48.57385459 196.2159287 55.15709062 192.66481068 61.75 189.125 C69.8887823 184.75405238 78.01844662 180.36796274 86.125 175.9375 C93.74109461 171.77508697 101.3664414 167.63030264 109 163.5 C117.5717963 158.86159103 126.13290902 154.20410875 134.68676758 149.53271484 C142.65451398 145.18353653 150.63508542 140.85821828 158.61914062 136.5390625 C163.23735558 134.04031817 167.85265341 131.53655038 172.4609375 129.01953125 C176.26872557 126.94052168 180.08287808 124.87388346 183.90234375 122.81640625 C193.1641234 117.82469734 202.39973069 112.83584843 211.4453125 107.4609375 C214.12712823 105.92729976 216.85151889 104.54793383 219.625 103.1875 C224.54806035 100.77037888 229.34292654 98.18085936 234.125 95.5 C241.58523856 91.32046876 249.09187084 87.23416245 256.625 83.1875 C257.72521484 82.59622314 258.82542969 82.00494629 259.95898438 81.39575195 C262.19655024 80.19340239 264.43418056 78.99117277 266.671875 77.7890625 C271.99319259 74.92854201 277.31063714 72.06091927 282.625 69.1875 C283.61290527 68.65374756 284.60081055 68.11999512 285.61865234 67.57006836 C292.18996407 64.00936516 298.72190023 60.38481166 305.18212891 56.62573242 C308.11465419 54.9427847 310.72380958 53.78004534 314 53 C314.33 52.34 314.66 51.68 315 51 C205.44 51 95.88 51 -17 51 C-15.87496609 43.12476265 -15.87496609 43.12476265 -14.63305664 39.70458984 C-14.35929703 38.94044769 -14.08553741 38.17630554 -13.80348206 37.38900757 C-13.50868454 36.58774445 -13.21388702 35.78648132 -12.91015625 34.9609375 C-12.60556992 34.11705475 -12.30098358 33.273172 -11.98716736 32.40371704 C-11.01856672 29.72514949 -10.04059437 27.05011342 -9.0625 24.375 C-8.40890587 22.57052947 -7.75590521 20.76584387 -7.10351562 18.9609375 C-5.90462433 15.65154927 -4.7043648 12.34268671 -3.49633789 9.03662109 C-3.13446129 8.04569962 -3.13446129 8.04569962 -2.76527405 7.03475952 C-1.8783153 4.67645694 -0.93574878 2.33937195 0 0 Z " fill="#EC2D24" transform="translate(424,74)"/>
<path d="M0 0 C1.34111343 0.00539291 1.34111343 0.00539291 2.70932007 0.01089478 C3.64580887 0.01074875 4.58229767 0.01060272 5.54716492 0.01045227 C8.65845007 0.01115179 11.76967617 0.01894602 14.88095093 0.02676392 C17.0318651 0.02862796 19.18277971 0.03005192 21.33369446 0.03105164 C27.00711225 0.03487792 32.68050463 0.04470914 38.35391235 0.05575562 C44.13831234 0.06596736 49.92271641 0.07054875 55.7071228 0.07559204 C67.06585796 0.08633131 78.42457421 0.10340906 89.78329468 0.12442017 C89.22291847 3.94390042 88.4584595 7.4081459 87.10702515 11.02236938 C86.75997528 11.95910492 86.41292542 12.89584045 86.05535889 13.86096191 C85.67424957 14.87345001 85.29314026 15.88593811 84.90048218 16.92910767 C84.4986673 18.01080231 84.09685242 19.09249695 83.68286133 20.20697021 C82.80728695 22.56339603 81.92945634 24.91898443 81.0496521 27.27383423 C78.64349064 33.71672313 76.2560328 40.16652626 73.86923218 46.61660767 C73.49529705 47.62643833 73.49529705 47.62643833 73.11380768 48.65666962 C67.6406946 63.44236995 62.30971283 78.27790362 56.99936676 93.12268448 C51.03114863 109.80647303 45.04640043 126.48270125 38.90829468 143.10488892 C38.66938004 143.75203983 38.43046539 144.39919075 38.18431091 145.0659523 C35.69645705 151.80278368 33.20032573 158.53649118 30.69540405 165.26699829 C26.92286167 175.42402173 23.20888761 185.59323636 19.75204468 195.86270142 C19.46293213 196.71502853 19.17381958 197.56735565 18.87594604 198.44551086 C13.57592488 214.43529353 13.93600762 232.58216243 21.10360718 247.95645142 C25.78371188 256.28089994 32.67323029 265.87913668 42.15829468 268.87442017 C42.69454468 268.95692017 43.23079468 269.03942017 43.78329468 269.12442017 C43.78329468 269.78442017 43.78329468 270.44442017 43.78329468 271.12442017 C56.68649359 274.54673266 68.68531425 275.71046011 82.00253296 275.6703186 C83.95591037 275.67907825 85.90928064 275.68957224 87.86264038 275.7016449 C93.1052673 275.72923284 98.34765695 275.73291567 103.59034586 275.73192501 C109.09163484 275.73507777 114.5928206 275.76074459 120.09405518 275.78390503 C130.48449925 275.82428895 140.87488084 275.84476412 151.26539123 275.85787892 C163.10602602 275.87380896 174.94655539 275.91224955 186.78712869 275.95247221 C211.11914852 276.03462991 235.45116521 276.08887237 259.78329468 276.12442017 C257.5096529 278.55441553 256.10055623 279.55247852 252.78329468 280.12442017 C252.78329468 280.78442017 252.78329468 281.44442017 252.78329468 282.12442017 C251.85516968 282.49567017 250.92704468 282.86692017 249.97079468 283.24942017 C245.5118038 285.14083638 241.34809101 287.53113562 237.13876343 289.91738892 C234.78329468 291.12442017 234.78329468 291.12442017 232.78329468 291.12442017 C232.78329468 291.78442017 232.78329468 292.44442017 232.78329468 293.12442017 C225.35472325 296.41013445 225.35472325 296.41013445 221.78329468 297.12442017 C221.78329468 297.78442017 221.78329468 298.44442017 221.78329468 299.12442017 C220.85516968 299.49567017 219.92704468 299.86692017 218.97079468 300.24942017 C214.5118038 302.14083638 210.34809101 304.53113562 206.13876343 306.91738892 C203.78329468 308.12442017 203.78329468 308.12442017 201.78329468 308.12442017 C201.78329468 308.78442017 201.78329468 309.44442017 201.78329468 310.12442017 C200.85516968 310.49567017 199.92704468 310.86692017 198.97079468 311.24942017 C194.5118038 313.14083638 190.34809101 315.53113562 186.13876343 317.91738892 C183.78329468 319.12442017 183.78329468 319.12442017 181.78329468 319.12442017 C181.78329468 319.78442017 181.78329468 320.44442017 181.78329468 321.12442017 C180.05803426 321.840566 178.33277384 322.55671183 176.60751343 323.27285767 C174.51795535 324.19248708 174.51795535 324.19248708 171.78329468 326.12442017 C168.70688534 326.38448238 168.70688534 326.38448238 164.83992004 326.39857483 C164.12882916 326.40381151 163.41773828 326.40904819 162.68509918 326.41444355 C160.29516714 326.42947926 157.90544857 326.43014954 155.51547241 326.43081665 C153.80353941 326.43843716 152.09160983 326.44686447 150.37968445 326.45603943 C145.71710147 326.47803597 141.05458415 326.48679331 136.39195514 326.49186587 C133.46885133 326.49551147 130.5457646 326.50175342 127.62266731 326.50886726 C117.39356868 326.53340528 107.16452083 326.54641751 96.93539429 326.54995728 C87.45800495 326.55356861 77.98094427 326.58327853 68.5036549 326.62536186 C60.33424249 326.66034151 52.16493715 326.67551065 43.99545056 326.67620331 C39.13198156 326.67698852 34.26884514 326.68536771 29.40545464 326.71420097 C-24.43689374 327.01355567 -24.43689374 327.01355567 -37.21670532 318.12442017 C-38.24795532 317.73254517 -39.27920532 317.34067017 -40.34170532 316.93692017 C-58.22029771 309.36844477 -72.06096107 291.53673118 -79.21670532 274.12442017 C-79.5028772 273.4940686 -79.78904907 272.86371704 -80.08389282 272.21426392 C-94.21075041 239.08168555 -80.79695766 202.63748392 -69.21670532 171.18692017 C-67.87338961 167.51993279 -66.53194873 163.85226256 -65.19047546 160.18460083 C-64.26319391 157.64938426 -63.33502148 155.11449647 -62.40614319 152.5798645 C-59.23954424 143.93705313 -56.09663922 135.28591311 -52.97061157 126.62832642 C-52.54208893 125.44156311 -52.11356628 124.2547998 -51.67205811 123.03207397 C-50.80704431 120.6360974 -49.94208454 118.24010133 -49.07717896 115.84408569 C-40.61448637 92.40713093 -32.05061168 69.00907012 -23.40640259 45.63858032 C-22.58786436 43.42426088 -21.76942167 41.20990612 -20.95108032 38.99551392 C-20.55903915 37.93544128 -20.16699799 36.87536865 -19.76307678 35.78317261 C-17.69698743 30.18372796 -15.65555445 24.57638174 -13.6444397 18.9569397 C-13.22905945 17.79630508 -12.8136792 16.63567047 -12.38571167 15.43986511 C-11.59045167 13.21260017 -10.79782159 10.984394 -10.00814819 8.75514221 C-9.65577087 7.76720169 -9.30339355 6.77926117 -8.94033813 5.76138306 C-8.63058044 4.88752457 -8.32082275 4.01366608 -8.00167847 3.11332703 C-6.40193961 -0.93997289 -4.03664354 0.00685799 0 0 Z " fill="#FDFDFD" transform="translate(223.21670532226563,73.87557983398438)"/>
<path d="M0 0 C3.57025264 0.04376192 7.14036164 0.02853102 10.71080756 0.02097726 C16.87585678 0.01576937 23.03983617 0.04676326 29.20461631 0.10335565 C38.11732108 0.18511996 47.02951606 0.21071976 55.94255517 0.22323556 C70.40800741 0.24504542 84.8728912 0.31138469 99.33803535 0.40626168 C113.37772025 0.49825152 127.41724997 0.56893729 141.45717597 0.61133981 C142.32464966 0.61396704 143.19212334 0.61659428 144.08588411 0.61930113 C148.43836053 0.63235284 152.79083804 0.6449896 157.14331627 0.65742016 C193.17070051 0.76084888 229.19743864 0.93676934 265.22426581 1.16065621 C263.06193397 4.40415397 261.64961539 4.97998628 258.13512397 6.37897897 C255.10893073 7.6169078 252.26779473 9.17810997 249.38442206 10.71534371 C248.74849631 11.05347589 248.11257056 11.39160806 247.45737433 11.73998666 C245.39892177 12.83560279 243.342748 13.93541225 241.28676581 15.03565621 C239.85860763 15.79773994 238.43038434 16.55970166 237.00209785 17.32154489 C233.41877771 19.23433277 229.83780586 21.1514672 226.25789618 23.07062936 C224.33257541 24.10260222 222.40667014 25.13347561 220.48061347 26.16407418 C217.18455374 27.9295732 213.89120793 29.69999354 210.59926581 31.47315621 C209.62997138 31.9931318 208.66067695 32.51310739 207.66200995 33.04883981 C203.01800252 35.56106945 198.6116033 38.21693478 194.22426581 41.16065621 C191.22016065 42.7071711 188.18002831 44.15200679 185.12660956 45.59815621 C182.18412122 46.9860382 182.18412122 46.9860382 180.2709167 49.22824883 C175.56250644 52.21466476 171.04065498 51.69864514 165.57550788 51.64167428 C163.78662909 51.64680083 163.78662909 51.64680083 161.96161133 51.65203094 C158.65469626 51.65748036 155.34872823 51.64498158 152.0419277 51.6249187 C148.47483869 51.60764424 144.90777892 51.61349039 141.34065986 51.6165278 C135.16157008 51.61862517 128.98264926 51.60607561 122.80360198 51.58357644 C113.86976717 51.55106771 104.93601404 51.54065059 96.00212649 51.53562447 C81.50752311 51.52687005 67.01300976 51.50025047 52.51845527 51.46241403 C38.43838173 51.42569776 24.35833264 51.39738412 10.27822089 51.38038278 C9.4103188 51.37933188 8.5424167 51.37828099 7.64821454 51.37719825 C3.29420313 51.3719781 -1.05980845 51.36692327 -5.41382015 51.36195064 C-41.53452174 51.320484 -77.65512095 51.25003155 -113.77573419 51.16065621 C-113.77573419 50.50065621 -113.77573419 49.84065621 -113.77573419 49.16065621 C-109.94358259 47.0751438 -106.10980166 44.99264402 -102.27573419 42.91065621 C-100.65924981 42.03087106 -100.65924981 42.03087106 -99.01010919 41.13331246 C-82.47622576 32.16065621 -82.47622576 32.16065621 -79.77573419 32.16065621 C-79.77573419 31.50065621 -79.77573419 30.84065621 -79.77573419 30.16065621 C-79.17632012 29.87835153 -78.57690606 29.59604684 -77.95932794 29.30518746 C-68.7939567 24.85939573 -59.98852186 19.81392184 -51.14292169 14.77003121 C-50.19150229 14.24802321 -49.2400829 13.72601521 -48.25983262 13.18818879 C-45.80540604 11.80793679 -43.52256546 10.29497062 -41.23063111 8.66058946 C-28.06287118 -0.26066778 -15.51391081 -0.23920173 0 0 Z " fill="#EE2C24" transform="translate(624.7757341861725,348.8393437862396)"/>
<path d="M0 0 C0.66 0.33 1.32 0.66 2 1 C-9.04449557 7.150616 -20.10600245 13.2700431 -31.17578125 19.375 C-32.52364784 20.11847708 -33.87150759 20.86196659 -35.21936035 21.60546875 C-38.47949481 23.40378864 -41.73972119 25.20194182 -45 27 C-44.12876257 26.99962028 -43.25752515 26.99924056 -42.35988659 26.99884933 C9.25468126 26.9764806 60.8692486 26.95931816 112.48382032 26.94893467 C118.6785853 26.94768394 124.87335027 26.94638962 131.06811523 26.94506836 C132.30140296 26.94480605 133.53469069 26.94454374 134.80535077 26.94427348 C154.78542335 26.93991989 174.76549306 26.93203405 194.74556393 26.9228472 C215.24063246 26.91350203 235.73569948 26.90794255 256.23077005 26.90591151 C268.88151751 26.90453808 281.53225685 26.9001972 294.18300181 26.89208353 C302.85320682 26.88680543 311.52340763 26.88519814 320.19361413 26.88649862 C325.1989205 26.88714033 330.20421267 26.8861433 335.20951653 26.88079453 C339.79092069 26.87593441 344.37230107 26.8756786 348.95370632 26.87910111 C350.61196303 26.87952422 352.27022122 26.87825053 353.92847503 26.87511682 C356.18190947 26.87110564 358.43525801 26.87326603 360.68869114 26.87695217 C361.94062907 26.87657245 363.192567 26.87619273 364.48244244 26.8758015 C368.05223094 27.00184418 371.47608707 27.42989444 375 28 C375 29.32 375 30.64 375 32 C370.70970986 34.3774931 366.4179233 36.75226576 362.125 39.125 C361.47263367 39.48558502 360.82026733 39.84617004 360.14813232 40.21768188 C351.00545653 45.26822903 341.83388593 50.25850398 332.625 55.1875 C324.45712946 59.55985489 316.35812806 64.03171021 308.3125 68.625 C299.8517424 73.45442196 291.28465174 78.02099521 282.62426758 82.48095703 C275.82431368 86.00078367 269.14604823 89.69838817 262.5 93.5 C254.91549783 97.83841768 247.268114 101.9996223 239.5 106 C231.96419995 109.88244419 224.54184432 113.90914633 217.1875 118.125 C205.89325507 124.59354024 194.40511384 130.67492616 182.88745117 136.73291016 C182.1892778 137.10027283 181.49110443 137.4676355 180.77177429 137.84613037 C179.40871194 138.56267541 178.04504758 139.27807659 176.68074036 139.99224854 C171.7373143 142.58661679 166.86596825 145.29526615 162.03027344 148.08618164 C161.3602832 148.3877417 160.69029297 148.68930176 160 149 C159.34 148.67 158.68 148.34 158 148 C171.55232186 140.19420926 185.24035186 132.70096364 199.07241821 125.40719604 C208.79996481 120.2743477 218.42190242 114.99419297 227.97045898 109.53344727 C234.95374835 105.55345411 242.03035614 101.7873116 249.16552734 98.08789062 C257.28621888 93.87275609 265.31297021 89.49525314 273.3359375 85.09765625 C277.18767466 82.98690428 281.04723035 80.89156282 284.9140625 78.80859375 C294.81587069 73.47363025 304.67037299 68.07821555 314.4375 62.5 C323.57879317 57.28193737 332.84853627 52.35584968 342.22631836 47.57617188 C348.4901036 44.36967944 354.57107569 40.95501544 360.5949707 37.31591797 C363 36 363 36 365 36 C365.33 35.01 365.66 34.02 366 33 C367.98 32.01 367.98 32.01 370 31 C230.08 30.67 90.16 30.34 -54 30 C-54 29.34 -54 28.68 -54 28 C-53.09556152 27.66258789 -53.09556152 27.66258789 -52.17285156 27.31835938 C-45.73305631 24.83979568 -39.76721537 21.86441112 -33.75 18.5 C-32.81704102 17.98606689 -31.88408203 17.47213379 -30.92285156 16.94262695 C-26.8999887 14.7258857 -22.88551584 12.49436689 -18.875 10.25537109 C-16.81973587 9.10859794 -14.76281212 7.96479324 -12.70410156 6.82421875 C-10.75936495 5.74673823 -8.81848016 4.66227125 -6.88183594 3.5703125 C-6.00817383 3.08691406 -5.13451172 2.60351562 -4.234375 2.10546875 C-3.46319336 1.67387451 -2.69201172 1.24228027 -1.89746094 0.79760742 C-1.27129883 0.53439697 -0.64513672 0.27118652 0 0 Z " fill="#AEAFB0" transform="translate(755,265)"/>
<path d="M0 0 C0 0.66 0 1.32 0 2 C-2.97 2.99 -5.94 3.98 -9 5 C-9 5.66 -9 6.32 -9 7 C-10.78953185 7.83790789 -12.58169695 8.67019396 -14.375 9.5 C-15.37273438 9.9640625 -16.37046875 10.428125 -17.3984375 10.90625 C-20 12 -20 12 -22 12 C-22 12.66 -22 13.32 -22 14 C-22.63808594 14.18175781 -23.27617188 14.36351562 -23.93359375 14.55078125 C-24.75988281 14.80214844 -25.58617187 15.05351562 -26.4375 15.3125 C-27.26121094 15.55613281 -28.08492187 15.79976563 -28.93359375 16.05078125 C-29.61550781 16.36402344 -30.29742188 16.67726563 -31 17 C-31.33 17.99 -31.66 18.98 -32 20 C45.26177763 20.03426474 122.52355618 20.06606564 199.78533936 20.08468628 C201.49945673 20.08510045 201.49945673 20.08510045 203.24820274 20.08552299 C228.08065503 20.09150823 252.9131074 20.09704867 277.74555989 20.10213066 C289.92265843 20.10462542 302.09975696 20.10721852 314.27685547 20.10986328 C315.48864986 20.1101248 316.70044424 20.11038632 317.94895967 20.11065576 C357.25597108 20.11918475 396.56297675 20.13421205 435.86998468 20.15259444 C476.24909522 20.171444 516.62820259 20.18376725 557.00731746 20.18782998 C562.70517281 20.18840632 568.40302815 20.1890576 574.10088348 20.18975449 C575.22234883 20.18988933 576.34381418 20.19002418 577.49926333 20.19016311 C595.58187268 20.19253035 613.66447225 20.20181671 631.7470776 20.21366407 C649.90795215 20.22541601 668.06881695 20.22994163 686.22969517 20.22700275 C697.0311866 20.22547682 707.83264245 20.22957954 718.63412748 20.24159509 C725.83920164 20.24906537 733.04425238 20.24934822 740.24932813 20.24366363 C744.36127838 20.24062883 748.4731611 20.24083565 752.58510426 20.24976636 C756.32090606 20.25781893 760.05658722 20.25677953 763.79238703 20.24827995 C765.7792885 20.24616261 767.76619286 20.25392845 769.753079 20.26201695 C770.92456952 20.25752237 772.09606004 20.25302778 773.30305028 20.24839699 C774.82011783 20.24886493 774.82011783 20.24886493 776.36783321 20.24934233 C779.08583386 19.99186905 780.63450714 19.29266947 783 18 C785.75 17.875 785.75 17.875 788 18 C785.5861141 20.52360799 784.19945756 21.93792876 780.59086873 22.12467116 C779.56669995 22.12451518 778.54253118 22.1243592 777.48732698 22.1241985 C775.71533182 22.12756944 775.71533182 22.12756944 773.90753877 22.13100848 C772.59562519 22.12838146 771.28371161 22.12575445 769.93204308 22.12304783 C768.52955543 22.1237868 767.12706796 22.12496467 765.724581 22.12654433 C761.83983757 22.12963025 757.95512007 22.1264243 754.07037855 22.12226619 C749.85578308 22.11884641 745.64119037 22.12120003 741.42659438 22.12284368 C734.02985187 22.1249226 726.63311739 22.12326485 719.23637581 22.11920547 C708.23758287 22.11318598 697.23879502 22.11286822 686.24000074 22.11374746 C667.7408947 22.11506336 649.24179223 22.1117124 630.74268723 22.10573006 C612.41806394 22.09981929 594.09344213 22.09596538 575.7688179 22.09487724 C574.63076467 22.0948085 573.49271145 22.09473976 572.32017176 22.09466894 C566.5409128 22.09433062 560.76165385 22.09402923 554.98239489 22.09374207 C514.01495496 22.09163992 473.04751696 22.08489775 432.08007812 22.07543945 C392.27311208 22.06625967 352.46614657 22.05917378 312.65917969 22.05493164 C311.43282284 22.05480011 310.20646598 22.05466859 308.9429468 22.05453308 C296.62771471 22.05321459 284.31248261 22.05193877 271.99725051 22.05069422 C246.90821133 22.04815779 221.81917219 22.04533654 196.73013306 22.04234314 C195.57650123 22.04220585 194.4228694 22.04206856 193.23427904 22.04192711 C116.15618522 22.03272164 39.07809247 22.01687588 -38 22 C-36.72196445 18.16589334 -35.55135965 17.92710303 -32.0390625 16.07421875 C-31.00910156 15.52443359 -29.97914062 14.97464844 -28.91796875 14.40820312 C-27.83128906 13.84037109 -26.74460937 13.27253906 -25.625 12.6875 C-23.51295451 11.56653121 -21.40097501 10.44543806 -19.2890625 9.32421875 C-17.72720215 8.5031665 -17.72720215 8.5031665 -16.13378906 7.66552734 C-12.10958846 5.52676943 -8.13079014 3.30948583 -4.15771484 1.07739258 C-2 0 -2 0 0 0 Z " fill="#55565A" transform="translate(57,433)"/>
<path d="M0 0 C1.08174162 3.36541838 0.92538169 4.29847322 0 8 C109.23 8 218.46 8 331 8 C331.33 9.32 331.66 10.64 332 12 C331.01 12 330.02 12 329 12 C329.33 11.34 329.66 10.68 330 10 C220.44 10 110.88 10 -2 10 C-1 3 -1 3 0 0 Z " fill="#C83530" transform="translate(409,115)"/>
<path d="M0 0 C1.02113361 -0.00199105 2.04226721 -0.0039821 3.09434426 -0.00603348 C4.22467548 -0.00312064 5.3550067 -0.0002078 6.51959038 0.00279331 C8.31074959 0.00151167 8.31074959 0.00151167 10.13809383 0.00020415 C13.46285646 -0.00116256 16.78756077 0.00197934 20.11231637 0.00698221 C23.69377344 0.01128769 27.27522861 0.00984021 30.85668755 0.00907993 C37.06522997 0.00855476 43.27376192 0.01170086 49.48230171 0.01731777 C58.45888456 0.02543368 67.43546232 0.02804809 76.41204844 0.02930576 C90.97482531 0.03149614 105.53759658 0.03815584 120.10037041 0.04760838 C134.24945866 0.05678286 148.3985454 0.06386352 162.54763603 0.06811619 C163.41931329 0.06837891 164.29099056 0.06864164 165.18908228 0.06891232 C169.56188981 0.07021733 173.93469735 0.07148104 178.30750489 0.07272422 C214.60288459 0.08309639 250.89825792 0.10071432 287.19363213 0.12304783 C285.05931071 3.32452996 284.50943317 3.64511522 281.06863213 4.81054783 C280.344179 5.06191502 279.61972588 5.3132822 278.87331963 5.57226658 C278.31902275 5.75402439 277.76472588 5.9357822 277.19363213 6.12304783 C277.19363213 5.46304783 277.19363213 4.80304783 277.19363213 4.12304783 C277.85363213 3.79304783 278.51363213 3.46304783 279.19363213 3.12304783 C243.24323679 3.10016408 207.29284273 3.08254075 171.34244161 3.0719825 C167.09915354 3.07073178 162.85586549 3.06943746 158.61257744 3.06811619 C157.34542226 3.06772272 157.34542226 3.06772272 156.05266799 3.06732131 C142.37031591 3.06296879 128.68796803 3.05508353 115.00561844 3.04589503 C100.96857569 3.03654689 86.93153514 3.03098975 72.89448941 3.02895933 C64.23136149 3.02758653 55.56824543 3.02324898 46.90512116 3.01513136 C40.96627595 3.0098496 35.02743687 3.0082468 29.08858947 3.00954645 C25.66108703 3.01018758 22.23360533 3.00919761 18.80610657 3.00384235 C15.09036559 2.99888218 11.37467575 3.00005822 7.65893364 3.00279331 C6.57527232 2.99988047 5.491611 2.99696763 4.37511146 2.99396652 C-0.46504457 3.00362526 -5.04953952 3.09710268 -9.80636787 4.12304783 C-6.53134797 0.69916338 -4.73135291 -0.00202714 0 0 Z " fill="#D3302B" transform="translate(602.8063678741455,349.8769521713257)"/>
<path d="M0 0 C62.7 0 125.4 0 190 0 C190 0.99 190 1.98 190 3 C187.36 3.66 184.72 4.32 182 5 C181.67 4.01 181.34 3.02 181 2 C180.48772984 2.16251975 179.97545967 2.3250395 179.44766617 2.49248409 C176.20825882 3.16416505 173.14702999 3.12261184 169.83734131 3.12025452 C169.11521839 3.12110894 168.39309548 3.12196337 167.64909005 3.12284368 C165.22925095 3.12449088 162.80948116 3.11898955 160.38964844 3.11352539 C158.65509035 3.11324333 156.92053214 3.11340162 155.18597412 3.1139679 C150.47560697 3.11425513 145.76526522 3.10837031 141.05490398 3.10139394 C136.13281571 3.09514812 131.21072688 3.09455563 126.28863525 3.09336853 C116.96728025 3.09025885 107.64593695 3.08205033 98.32458711 3.07201904 C87.71284778 3.06084666 77.10110789 3.05534461 66.48936415 3.05032361 C44.65956956 3.03986743 22.82978552 3.02227498 1 3 C0.73445313 3.85464844 0.46890625 4.70929688 0.1953125 5.58984375 C-0.33449219 7.24693359 -0.33449219 7.24693359 -0.875 8.9375 C-1.22304688 10.03964844 -1.57109375 11.14179688 -1.9296875 12.27734375 C-3 15 -3 15 -5 16 C-4.45173957 9.55793995 -2.85058738 6.41382161 0 0 Z " fill="#CBCCCE" transform="translate(334,179)"/>
<path d="M0 0 C108.9 0 217.8 0 330 0 C328.515 1.485 328.515 1.485 327 3 C326.34 3 325.68 3 325 3 C325 2.34 325 1.68 325 1 C217.75 1 110.5 1 0 1 C0 0.67 0 0.34 0 0 Z " fill="#17060A" transform="translate(407,126)"/>
<path d="M0 0 C0 0.66 0 1.32 0 2 C-6.7505917 7.20859556 -13.97928461 6.53774274 -22.11499023 6.45410156 C-23.65294871 6.45297223 -25.19090935 6.45360863 -26.72886658 6.45587158 C-30.88966689 6.45701631 -35.05000322 6.43354646 -39.21069598 6.40557575 C-43.56419171 6.38052163 -47.9176988 6.37821694 -52.27125549 6.37347412 C-60.50887862 6.3610561 -68.74628868 6.32825045 -76.98381811 6.28807616 C-86.36466663 6.24332185 -95.74552548 6.22136222 -105.12645423 6.20129442 C-124.41775682 6.15951673 -143.70886126 6.08918758 -163 6 C-163 5.01 -163 4.02 -163 3 C-162.20062673 3.00276538 -161.40125345 3.00553076 -160.57765675 3.00837994 C-141.13160592 3.07461863 -121.6855776 3.12427029 -102.23943806 3.15543652 C-92.8354468 3.17090868 -83.43153083 3.19200488 -74.02758789 3.22631836 C-65.83158591 3.25621001 -57.63563845 3.27557246 -49.43958348 3.28226548 C-45.09939176 3.28617814 -40.75935601 3.29538067 -36.41921425 3.31719017 C-32.33413926 3.33755164 -28.24928451 3.34383451 -24.16416359 3.33932304 C-22.66496077 3.3401484 -21.16575058 3.34611618 -19.66659164 3.35761642 C-17.61899393 3.37255341 -15.57127806 3.36716338 -13.52363586 3.36076355 C-11.80495285 3.36491162 -11.80495285 3.36491162 -10.05154896 3.36914349 C-6.21116845 2.90457567 -3.65152431 0 0 0 Z " fill="#411114" transform="translate(593,291)"/>
<path d="M0 0 C0.66 0.33 1.32 0.66 2 1 C1.67 1.66 1.34 2.32 1 3 C143.065 2.505 143.065 2.505 288 2 C287.67 2.66 287.34 3.32 287 4 C190.97 4 94.94 4 -4 4 C-4 3.34 -4 2.68 -4 2 C-2.125 0.9375 -2.125 0.9375 0 0 Z " fill="#AE2E28" transform="translate(515,396)"/>
<path d="M0 0 C-3.75266105 3.92323655 -3.75266105 3.92323655 -7.01811707 4.1241985 C-8.27461164 4.12362892 -8.27461164 4.12362892 -9.55648994 4.12304783 C-11.00458886 4.1260344 -11.00458886 4.1260344 -12.4819423 4.12908131 C-13.55001834 4.12616847 -14.61809439 4.12325563 -15.71853638 4.12025452 C-16.84730568 4.12110894 -17.97607498 4.12196337 -19.13904941 4.12284368 C-22.94704484 4.1244997 -26.75499687 4.1189751 -30.56298828 4.11352539 C-33.28246082 4.1126877 -36.00193248 4.11335715 -38.72140503 4.1139679 C-44.58945292 4.11449304 -50.45748972 4.11134727 -56.32553482 4.10573006 C-64.80981227 4.09761372 -73.29408433 4.0949997 -81.77836524 4.09374207 C-95.54251346 4.09155176 -109.30665577 4.08489224 -123.07080078 4.07543945 C-136.44384735 4.06626479 -149.81689232 4.05918422 -163.18994141 4.05493164 C-164.01382674 4.05466892 -164.83771207 4.05440619 -165.68656363 4.05413551 C-169.81962601 4.0528305 -173.95268841 4.05156679 -178.08575082 4.05032361 C-212.3905048 4.03995165 -246.69525176 4.02233391 -281 4 C-281 3.67 -281 3.34 -281 3 C-280.42597513 2.99864347 -279.85195027 2.99728694 -279.26053071 2.99588931 C-245.25721196 2.9152811 -211.25393776 2.82434377 -177.2506838 2.71994839 C-173.17005245 2.70742916 -169.08942084 2.69499644 -165.00878906 2.68261719 C-164.19639109 2.68015119 -163.38399311 2.6776852 -162.54697701 2.67514448 C-149.38384264 2.63539486 -136.22069966 2.60265728 -123.05754021 2.57250018 C-109.55610681 2.54141242 -96.05471003 2.50281454 -82.55331779 2.45720994 C-74.21878297 2.42929557 -65.88427501 2.40727535 -57.54970595 2.39273749 C-51.83838106 2.38221479 -46.1271081 2.36441304 -40.4158223 2.34083296 C-37.11817334 2.32743468 -33.8206116 2.31837492 -30.52293396 2.31578636 C-26.95091707 2.31247918 -23.37915523 2.29704344 -19.80718994 2.2784729 C-18.23716009 2.281375 -18.23716009 2.281375 -16.63541245 2.28433573 C-15.20224077 2.27313749 -15.20224077 2.27313749 -13.74011612 2.26171303 C-12.91536356 2.25943471 -12.090611 2.25715638 -11.24086595 2.25480902 C-7.03971119 1.77709542 -4.47205457 -0.24844748 0 0 Z " fill="#545659" transform="translate(845,451)"/>
<path d="M0 0 C0.99 0.33 1.98 0.66 3 1 C4.58369377 1.09512941 6.17108402 1.1337183 7.75762463 1.1386652 C9.23483558 1.14687687 9.23483558 1.14687687 10.74188918 1.15525442 C12.3688161 1.15672158 12.3688161 1.15672158 14.02861023 1.15821838 C15.17865172 1.16315636 16.32869321 1.16809434 17.51358443 1.17318195 C20.71065055 1.18590987 23.90769309 1.19418512 27.10477698 1.20060861 C30.55057693 1.20860691 33.99635468 1.22230665 37.44213867 1.23532104 C43.41383355 1.25709189 49.38553067 1.27523415 55.35724449 1.29092598 C63.99138588 1.31361907 72.6255027 1.34176268 81.25962327 1.37124526 C95.26722824 1.41892805 109.27484325 1.46219037 123.2824707 1.50268555 C136.89120261 1.54203698 150.49992559 1.58346236 164.10864258 1.62768555 C164.94720017 1.63040982 165.78575775 1.63313409 166.64972617 1.63594092 C170.85643841 1.64962034 175.0631505 1.66334062 179.26986253 1.67708123 C214.17988987 1.7910568 249.0899361 1.89786377 284 2 C284 2.33 284 2.66 284 3 C189.95 3 95.9 3 -1 3 C-0.67 2.01 -0.34 1.02 0 0 Z " fill="#E1342C" transform="translate(517,396)"/>
<path d="M0 0 C-0.33 0.66 -0.66 1.32 -1 2 C-1.66 2 -2.32 2 -3 2 C-3 2.66 -3 3.32 -3 4 C-10.42857143 7.28571429 -10.42857143 7.28571429 -14 8 C-14 8.66 -14 9.32 -14 10 C-21.42857143 13.28571429 -21.42857143 13.28571429 -25 14 C-25 14.66 -25 15.32 -25 16 C-29.28853694 17.88695626 -33.52761347 19.58192622 -38 21 C-38 21.66 -38 22.32 -38 23 C-39.40751221 23.86916887 -40.8264521 24.71985149 -42.25 25.5625 C-43.03890625 26.03816406 -43.8278125 26.51382813 -44.640625 27.00390625 C-47.30844625 28.13022151 -48.34501768 28.0169313 -51 27 C-50.28972656 26.60167969 -49.57945312 26.20335937 -48.84765625 25.79296875 C-47.92855469 25.26316406 -47.00945312 24.73335937 -46.0625 24.1875 C-45.14597656 23.66542969 -44.22945313 23.14335937 -43.28515625 22.60546875 C-40.715938 21.13859013 -40.715938 21.13859013 -40 18 C-37.86356429 16.77281231 -35.79255979 15.7131943 -33.5625 14.6875 C-29.17837046 12.59357079 -24.94051017 10.45167732 -20.8125 7.875 C-7.26177307 -0.44326802 -7.26177307 -0.44326802 0 0 Z " fill="#F0F1F1" transform="translate(449,220)"/>
<path d="M0 0 C0 0.66 0 1.32 0 2 C-0.99 2.66 -1.98 3.32 -3 4 C70.755 4.495 70.755 4.495 146 5 C146 5.33 146 5.66 146 6 C94.52 6 43.04 6 -10 6 C-10 5.34 -10 4.68 -10 4 C-8.71086513 3.32845067 -7.41859796 2.66291141 -6.125 2 C-5.40570313 1.62875 -4.68640625 1.2575 -3.9453125 0.875 C-2 0 -2 0 0 0 Z " fill="#BE3837" transform="translate(440,289)"/>
<path d="M0 0 C0 0.66 0 1.32 0 2 C-2.97 2.99 -5.94 3.98 -9 5 C-9 5.66 -9 6.32 -9 7 C-10.78953185 7.83790789 -12.58169695 8.67019396 -14.375 9.5 C-15.37273438 9.9640625 -16.37046875 10.428125 -17.3984375 10.90625 C-20 12 -20 12 -22 12 C-22 12.66 -22 13.32 -22 14 C-22.63808594 14.18175781 -23.27617188 14.36351562 -23.93359375 14.55078125 C-24.75988281 14.80214844 -25.58617187 15.05351562 -26.4375 15.3125 C-27.26121094 15.55613281 -28.08492187 15.79976563 -28.93359375 16.05078125 C-29.61550781 16.36402344 -30.29742188 16.67726563 -31 17 C-31.33 17.99 -31.66 18.98 -32 20 C12.55 20.495 12.55 20.495 58 21 C58 21.33 58 21.66 58 22 C26.32 22 -5.36 22 -38 22 C-36.72196445 18.16589334 -35.55135965 17.92710303 -32.0390625 16.07421875 C-31.00910156 15.52443359 -29.97914062 14.97464844 -28.91796875 14.40820312 C-27.83128906 13.84037109 -26.74460937 13.27253906 -25.625 12.6875 C-23.51295451 11.56653121 -21.40097501 10.44543806 -19.2890625 9.32421875 C-17.72720215 8.5031665 -17.72720215 8.5031665 -16.13378906 7.66552734 C-12.10958846 5.52676943 -8.13079014 3.30948583 -4.15771484 1.07739258 C-2 0 -2 0 0 0 Z " fill="#58595D" transform="translate(57,433)"/>
<path d="M0 0 C0.99 0.33 1.98 0.66 3 1 C2.34 1 1.68 1 1 1 C1 1.66 1 2.32 1 3 C-5.75 6 -5.75 6 -8 6 C-8 6.66 -8 7.32 -8 8 C-15.42857143 11.28571429 -15.42857143 11.28571429 -19 12 C-19 12.66 -19 13.32 -19 14 C-23.28853694 15.88695626 -27.52761347 17.58192622 -32 19 C-32 19.66 -32 20.32 -32 21 C-34.31 21.66 -36.62 22.32 -39 23 C-34.375 18.125 -34.375 18.125 -31 17 C-29.98572082 16.01448605 -28.98733113 15.01251036 -28 14 C-24.95733875 11.8119065 -21.784833 9.8265377 -18.625 7.8125 C-17.34882813 6.97428711 -17.34882813 6.97428711 -16.046875 6.11914062 C-15.21929687 5.59126953 -14.39171875 5.06339844 -13.5390625 4.51953125 C-12.78834473 4.03589111 -12.03762695 3.55225098 -11.26416016 3.05395508 C-8.65038101 1.83725413 -6.84944085 1.88954049 -4 2 C-2.948125 1.4740625 -2.948125 1.4740625 -1.875 0.9375 C-1.25625 0.628125 -0.6375 0.31875 0 0 Z " fill="#ECECED" transform="translate(384,254)"/>
<path d="M0 0 C11.55 0 23.1 0 35 0 C35 0.66 35 1.32 35 2 C23.78 2.33 12.56 2.66 1 3 C-0.32 6.96 -1.64 10.92 -3 15 C-3.99 15.495 -3.99 15.495 -5 16 C-4.45173957 9.55793995 -2.85058738 6.41382161 0 0 Z " fill="#616367" transform="translate(334,179)"/>
<path d="M0 0 C31.68 0 63.36 0 96 0 C96 0.33 96 0.66 96 1 C94.24353401 1.0154612 94.24353401 1.0154612 92.45158386 1.03123474 C81.43007287 1.128882 70.40861943 1.23160784 59.38720226 1.33933926 C53.72063849 1.39456427 48.05406956 1.44798367 42.38745117 1.49731445 C36.92150121 1.54496412 31.4556147 1.59730726 25.98974037 1.65294075 C23.90171191 1.67336155 21.81366604 1.69207509 19.72560692 1.70907402 C16.80683461 1.733124 13.88818248 1.76317792 10.96948242 1.79467773 C10.10129883 1.8004332 9.23311523 1.80618866 8.33862305 1.81211853 C4.98487367 1.85341035 2.20299977 1.93233341 -1 3 C-0.67 2.01 -0.34 1.02 0 0 Z " fill="#D6D7D8" transform="translate(217,74)"/>
<path d="M0 0 C0.66 0 1.32 0 2 0 C0.64906232 10.34533857 -2.29596516 18.87774266 -7.05078125 28.10546875 C-8.50795304 31.01381575 -9.74912705 33.99790492 -11 37 C-11.66 37 -12.32 37 -13 37 C-10.70033934 28.79420414 -7.80527873 20.85005087 -4.8125 12.875 C-4.3441091 11.61990058 -3.87600824 10.36469288 -3.40820312 9.109375 C-2.27497048 6.07184421 -1.13884527 3.03542994 0 0 Z " fill="#C9CBCB" transform="translate(325,202)"/>
<path d="M0 0 C-2.63974287 2.75973118 -3.95374043 3.95658443 -7.89797974 4.12025452 C-9.13708099 4.11803391 -10.37618225 4.11581329 -11.65283203 4.11352539 C-12.67739502 4.11374443 -12.67739502 4.11374443 -13.72265625 4.1139679 C-15.9844071 4.11327023 -18.246076 4.10548465 -20.5078125 4.09765625 C-22.07437088 4.09579155 -23.64092984 4.09436789 -25.20748901 4.09336853 C-29.33389898 4.08954743 -33.46027384 4.0797206 -37.58666992 4.06866455 C-41.79605637 4.0584417 -46.00544847 4.05386903 -50.21484375 4.04882812 C-58.47657862 4.03809798 -66.73828495 4.02102642 -75 4 C-75 3.67 -75 3.34 -75 3 C-74.18202942 2.99191315 -73.36405884 2.98382629 -72.52130127 2.97549438 C-64.81114668 2.89754036 -57.10118111 2.81024734 -49.39125443 2.71247292 C-45.42753853 2.66253574 -41.46384895 2.61620556 -37.5 2.578125 C-33.6743701 2.54123948 -29.84896174 2.49487082 -26.02352142 2.44193649 C-24.56433754 2.42340987 -23.1051062 2.40829549 -21.64585114 2.39665604 C-19.60123529 2.37976362 -17.5571249 2.35072247 -15.51269531 2.31884766 C-14.34909485 2.30552399 -13.18549438 2.29220032 -11.9866333 2.2784729 C-7.50472104 1.86058058 -4.65378154 -0.25854342 0 0 Z " fill="#535558" transform="translate(845,451)"/>
<path d="M0 0 C0.66 0 1.32 0 2 0 C2.33 1.65 2.66 3.3 3 5 C15.10621312 5.7128339 15.10621312 5.7128339 26.3984375 1.875 C28 1 28 1 30 1 C30 1.66 30 2.32 30 3 C27 5 27 5 23 5 C22.67 5.99 22.34 6.98 22 8 C14.41 8 6.82 8 -1 8 C-0.67 5.36 -0.34 2.72 0 0 Z " fill="#E8E8E8" transform="translate(294,287)"/>
<path d="M0 0 C0 0.66 0 1.32 0 2 C-2.97 2.99 -5.94 3.98 -9 5 C-9 5.66 -9 6.32 -9 7 C-10.78953185 7.83790789 -12.58169695 8.67019396 -14.375 9.5 C-15.37273438 9.9640625 -16.37046875 10.428125 -17.3984375 10.90625 C-20 12 -20 12 -22 12 C-22 12.66 -22 13.32 -22 14 C-22.63808594 14.18175781 -23.27617188 14.36351562 -23.93359375 14.55078125 C-24.75988281 14.80214844 -25.58617187 15.05351562 -26.4375 15.3125 C-27.26121094 15.55613281 -28.08492187 15.79976563 -28.93359375 16.05078125 C-29.61550781 16.36402344 -30.29742188 16.67726563 -31 17 C-31.33 17.99 -31.66 18.98 -32 20 C-35 22 -35 22 -38 22 C-36.72196445 18.16589334 -35.55135965 17.92710303 -32.0390625 16.07421875 C-31.00910156 15.52443359 -29.97914062 14.97464844 -28.91796875 14.40820312 C-27.83128906 13.84037109 -26.74460937 13.27253906 -25.625 12.6875 C-23.51295451 11.56653121 -21.40097501 10.44543806 -19.2890625 9.32421875 C-17.72720215 8.5031665 -17.72720215 8.5031665 -16.13378906 7.66552734 C-12.10958846 5.52676943 -8.13079014 3.30948583 -4.15771484 1.07739258 C-2 0 -2 0 0 0 Z " fill="#CBCCCD" transform="translate(57,433)"/>
<path d="M0 0 C9.9 0 19.8 0 30 0 C30 0.99 30 1.98 30 3 C27.36 3.66 24.72 4.32 22 5 C21.67 4.01 21.34 3.02 21 2 C14.07 1.67 7.14 1.34 0 1 C0 0.67 0 0.34 0 0 Z " fill="#3C3F42" transform="translate(494,179)"/>
<path d="M0 0 C0.66 0 1.32 0 2 0 C0.97908881 4.86896107 -0.12365943 9.70102445 -1.4375 14.5 C-1.66308594 15.3353125 -1.88867188 16.170625 -2.12109375 17.03125 C-2.41113281 17.6809375 -2.70117188 18.330625 -3 19 C-3.99 19.33 -4.98 19.66 -6 20 C-5.36757331 15.27497299 -4.08186437 11.09429803 -2.4375 6.625 C-2.20353516 5.98433594 -1.96957031 5.34367187 -1.72851562 4.68359375 C-1.15700381 3.1206839 -0.57915771 1.56009273 0 0 Z " fill="#AFB0B1" transform="translate(306,254)"/>
<path d="M0 0 C0.66 0 1.32 0 2 0 C2.042721 1.66611905 2.04063832 3.33382885 2 5 C1.67 5.33 1.34 5.66 1 6 C8.26 6 15.52 6 23 6 C22.67 6.66 22.34 7.32 22 8 C14.41 8 6.82 8 -1 8 C-0.67 5.36 -0.34 2.72 0 0 Z " fill="#AFB0B2" transform="translate(294,287)"/>
<path d="M0 0 C0.66 0.33 1.32 0.66 2 1 C-3.61192685 5.91043599 -9.50432952 9.25043295 -17 10 C-15.06745228 7.9754262 -13.36841312 6.57894208 -11 5 C-9.68 5 -8.36 5 -7 5 C-7 4.34 -7 3.68 -7 3 C-4.69631264 1.93347808 -2.35981813 0.93578995 0 0 Z " fill="#A7A8AA" transform="translate(466,210)"/>
<path d="M0 0 C0.66 0.33 1.32 0.66 2 1 C-2.75 4 -2.75 4 -5 4 C-5 4.66 -5 5.32 -5 6 C-9.4135435 9.38371669 -14.72231121 10.55504054 -20 12 C-16.67964751 8.40742387 -12.72345526 6.50501712 -8.4375 4.25 C-7.65697266 3.82589844 -6.87644531 3.40179688 -6.07226562 2.96484375 C-5.32525391 2.56910156 -4.57824219 2.17335938 -3.80859375 1.765625 C-3.12595459 1.40243164 -2.44331543 1.03923828 -1.73999023 0.66503906 C-0.87869507 0.33584473 -0.87869507 0.33584473 0 0 Z " fill="#CFCFD1" transform="translate(101,408)"/>
<path d="M0 0 C0 0.66 0 1.32 0 2 C-0.99 2.66 -1.98 3.32 -3 4 C0.3 4.33 3.6 4.66 7 5 C7 5.33 7 5.66 7 6 C1.39 6 -4.22 6 -10 6 C-10 5.34 -10 4.68 -10 4 C-8.71086513 3.32845067 -7.41859796 2.66291141 -6.125 2 C-5.40570313 1.62875 -4.68640625 1.2575 -3.9453125 0.875 C-2 0 -2 0 0 0 Z " fill="#B1312E" transform="translate(440,289)"/>
<path d="M0 0 C-3.75764794 3.92845012 -3.75764794 3.92845012 -6.97119141 4.11352539 C-7.75671387 4.10828857 -8.54223633 4.10305176 -9.3515625 4.09765625 C-10.20234375 4.09443359 -11.053125 4.09121094 -11.9296875 4.08789062 C-12.81914063 4.07951172 -13.70859375 4.07113281 -14.625 4.0625 C-15.5221875 4.05798828 -16.419375 4.05347656 -17.34375 4.04882812 C-19.56256648 4.03702591 -21.78125018 4.02056155 -24 4 C-24 3.67 -24 3.34 -24 3 C-22.96359375 2.95101563 -21.9271875 2.90203125 -20.859375 2.8515625 C-19.48955792 2.77650403 -18.11976752 2.70095753 -16.75 2.625 C-16.06808594 2.5940625 -15.38617187 2.563125 -14.68359375 2.53125 C-9.32554485 2.21913065 -5.30060959 -0.29447831 0 0 Z " fill="#828385" transform="translate(845,451)"/>
<path d="M0 0 C0.33 0 0.66 0 1 0 C1.5326514 6.258654 -0.18150494 10.45108785 -3 16 C-3.66 16 -4.32 16 -5 16 C-3.41078475 10.63904723 -1.81027062 5.29156027 0 0 Z " fill="#9FA0A3" transform="translate(317,223)"/>
<path d="M0 0 C0 2 0 2 -1.4375 3.5 C-5.08271629 5.63378514 -8.87563571 6.25091674 -13 7 C-10.84545751 4.64283596 -8.80280126 3.21033856 -5.9375 1.8125 C-5.24527344 1.46832031 -4.55304688 1.12414062 -3.83984375 0.76953125 C-2 0 -2 0 0 0 Z " fill="#AE2925" transform="translate(477,269)"/>
<path d="M0 0 C0.66 0 1.32 0 2 0 C1.74337755 1.44010481 1.46909179 2.8770687 1.1875 4.3125 C1.03667969 5.11300781 0.88585937 5.91351563 0.73046875 6.73828125 C-0.07572236 9.23445587 -1.02052002 10.32422106 -3 12 C-2.49202991 7.6822542 -1.80317221 3.96697886 0 0 Z " fill="#C6C7C8" transform="translate(332,183)"/>
<path d="M0 0 C2.64 0 5.28 0 8 0 C7.67 0.99 7.34 1.98 7 3 C5.02 3.33 3.04 3.66 1 4 C0.67 2.68 0.34 1.36 0 0 Z " fill="#CACBCC" transform="translate(515,180)"/>
<path d="M0 0 C-0.66 0 -1.32 0 -2 0 C-2.33 0.99 -2.66 1.98 -3 3 C-4.32 3 -5.64 3 -7 3 C-7 3.66 -7 4.32 -7 5 C-8.32 4.67 -9.64 4.34 -11 4 C-4.45384615 -1.48461538 -4.45384615 -1.48461538 0 0 Z " fill="#C9CACC" transform="translate(398,249)"/>
<path d="M0 0 C1 2 1 2 0.25 4.4375 C-0.93098981 6.85852911 -1.9831559 8.25818009 -4 10 C-4.25 7.25 -4.25 7.25 -4 4 C-2 1.625 -2 1.625 0 0 Z " fill="#F1F3F3" transform="translate(322,217)"/>
<path d="M0 0 C0 0.66 0 1.32 0 2 C-4.61012242 4.95047835 -7.36529617 6.5497272 -13 6 C-13 5.67 -13 5.34 -13 5 C-12.113125 4.731875 -11.22625 4.46375 -10.3125 4.1875 C-6.87308399 2.95450181 -3.60500565 0 0 0 Z " fill="#380C0D" transform="translate(593,291)"/>
<path d="M0 0 C0.99 0.33 1.98 0.66 3 1 C2.34 1 1.68 1 1 1 C1 1.66 1 2.32 1 3 C-0.75 4.6875 -0.75 4.6875 -3 6 C-5.140625 5.58203125 -5.140625 5.58203125 -7 5 C-5.90554162 4.13342884 -4.79902219 3.28207276 -3.6875 2.4375 C-3.07261719 1.96183594 -2.45773437 1.48617188 -1.82421875 0.99609375 C-1.22222656 0.66738281 -0.62023437 0.33867187 0 0 Z " fill="#C5C6C8" transform="translate(332,282)"/>
<path d="M0 0 C0.66 0.33 1.32 0.66 2 1 C-1.07999946 4.67230705 -3.2482602 5.56802365 -8 6 C-5.54080489 3.3651481 -3.42227589 1.25483449 0 0 Z " fill="#C6C7C8" transform="translate(406,242)"/>
<path d="M0 0 C0 0.66 0 1.32 0 2 C-6.45 6.09326923 -6.45 6.09326923 -9.234375 5.62109375 C-9.81703125 5.41613281 -10.3996875 5.21117187 -11 5 C-9.54462432 4.16151196 -8.08559627 3.32936066 -6.625 2.5 C-5.81289063 2.0359375 -5.00078125 1.571875 -4.1640625 1.09375 C-2 0 -2 0 0 0 Z " fill="#4E1111" transform="translate(688,239)"/>
<path d="M0 0 C1.2077558 3.62326739 0.54311128 4.64146369 -1 8 C-1.66 8 -2.32 8 -3 8 C-2.25 2.25 -2.25 2.25 0 0 Z " fill="#D9D9DA" transform="translate(303,266)"/>
<path d="M0 0 C0.99 0.33 1.98 0.66 3 1 C1.02579865 3.52259061 0.03254358 3.9929808 -3.1875 4.6875 C-4.5796875 4.8421875 -4.5796875 4.8421875 -6 5 C-4.06745228 2.9754262 -2.36841312 1.57894208 0 0 Z " fill="#DCDCDD" transform="translate(455,215)"/>
<path d="M0 0 C0.66 0 1.32 0 2 0 C2 0.66 2 1.32 2 2 C1.34 2 0.68 2 0 2 C0 1.34 0 0.68 0 0 Z " fill="#FFFFFF" transform="translate(308,272)"/>
</svg>
