<?xml version="1.0" encoding="UTF-8"?>
<svg version="1.1" xmlns="http://www.w3.org/2000/svg" width="1000" height="700">
<path d="M0 0 C46.2 0 92.4 0 140 0 C140 0.99 140 1.98 140 3 C140.66 3 141.32 3 142 3 C142.33 18.84 142.66 34.68 143 51 C144.32 50.67 145.64 50.34 147 50 C147.825 49.855625 148.65 49.71125 149.5 49.5625 C152.013512 49.11186035 152.013512 49.11186035 154.125 47.875 C156 47 156 47 159 48 C158.40802528 52.85419266 157.13607512 56.64240676 155 61 C154.01 61.495 154.01 61.495 153 62 C152.62913819 63.99338221 152.30262289 65.99512332 152 68 C151.34561559 70.00405227 150.67939174 72.00428677 150 74 C149.64386903 75.66194453 149.30791692 77.328451 149 79 C148.67516582 80.33542939 148.3449145 81.66961551 148 83 C147.34 83 146.68 83 146 83 C146 83.66 146 84.32 146 85 C144.68 85.33 143.36 85.66 142 86 C142 104.48 142 122.96 142 142 C139.36115323 143.31942338 137.40075259 143.12289871 134.44454956 143.12025452 C133.26381866 143.12162918 132.08308777 143.12300385 130.86657715 143.12442017 C128.91370789 143.11902725 128.91370789 143.11902725 126.92138672 143.11352539 C125.54179893 143.11324343 124.16221099 143.11340142 122.78262329 143.1139679 C119.03078219 143.11425553 115.27897288 143.1083642 111.52713919 143.10139394 C107.60868076 143.09515484 103.69022166 143.09455616 99.77175903 143.09336853 C92.34863184 143.09025686 84.92551933 143.08204567 77.50239861 143.07201904 C69.0526964 143.06085282 60.60299349 143.05534617 52.15328574 143.05032361 C34.76884714 143.03986293 17.38442867 143.02151948 0 143 C0 129.47 0 115.94 0 102 C-1.32 101.67 -2.64 101.34 -4 101 C-5.375 98.6875 -5.375 98.6875 -6 96 C-5.34 94.68 -4.68 93.36 -4 92 C-6.97 91.67 -9.94 91.34 -13 91 C-13 91.66 -13 92.32 -13 93 C-17.95 93.99 -17.95 93.99 -23 95 C-23.89892384 89.69634935 -24.176488 86.957556 -22 82 C-21.66118252 79.66501691 -21.439721 77.3394693 -21.24609375 74.98828125 C-21 73 -21 73 -20 71 C-20 70.21625 -20 69.4325 -20 68.625 C-20 66.19787753 -19.68501551 64.31192733 -19 62 C-17.02 61.505 -17.02 61.505 -15 61 C-15 60.34 -15 59.68 -15 59 C-12.87562952 58.49733206 -10.75048274 57.9979439 -8.625 57.5 C-7.44164062 57.2215625 -6.25828125 56.943125 -5.0390625 56.65625 C-2 56 -2 56 0 56 C0 37.52 0 19.04 0 0 Z " fill="#F9DA04" transform="translate(202,276)"/>
<path d="M0 0 C0.825 -0.20625 1.65 -0.4125 2.5 -0.625 C6.28959346 -1.19343902 8.59597046 0.33135807 12 2 C12 2.66 12 3.32 12 4 C12.99 4 13.98 4 15 4 C16.95543532 6.15924126 18.38848122 8.56094454 20 11 C20.33 8.03 20.66 5.06 21 2 C26.61 2 32.22 2 38 2 C38.495 14.375 38.495 14.375 39 27 C40.65 27.66 42.3 28.32 44 29 C44.33 20.09 44.66 11.18 45 2 C48.9290625 1.9690625 48.9290625 1.9690625 52.9375 1.9375 C53.7637085 1.928396 54.58991699 1.91929199 55.44116211 1.90991211 C57.29433759 1.90276055 59.14749308 1.9497148 61 2 C62.96822886 3.96822886 62.66248381 7.34808709 63 10 C63.33 9.34 63.66 8.68 64 8 C64.66 8 65.32 8 66 8 C66.37125 7.071875 66.37125 7.071875 66.75 6.125 C68.22527877 3.6170261 69.34874952 3.07707051 72 2 C72.66 1.67 73.32 1.34 74 1 C75.33333333 0.33333333 76.66666667 -0.33333333 78 -1 C78 -0.34 78 0.32 78 1 C79.45880109 0.85892253 80.91703551 0.71197585 82.375 0.5625 C83.18710937 0.48128906 83.99921875 0.40007812 84.8359375 0.31640625 C87.04272805 0.10909886 87.04272805 0.10909886 89 -1 C94.85899857 0.87539689 98.47633149 4.08821966 102 9 C102.33 9.66 102.66 10.32 103 11 C103.33 8.03 103.66 5.06 104 2 C108.95 2 113.9 2 119 2 C119 5.63 119 9.26 119 13 C121.64 12.67 124.28 12.34 127 12 C126.98839844 11.36191406 126.97679687 10.72382813 126.96484375 10.06640625 C126.95582031 9.24011719 126.94679688 8.41382813 126.9375 7.5625 C126.92589844 6.73878906 126.91429687 5.91507812 126.90234375 5.06640625 C127 3 127 3 128 2 C130.53049402 1.92686433 133.03304837 1.90752473 135.5625 1.9375 C136.62887695 1.94426758 136.62887695 1.94426758 137.71679688 1.95117188 C139.47790013 1.96299136 141.23896036 1.98092737 143 2 C143.02464928 7.25105442 143.04283568 12.50207545 143.05493164 17.75317383 C143.05997218 19.54094021 143.06680454 21.32870245 143.07543945 23.11645508 C143.0875173 25.68051168 143.09323094 28.24451397 143.09765625 30.80859375 C143.10281754 31.6127623 143.10797882 32.41693085 143.11329651 33.24546814 C143.11349215 35.16401715 143.06201983 37.08245368 143 39 C142 40 142 40 139.93359375 40.09765625 C139.10988281 40.08605469 138.28617188 40.07445312 137.4375 40.0625 C136.61121094 40.05347656 135.78492188 40.04445313 134.93359375 40.03515625 C134.29550781 40.02355469 133.65742187 40.01195312 133 40 C133.26676204 41.98491642 133.26676204 41.98491642 134 44 C134.99 44.33 135.98 44.66 137 45 C136.67 46.65 136.34 48.3 136 50 C136.94875 50.721875 137.8975 51.44375 138.875 52.1875 C141.67412562 54.49809898 142.98517558 56.44811452 144 60 C144.33 60 144.66 60 145 60 C145.07347656 59.04287109 145.07347656 59.04287109 145.1484375 58.06640625 C145.22320313 57.24011719 145.29796875 56.41382813 145.375 55.5625 C145.44460938 54.73878906 145.51421875 53.91507812 145.5859375 53.06640625 C145.72257813 52.38449219 145.85921875 51.70257813 146 51 C148.573329 49.7133355 150.50223038 49.83175449 153.375 49.8125 C154.33148437 49.79832031 155.28796875 49.78414063 156.2734375 49.76953125 C159.12947202 50.01094391 160.64668031 50.38903652 163 52 C164.484375 53.9453125 164.484375 53.9453125 165.75 56.125 C166.17796875 56.84945312 166.6059375 57.57390625 167.046875 58.3203125 C167.36140625 58.87460937 167.6759375 59.42890625 168 60 C168.185625 58.081875 168.185625 58.081875 168.375 56.125 C168.75 52.25 168.75 52.25 171 50 C174.96 50 178.92 50 183 50 C183 62.21 183 74.42 183 87 C171 87 171 87 168 86 C166.61328125 83.93359375 166.61328125 83.93359375 165.3125 81.4375 C164.87550781 80.61121094 164.43851563 79.78492188 163.98828125 78.93359375 C163.66214844 78.29550781 163.33601562 77.65742188 163 77 C162.95101562 77.63808594 162.90203125 78.27617187 162.8515625 78.93359375 C162.73941406 80.17302734 162.73941406 80.17302734 162.625 81.4375 C162.52058594 82.67306641 162.52058594 82.67306641 162.4140625 83.93359375 C162.27742187 84.61550781 162.14078125 85.29742187 162 86 C159.13366205 87.43316898 156.62764499 87.13200361 153.4375 87.125 C151.67212891 87.12886719 151.67212891 87.12886719 149.87109375 87.1328125 C147 87 147 87 146 86 C145.92773498 84.14712498 145.9161878 82.29166122 145.9375 80.4375 C145.94652344 79.42558594 145.95554687 78.41367187 145.96484375 77.37109375 C145.98224609 76.19740234 145.98224609 76.19740234 146 75 C145.01 75.495 145.01 75.495 144 76 C143.938125 76.721875 143.87625 77.44375 143.8125 78.1875 C142.41665825 83.0192599 138.28173373 85.47380724 134.23046875 88.18359375 C130.94471657 89.38625961 128.10045372 89.09004803 124.625 88.875 C123.33851563 88.81054688 122.05203125 88.74609375 120.7265625 88.6796875 C115.4310214 87.71383409 112.29780257 85.40302981 108.6875 81.5 C107.11041 79.16357037 106.57562892 77.69006782 106 75 C105.93941406 75.78246094 105.87882813 76.56492187 105.81640625 77.37109375 C105.73261719 78.38300781 105.64882813 79.39492188 105.5625 80.4375 C105.44068359 81.95150391 105.44068359 81.95150391 105.31640625 83.49609375 C105 86 105 86 104 87 C101.83519203 87.0989294 99.66706215 87.129711 97.5 87.125 C96.3140625 87.12757813 95.128125 87.13015625 93.90625 87.1328125 C91 87 91 87 90 86 C89.92755947 83.98035801 89.91622812 81.95832876 89.9375 79.9375 C89.94652344 78.83277344 89.95554687 77.72804688 89.96484375 76.58984375 C89.98224609 75.30787109 89.98224609 75.30787109 90 74 C87.69 74 85.38 74 83 74 C83.01160156 74.85464844 83.02320313 75.70929688 83.03515625 76.58984375 C83.04417969 77.69457031 83.05320312 78.79929687 83.0625 79.9375 C83.07410156 81.03964844 83.08570313 82.14179688 83.09765625 83.27734375 C83 86 83 86 82 87 C77.71 87 73.42 87 69 87 C69 74.79 69 62.58 69 50 C73.29 50 77.58 50 82 50 C83 51 83 51 83.09765625 53.50390625 C83.08025391 55.01791016 83.08025391 55.01791016 83.0625 56.5625 C83.05347656 57.57441406 83.04445313 58.58632813 83.03515625 59.62890625 C83.01775391 60.80259766 83.01775391 60.80259766 83 62 C85.31 62 87.62 62 90 62 C89.98839844 61.21753906 89.97679687 60.43507813 89.96484375 59.62890625 C89.95582031 58.61699219 89.94679688 57.60507812 89.9375 56.5625 C89.92589844 55.55316406 89.91429687 54.54382813 89.90234375 53.50390625 C90 51 90 51 91 50 C93.16480797 49.9010706 95.33293785 49.870289 97.5 49.875 C98.6859375 49.87242187 99.871875 49.86984375 101.09375 49.8671875 C104 50 104 50 105 51 C105.23363881 52.84891946 105.41303635 54.70488031 105.5625 56.5625 C105.64628906 57.57441406 105.73007812 58.58632813 105.81640625 59.62890625 C105.87699219 60.41136719 105.93757812 61.19382812 106 62 C106.43699219 60.84564453 106.43699219 60.84564453 106.8828125 59.66796875 C108.52142658 55.75477498 110.55293555 52.84412093 114.25 50.6875 C114.8275 50.460625 115.405 50.23375 116 50 C115.34 49.01 114.68 48.02 114 47 C115.61594832 44.95880212 117.2856382 42.95927063 119 41 C119.66 41 120.32 41 121 41 C121.33 40.34 121.66 39.68 122 39 C124.31 39 126.62 39 129 39 C129 38.34 129 37.68 129 37 C128.34 37 127.68 37 127 37 C127 33.37 127 29.74 127 26 C124.69 26 122.38 26 120 26 C119.93941406 26.75925781 119.87882813 27.51851563 119.81640625 28.30078125 C119.73261719 29.29464844 119.64882813 30.28851563 119.5625 31.3125 C119.44068359 32.79169922 119.44068359 32.79169922 119.31640625 34.30078125 C119 37 119 37 118 40 C113.71 40 109.42 40 105 40 C104.34 36.7 103.68 33.4 103 30 C102.34 30 101.68 30 101 30 C101 30.66 101 31.32 101 32 C100.01 32.99 100.01 32.99 99 34 C98.34 34.99 97.68 35.98 97 37 C90.34090247 41.14973086 83.60224469 40.72596543 76 40 C69.87494814 38.35737246 66.77564463 34.88612835 63 30 C62.34 30 61.68 30 61 30 C59.97388051 31.65071396 58.97691857 33.31970006 58 35 C55.35647055 38.2443316 52.28792063 39.74966697 48.09667969 40.20825195 C45.91511687 40.30470696 43.7460985 40.32198566 41.5625 40.3125 C40.82451172 40.32861328 40.08652344 40.34472656 39.32617188 40.36132812 C33.7806961 40.36625744 29.59361692 39.36567434 25.35546875 35.5 C23.41284403 33.0051241 22.00720872 31.02162616 21 28 C20.50371094 28.61488281 20.00742187 29.22976563 19.49609375 29.86328125 C12.24624625 38.48881139 12.24624625 38.48881139 6 40 C-7.20693522 40.91714828 -7.20693522 40.91714828 -13 38 C-13.66 37.34 -14.32 36.68 -15 36 C-15.825 35.34 -16.65 34.68 -17.5 34 C-20 32 -20 32 -22 30 C-22.2475 30.61875 -22.495 31.2375 -22.75 31.875 C-24.22246063 34.37818306 -25.41028837 34.83045281 -28 36 C-28.495 36.99 -28.495 36.99 -29 38 C-35.36826803 40.35447506 -42.23933671 40.33603536 -48.9375 40.3125 C-49.88173828 40.32861328 -50.82597656 40.34472656 -51.79882812 40.36132812 C-53.14944336 40.36229492 -53.14944336 40.36229492 -54.52734375 40.36328125 C-55.33937256 40.36626221 -56.15140137 40.36924316 -56.98803711 40.37231445 C-57.65198486 40.24945068 -58.31593262 40.12658691 -59 40 C-61.49336211 36.25995683 -61.25481228 33.37438391 -61.1953125 29.05078125 C-61.1924826 28.27816452 -61.18965271 27.50554779 -61.18673706 26.70951843 C-61.17554878 24.24368757 -61.15044703 21.77822094 -61.125 19.3125 C-61.11496843 17.63997921 -61.10584289 15.96745272 -61.09765625 14.29492188 C-61.077316 10.19636162 -61.03816585 6.09858815 -61 2 C-50.605 1.505 -50.605 1.505 -40 1 C-40 0.67 -40 0.34 -40 0 C-35.99557505 -0.18201932 -33.48222088 0.0101595 -30 2 C-29.34 2 -28.68 2 -28 2 C-28 2.66 -28 3.32 -28 4 C-27.01 4.33 -26.02 4.66 -25 5 C-23.3125 8.0625 -23.3125 8.0625 -22 11 C-21.13375 9.88625 -21.13375 9.88625 -20.25 8.75 C-14.35007432 1.53897973 -9.5824511 -1.77452798 0 0 Z M-45 11 C-45 11.99 -45 12.98 -45 14 C-43.02 14 -41.04 14 -39 14 C-39 13.01 -39 12.02 -39 11 C-40.98 11 -42.96 11 -45 11 Z M-4 11 C-4 11.33 -4 11.66 -4 12 C-2.02 12 -0.04 12 2 12 C2 11.67 2 11.34 2 11 C0.02 11 -1.96 11 -4 11 Z M81 11 C81 11.33 81 11.66 81 12 C82.65 12 84.3 12 86 12 C86 11.67 86 11.34 86 11 C84.35 11 82.7 11 81 11 Z M-5 13 C-5 13.66 -5 14.32 -5 15 C-5.99 15.495 -5.99 15.495 -7 16 C-7 19.3 -7 22.6 -7 26 C-6.34 26 -5.68 26 -5 26 C-4.525625 26.495 -4.05125 26.99 -3.5625 27.5 C-2.00030058 29.34626591 -2.00030058 29.34626591 1 29 C2.8590123 27.42698959 3.90809958 26.18380083 5 24 C5.06996014 22.29297265 5.08440154 20.58331997 5.0625 18.875 C5.05347656 17.96492188 5.04445313 17.05484375 5.03515625 16.1171875 C5.02355469 15.41851562 5.01195312 14.71984375 5 14 C1.52674819 12.8422494 -1.36067448 12.93133348 -5 13 Z M80 13 C77.32496884 17.01254674 77.30331041 20.28460096 78 25 C79.5451157 27.71648577 79.5451157 27.71648577 82 29 C84.21858253 28.86358623 84.21858253 28.86358623 86 28 C86.33 26.68 86.66 25.36 87 24 C91.95 23.67 96.9 23.34 102 23 C102 24.65 102 26.3 102 28 C104.61881031 24.07178453 104.28987737 20.56556861 104 16 C103.34 15.01 102.68 14.02 102 13 C101.67 14.32 101.34 15.64 101 17 C99.22925083 17.02705729 97.45838289 17.04642195 95.6875 17.0625 C94.70136719 17.07410156 93.71523438 17.08570313 92.69921875 17.09765625 C90 17 90 17 87 16 C87 15.01 87 14.02 87 13 C83.58357241 12.74984127 83.58357241 12.74984127 80 13 Z M-24 14 C-24.66 15.65 -25.32 17.3 -26 19 C-24.515 19.99 -24.515 19.99 -23 21 C-22.34 18.69 -21.68 16.38 -21 14 C-21.99 14 -22.98 14 -24 14 Z M-8 17 C-8 18.98 -8 20.96 -8 23 C-7.67 23 -7.34 23 -7 23 C-7 21.02 -7 19.04 -7 17 C-7.33 17 -7.66 17 -8 17 Z M-24 22 C-23 24 -23 24 -23 24 Z M-45 23 C-45 24.32 -45 25.64 -45 27 C-42.69 27 -40.38 27 -38 27 C-38.33 26.01 -38.66 25.02 -39 24 C-41.97 23.505 -41.97 23.505 -45 23 Z M-21 27 C-20 29 -20 29 -20 29 Z M124 48 C128 49 128 49 128 49 Z M122.1875 61.9375 C120.60136138 66.02806801 120.23186037 69.66607536 121 74 C122.81264648 76.56990998 122.81264648 76.56990998 125 78 C127.67576692 76.99382318 128.7785108 76.45785454 130.046875 73.8359375 C130.27890625 73.02382813 130.5109375 72.21171875 130.75 71.375 C130.99234375 70.55773437 131.2346875 69.74046875 131.484375 68.8984375 C131.65453125 68.27195312 131.8246875 67.64546875 132 67 C131.34 67 130.68 67 130 67 C130.309375 65.824375 130.309375 65.824375 130.625 64.625 C130.74875 63.75875 130.8725 62.8925 131 62 C129.17213728 59.79142762 129.17213728 59.79142762 126.5625 59.5625 C123.86010683 59.7580188 123.86010683 59.7580188 122.1875 61.9375 Z " fill="#0058AB" transform="translate(438,327)"/>
<path d="M0 0 C0.763125 0.309375 1.52625 0.61875 2.3125 0.9375 C4.18789677 1.67893593 6.08684652 2.36228217 8 3 C8.66 2.01 9.32 1.02 10 0 C13.75376152 1.25125384 14.24073289 2.5652404 16 6 C16 6.66 16 7.32 16 8 C17.093125 7.67 18.18625 7.34 19.3125 7 C23.96049599 6.34076897 26.31972106 8.2284719 30 10.9375 C31.68332879 12.27089767 33.35574598 13.61870573 35 15 C36.91104638 13.08895362 37.82338341 10.40439042 39 8 C39.99 8 40.98 8 42 8 C42 8.66 42 9.32 42 10 C42.66 10 43.32 10 44 10 C44.12375 11.11375 44.2475 12.2275 44.375 13.375 C44.6465813 17.03103677 44.6465813 17.03103677 47 19 C47 19.99 47 20.98 47 22 C47.94875 21.979375 48.8975 21.95875 49.875 21.9375 C53 22 53 22 55 23 C55 23.66 55 24.32 55 25 C55.66 25 56.32 25 57 25 C56.90234375 27.01822917 56.8046875 29.03645833 56.70703125 31.0546875 C56.80371094 31.69664062 56.90039062 32.33859375 57 33 C58.485 33.99 58.485 33.99 60 35 C60 35.66 60 36.32 60 37 C59.34 37 58.68 37 58 37 C58 37.66 58 38.32 58 39 C57.34 39 56.68 39 56 39 C56.33 39.99 56.66 40.98 57 42 C52.25 43 52.25 43 50 43 C49.525625 43.495 49.05125 43.99 48.5625 44.5 C47 46 47 46 44 46 C44 46.99 44 47.98 44 49 C43.34 49 42.68 49 42 49 C42.165 49.61875 42.33 50.2375 42.5 50.875 C43.08115533 53.34491017 43 55.4483478 43 58 C42.01 58.495 42.01 58.495 41 59 C41.33 59.99 41.66 60.98 42 62 C42.28875 61.360625 42.5775 60.72125 42.875 60.0625 C44 58 44 58 46 57 C45.67 56.34 45.34 55.68 45 55 C45.99 55 46.98 55 48 55 C48 54.34 48 53.68 48 53 C48.66 53 49.32 53 50 53 C50 52.34 50 51.68 50 51 C50.66 51 51.32 51 52 51 C52.495 50.01 52.495 50.01 53 49 C55.90625 48.33203125 55.90625 48.33203125 59.5 47.8125 C60.6859375 47.63332031 61.871875 47.45414062 63.09375 47.26953125 C64.0528125 47.18058594 65.011875 47.09164062 66 47 C66.33 47.33 66.66 47.66 67 48 C66.814375 49.11375 66.62875 50.2275 66.4375 51.375 C65.59043374 55.09025096 65.59043374 55.09025096 68 58 C69.50930183 54.6136749 69.50930183 54.6136749 70 51 C70.66 51 71.32 51 72 51 C72 50.34 72 49.68 72 49 C72.66 49 73.32 49 74 49 C76.61896089 51.82847776 77.4739075 54.21213403 78 58 C78.33 57.34 78.66 56.68 79 56 C81.0625 55.375 81.0625 55.375 83 55 C83 55.66 83 56.32 83 57 C83.99 57.33 84.98 57.66 86 58 C83.525 61.96 83.525 61.96 81 66 C81.66 66 82.32 66 83 66 C83 66.99 83 67.98 83 69 C82.34 69 81.68 69 81 69 C81.66 70.65 82.32 72.3 83 74 C81.35 74.99 79.7 75.98 78 77 C78.33 77.99 78.66 78.98 79 80 C73.375 82 73.375 82 70 82 C70.33 82.66 70.66 83.32 71 84 C71.039992 85.99960012 71.04346799 88.00047242 71 90 C68.525 90.495 68.525 90.495 66 91 C65.4225 90.236875 64.845 89.47375 64.25 88.6875 C62.28296907 86.33799083 60.51523256 84.70676495 58 83 C58.33 83.598125 58.66 84.19625 59 84.8125 C60 87 60 87 60 90 C60.66 90.33 61.32 90.66 62 91 C62 91.66 62 92.32 62 93 C59.625 93.625 59.625 93.625 57 94 C56.34 93.34 55.68 92.68 55 92 C52.41645782 91.83312552 52.41645782 91.83312552 50 92 C50.66 93.98 51.32 95.96 52 98 C46.95859836 100.81532819 42.77378925 102.5188509 37 103 C35.875 96.25 35.875 96.25 37 94 C30.77479404 95.86756179 28.30471772 97.15319172 25 103 C24.01 103.495 24.01 103.495 23 104 C21.96858837 108.84315026 21.36945345 114.25659186 23 119 C23.66 119.66 24.32 120.32 25 121 C25.59765625 122.953125 25.59765625 122.953125 26.0625 125.25 C26.22878906 126.04921875 26.39507813 126.8484375 26.56640625 127.671875 C26.92663783 129.60609139 27.22175695 131.55229863 27.5 133.5 C27.665 134.325 27.83 135.15 28 136 C28.66 136.33 29.32 136.66 30 137 C30 137.99 30 138.98 30 140 C30.91265625 139.48566406 30.91265625 139.48566406 31.84375 138.9609375 C36.4953164 137.54474278 40.70914751 138.14393778 45.5 138.625 C46.90572266 138.73134766 46.90572266 138.73134766 48.33984375 138.83984375 C53.7058483 139.34980447 57.09644755 139.94758326 61 144 C57.57767028 145.14077657 54.91326783 145.09815117 51.3125 145.0625 C50.13300781 145.05347656 48.95351563 145.04445313 47.73828125 145.03515625 C46.83464844 145.02355469 45.93101562 145.01195312 45 145 C45 145.33 45 145.66 45 146 C42.33333333 146 39.66666667 146 37 146 C36.67 146.33 36.34 146.66 36 147 C33.5625 147.1875 33.5625 147.1875 31 147 C30.34 146.34 29.68 145.68 29 145 C29 145.33 29 145.66 29 146 C27.54263913 146.19491452 26.08405407 146.38069358 24.625 146.5625 C23.81289063 146.66691406 23.00078125 146.77132812 22.1640625 146.87890625 C20 147 20 147 18 146 C15.6670134 145.95977609 13.33293334 145.95679753 11 146 C11 145.67 11 145.34 11 145 C5.72 144.67 0.44 144.34 -5 144 C-5.33 144.66 -5.66 145.32 -6 146 C-7.64551962 146.71727778 -9.31422289 147.38325228 -11 148 C-11.66 148.33 -12.32 148.66 -13 149 C-15.01927511 148.39421747 -17.02253397 147.73080266 -19 147 C-19 146.34 -19 145.68 -19 145 C-24.57710648 143.93204344 -29.39436958 144.17377329 -35 145 C-35.495 144.01 -35.495 144.01 -36 143 C-35.01 142.67 -34.02 142.34 -33 142 C-32.67 141.34 -32.34 140.68 -32 140 C-29.63671875 139.65625 -29.63671875 139.65625 -26.6875 139.5 C-22.86260262 139.29573312 -20.36132744 138.80381581 -17 137 C-15.33378384 136.96125079 -13.66605828 136.9549714 -12 137 C-11.67 136.67 -11.34 136.34 -11 136 C-9.33382885 135.95936168 -7.66611905 135.957279 -6 136 C-5.67 135.34 -5.34 134.68 -5 134 C-4.01 133.34 -3.02 132.68 -2 132 C-1.63371323 130.00577205 -1.29868656 128.00546689 -1 126 C-0.34 125.67 0.32 125.34 1 125 C1.39764263 123.01178687 1.72428861 121.00875442 2 119 C2.31674575 117.66262906 2.64270064 116.32711192 3 115 C3.66 115 4.32 115 5 115 C5 114.34 5 113.68 5 113 C4.34 113 3.68 113 3 113 C3 112.01 3 111.02 3 110 C3.66 110 4.32 110 5 110 C5 109.01 5 108.02 5 107 C4.34 107 3.68 107 3 107 C3 105.02 3 103.04 3 101 C3.66 101 4.32 101 5 101 C4.814375 100.195625 4.62875 99.39125 4.4375 98.5625 C4.2209375 97.2940625 4.2209375 97.2940625 4 96 C4.33 95.67 4.66 95.34 5 95 C4.34 94.67 3.68 94.34 3 94 C2.18359375 91.41796875 2.18359375 91.41796875 1.4375 88.1875 C1.18871094 87.12917969 0.93992187 86.07085937 0.68359375 84.98046875 C0.34521484 83.50513672 0.34521484 83.50513672 0 82 C-0.32973547 80.66577236 -0.66135727 79.33199474 -1 78 C-1.66 78 -2.32 78 -3 78 C-3 77.34 -3 76.68 -3 76 C-4.134375 75.71125 -5.26875 75.4225 -6.4375 75.125 C-7.613125 74.75375 -8.78875 74.3825 -10 74 C-10.33 73.34 -10.66 72.68 -11 72 C-13.38629447 71.38812962 -15.53540571 71 -18 71 C-18 72.32 -18 73.64 -18 75 C-20.64 75.99 -23.28 76.98 -26 78 C-26.99 77.01 -26.99 77.01 -28 76 C-29.3921875 76.495 -29.3921875 76.495 -30.8125 77 C-34 78 -34 78 -37 78 C-35.68 79.65 -34.36 81.3 -33 83 C-33.99 83.495 -33.99 83.495 -35 84 C-36.13350534 86.01669827 -36.13350534 86.01669827 -37 88 C-37.66 88 -38.32 88 -39 88 C-39 89.98 -39 91.96 -39 94 C-40.98 94.495 -40.98 94.495 -43 95 C-43 94.34 -43 93.68 -43 93 C-43.99 93 -44.98 93 -46 93 C-46.66 91.68 -47.32 90.36 -48 89 C-48.309375 89.78375 -48.61875 90.5675 -48.9375 91.375 C-50 94 -50 94 -51 96 C-52.485 96.495 -52.485 96.495 -54 97 C-54.495 97.99 -54.495 97.99 -55 99 C-55.99 98.67 -56.98 98.34 -58 98 C-58 94.66666667 -58 91.33333333 -58 88 C-58.66 88 -59.32 88 -60 88 C-59.67 86.02 -59.34 84.04 -59 82 C-59.66 82 -60.32 82 -61 82 C-60.773125 81.401875 -60.54625 80.80375 -60.3125 80.1875 C-60.209375 79.465625 -60.10625 78.74375 -60 78 C-61.35444301 76.22809091 -61.35444301 76.22809091 -63 75 C-61.515 74.505 -61.515 74.505 -60 74 C-60 73.34 -60 72.68 -60 72 C-59.01 72 -58.02 72 -57 72 C-57 72.66 -57 73.32 -57 74 C-56.01 74 -55.02 74 -54 74 C-53.34 72.68 -52.68 71.36 -52 70 C-50.35 70 -48.7 70 -47 70 C-47.66 68.35 -48.32 66.7 -49 65 C-48.505 64.505 -48.505 64.505 -48 64 C-48.99 63.67 -49.98 63.34 -51 63 C-52.1875 60.9375 -52.1875 60.9375 -53 59 C-54.485 59.495 -54.485 59.495 -56 60 C-56 59.34 -56 58.68 -56 58 C-56.66 58 -57.32 58 -58 58 C-57.34 56.35 -56.68 54.7 -56 53 C-56.804375 52.4225 -57.60875 51.845 -58.4375 51.25 C-60.96957138 49.02671781 -61.78135941 48.2796088 -62 45 C-61.67 44.34 -61.34 43.68 -61 43 C-59.35 43 -57.7 43 -56 43 C-55.67 42.34 -55.34 41.68 -55 41 C-55.99 40.67 -56.98 40.34 -58 40 C-60.29013653 36.5647952 -60.17842973 35.014669 -60 31 C-57.08482708 32.07401108 -55.22189824 32.77810176 -53 35 C-51.65737935 34.70630173 -50.32303717 34.3721042 -49 34 C-48.34 34.33 -47.68 34.66 -47 35 C-46.9175 34.38125 -46.835 33.7625 -46.75 33.125 C-46 31 -46 31 -43.9375 29.75 C-43.298125 29.5025 -42.65875 29.255 -42 29 C-40.68 29.99 -39.36 30.98 -38 32 C-36.02 30.68 -34.04 29.36 -32 28 C-31.01 28.99 -30.02 29.98 -29 31 C-30.65 33.97 -32.3 36.94 -34 40 C-31.81104812 40.18661914 -31.81104812 40.18661914 -29.6875 38.4375 C-27 37 -27 37 -24.1875 37.3125 C-23.465625 37.539375 -22.74375 37.76625 -22 38 C-21.67 38.99 -21.34 39.98 -21 41 C-22.62339805 42.70884005 -24.29319053 44.37446717 -26 46 C-26.66 46 -27.32 46 -28 46 C-28 46.66 -28 47.32 -28 48 C-26.700625 48.12375 -25.40125 48.2475 -24.0625 48.375 C-21.84765625 48.5859375 -21.84765625 48.5859375 -20 49 C-19.67 49.66 -19.34 50.32 -19 51 C-19.66 51.66 -20.32 52.32 -21 53 C-20.01 53.66 -19.02 54.32 -18 55 C-17.01 54.34 -16.02 53.68 -15 53 C-15 51.68 -15 50.36 -15 49 C-15.99 49 -16.98 49 -18 49 C-18 48.34 -18 47.68 -18 47 C-19.32 47 -20.64 47 -22 47 C-21.8125 45.125 -21.8125 45.125 -21 43 C-18.4375 41.75 -18.4375 41.75 -16 41 C-16 39.68 -16 38.36 -16 37 C-17.11375 37.020625 -18.2275 37.04125 -19.375 37.0625 C-23 37 -23 37 -25 36 C-24.67 34.35 -24.34 32.7 -24 31 C-24.639375 30.731875 -25.27875 30.46375 -25.9375 30.1875 C-28 29 -28 29 -29 26 C-27.68 25.01 -26.36 24.02 -25 23 C-26.3921875 23.061875 -26.3921875 23.061875 -27.8125 23.125 C-31 23 -31 23 -34 21 C-34 20.01 -34 19.02 -34 18 C-30.535 17.505 -30.535 17.505 -27 17 C-26.34 14.36 -25.68 11.72 -25 9 C-24.34 9 -23.68 9 -23 9 C-22.67 7.68 -22.34 6.36 -22 5 C-17.553086 5.76670931 -15.93792509 7.8744899 -13.125 11.25 C-11.10166201 13.33410573 -11.10166201 13.33410573 -8.25 12.75 C-7.5075 12.5025 -6.765 12.255 -6 12 C-5.505 13.485 -5.505 13.485 -5 15 C-3.35 15 -1.7 15 0 15 C0.33 13.68 0.66 12.36 1 11 C1.66 11 2.32 11 3 11 C3 10.34 3 9.68 3 9 C2.01 8.67 1.02 8.34 0 8 C-1.1875 4.9375 -1.1875 4.9375 -2 2 C-1.34 1.34 -0.68 0.68 0 0 Z M-19 9 C-18 12 -18 12 -18 12 Z M10 13 C10 14.98 10 16.96 10 19 C10.33 18.01 10.66 17.02 11 16 C11.66 16 12.32 16 13 16 C13 15.34 13 14.68 13 14 C12.01 13.67 11.02 13.34 10 13 Z M14 14 C14.99 14.99 15.98 15.98 17 17 C17.33 16.34 17.66 15.68 18 15 C16.68 14.67 15.36 14.34 14 14 Z M-11 17 C-11 19.64 -11 22.28 -11 25 C-10.67 25 -10.34 25 -10 25 C-10 22.36 -10 19.72 -10 17 C-10.33 17 -10.66 17 -11 17 Z M16 17 C17 19 17 19 17 19 Z M-14 18 C-13.34 18.66 -12.68 19.32 -12 20 C-12 19.34 -12 18.68 -12 18 C-12.66 18 -13.32 18 -14 18 Z M-20 24 C-19.67 24.66 -19.34 25.32 -19 26 C-18.01 25.67 -17.02 25.34 -16 25 C-17.32 24.67 -18.64 24.34 -20 24 Z M38 25 C38 27.31 38 29.62 38 32 C38.33 32 38.66 32 39 32 C39 29.69 39 27.38 39 25 C38.67 25 38.34 25 38 25 Z M-10 26 C-10.66 27.32 -11.32 28.64 -12 30 C-11.34 30.33 -10.68 30.66 -10 31 C-11.25541557 33.51083114 -12.50063488 33.87125446 -15 35 C-14.01 36.485 -14.01 36.485 -13 38 C-12.34 37.67 -11.68 37.34 -11 37 C-11 37.66 -11 38.32 -11 39 C-10.01 38.67 -9.02 38.34 -8 38 C-8.66 38 -9.32 38 -10 38 C-9.34 34.04 -8.68 30.08 -8 26 C-8.66 26 -9.32 26 -10 26 Z M6 26 C5.67 26.66 5.34 27.32 5 28 C5.66 28.66 6.32 29.32 7 30 C7 29.34 7 28.68 7 28 C7.66 27.67 8.32 27.34 9 27 C8.01 26.67 7.02 26.34 6 26 Z M16 28 C15.67 27.67 15.34 27.34 15 27 C13.33382885 26.95936168 11.66611905 26.957279 10 27 C11.31201173 28.56249809 11.31201173 28.56249809 13 30 C13.99 30 14.98 30 16 30 C16.33 30.99 16.66 31.98 17 33 C19.97 33.495 19.97 33.495 23 34 C22.2575 33.4121875 22.2575 33.4121875 21.5 32.8125 C19.54406857 30.44908285 19.75792027 28.98564997 20 26 C18.53774984 25.90754997 18.53774984 25.90754997 16 28 Z M31 31 C31.66 32.32 32.32 33.64 33 35 C33.66 35 34.32 35 35 35 C35.66 33.35 36.32 31.7 37 30 C33.94729537 29.84188612 33.94729537 29.84188612 31 31 Z M-2 31 C-1 33 -1 33 -1 33 Z M1 31 C0.67 31.66 0.34 32.32 0 33 C0.99 33.33 1.98 33.66 3 34 C2.67 33.01 2.34 32.02 2 31 C1.67 31 1.34 31 1 31 Z M47 34 C47 34.33 47 34.66 47 35 C48.65 35 50.3 35 52 35 C52 34.67 52 34.34 52 34 C50.35 34 48.7 34 47 34 Z M-42 35 C-41 37 -41 37 -41 37 Z M10 36 C10 37.98 10 39.96 10 42 C7.69 40.35 5.38 38.7 3 37 C2.67 38.32 2.34 39.64 2 41 C6.11084345 43.86960657 6.11084345 43.86960657 10.625 46 C13.42783036 47.1801391 14.98174472 48.75749414 17 51 C17.66 50.01 18.32 49.02 19 48 C20.32594105 47.63837971 21.65938457 47.30271961 23 47 C23.33 46.34 23.66 45.68 24 45 C23.67 44.34 23.34 43.68 23 43 C22.01 43 21.02 43 20 43 C20 41.68 20 40.36 20 39 C18.35 39 16.7 39 15 39 C15 39.66 15 40.32 15 41 C13.0625 40.1875 13.0625 40.1875 11 39 C10.67 38.01 10.34 37.02 10 36 Z M2 42 C3 44 3 44 3 44 Z M29 42 C30 45 30 45 30 45 Z M35 42 C35 44.31 35 46.62 35 49 C36.98 49 38.96 49 41 49 C40.67 48.01 40.34 47.02 40 46 C39.01 45.67 38.02 45.34 37 45 C36.34 44.01 35.68 43.02 35 42 Z M1 44 C1 44.66 1 45.32 1 46 C0.01 46.495 0.01 46.495 -1 47 C-0.01 47 0.98 47 2 47 C1.67 46.01 1.34 45.02 1 44 Z M-43 46 C-42 48 -42 48 -42 48 Z M-32 47 C-31.67 47.66 -31.34 48.32 -31 49 C-30.67 48.34 -30.34 47.68 -30 47 C-30.66 47 -31.32 47 -32 47 Z M-8 47 C-8 47.99 -8 48.98 -8 50 C-8.99 50.495 -8.99 50.495 -10 51 C-11.13350534 53.01669827 -11.13350534 53.01669827 -12 55 C-12.66 54.67 -13.32 54.34 -14 54 C-14 55.65 -14 57.3 -14 59 C-12.35 59 -10.7 59 -9 59 C-8.67 58.34 -8.34 57.68 -8 57 C-4.9375 56.375 -4.9375 56.375 -2 56 C-1.67 55.01 -1.34 54.02 -1 53 C-3.19909405 50.80090595 -5.56070254 48.92576115 -8 47 Z M-44 48 C-43 50 -43 50 -43 50 Z M30 48 C31 51 31 51 31 51 Z M27 49 C26.67 50.32 26.34 51.64 26 53 C26.99 52.01 27.98 51.02 29 50 C28.34 49.67 27.68 49.34 27 49 Z M-43 51 C-42 53 -42 53 -42 53 Z M75 53 C76 56 76 56 76 56 Z M-48 54 C-47.67 54.99 -47.34 55.98 -47 57 C-46.67 56.01 -46.34 55.02 -46 54 C-46.66 54 -47.32 54 -48 54 Z M11 55 C10.67 57.31 10.34 59.62 10 62 C11.32 62 12.64 62 14 62 C14 61.34 14 60.68 14 60 C15.32 59.67 16.64 59.34 18 59 C17.67 58.01 17.34 57.02 17 56 C14.03 55.505 14.03 55.505 11 55 Z M59 55 C60 57 60 57 60 57 Z M27 60 C27.99 60.99 28.98 61.98 30 63 C30.33 62.01 30.66 61.02 31 60 C33.0625 59.3125 33.0625 59.3125 35 59 C31.59745511 57.7848054 30.06748874 58.13759612 27 60 Z M74 58 C73.34 58.66 72.68 59.32 72 60 C72.99 60 73.98 60 75 60 C75.33 59.34 75.66 58.68 76 58 C75.34 58 74.68 58 74 58 Z M-34 59 C-33.34 59.99 -32.68 60.98 -32 62 C-34.64738916 63.4606285 -35.89448334 64 -39 64 C-39 64.99 -39 65.98 -39 67 C-36.25038489 67.94607807 -36.25038489 67.94607807 -33 68 C-30.1028059 65.68726558 -30.1028059 65.68726558 -28 63 C-28.66 63 -29.32 63 -30 63 C-29.67 61.68 -29.34 60.36 -29 59 C-30.65 59 -32.3 59 -34 59 Z M49 59 C48.67 60.32 48.34 61.64 48 63 C48.99 62.01 49.98 61.02 51 60 C50.34 59.67 49.68 59.34 49 59 Z M53 60 C53 60.66 53 61.32 53 62 C53.99 62 54.98 62 56 62 C56.33 61.01 56.66 60.02 57 59 C54.9254644 58.8509288 54.9254644 58.8509288 53 60 Z M61 60 C60.67 60.99 60.34 61.98 60 63 C60.99 63.33 61.98 63.66 63 64 C63.33 63.34 63.66 62.68 64 62 C63.34 62 62.68 62 62 62 C61.67 61.34 61.34 60.68 61 60 Z M-22 62 C-22.33 62.99 -22.66 63.98 -23 65 C-24.65 65 -26.3 65 -28 65 C-28 65.33 -28 65.66 -28 66 C-25.03 66 -22.06 66 -19 66 C-19 64.68 -19 63.36 -19 62 C-19.99 62 -20.98 62 -22 62 Z M-11 63 C-11.33 63.99 -11.66 64.98 -12 66 C-9.26900772 67.82066152 -8.03686863 68.28544268 -5 69 C-4.195625 69.350625 -3.39125 69.70125 -2.5625 70.0625 C0.14244935 71.05211562 2.14541159 71.16311934 5 71 C4.67 68.36 4.34 65.72 4 63 C3.67 63.66 3.34 64.32 3 65 C2.44828125 64.67257812 1.8965625 64.34515625 1.328125 64.0078125 C-1.38780923 62.83212285 -3.30551759 62.79751362 -6.25 62.875 C-7.58804688 62.90207031 -7.58804688 62.90207031 -8.953125 62.9296875 C-9.62859375 62.95289063 -10.3040625 62.97609375 -11 63 Z M30 63 C31 65 31 65 31 65 Z M54 65 C54 65.99 54 66.98 54 68 C54.66 68 55.32 68 56 68 C56 67.01 56 66.02 56 65 C55.34 65 54.68 65 54 65 Z M63 65 C62.67 65.66 62.34 66.32 62 67 C62.66 67 63.32 67 64 67 C63.67 66.34 63.34 65.68 63 65 Z M5 67 C6 69 6 69 6 69 Z M14 69 C14 70.98 14 72.96 14 75 C14.33 75 14.66 75 15 75 C15 73.02 15 71.04 15 69 C14.67 69 14.34 69 14 69 Z M31 67 C31.66 67.33 32.32 67.66 33 68 C32.01 69.485 32.01 69.485 31 71 C30.46375 70.67 29.9275 70.34 29.375 70 C26.43734461 68.76309247 24.16337941 68.86538811 21 69 C20.01 69 19.02 69 18 69 C17.01 69.495 17.01 69.495 16 70 C15.34227572 73.02934491 15.34227572 73.02934491 15 76 C15.66 76 16.32 76 17 76 C16.690625 76.8971875 16.690625 76.8971875 16.375 77.8125 C15.69328085 80.28450846 15.69328085 80.28450846 18 83 C19.11375 82.7215625 19.11375 82.7215625 20.25 82.4375 C22.94990963 82.00796892 24.44631077 82.14877026 27 83 C28.25664978 80.09399739 29 78.20395416 29 75 C31.31 74.34 33.62 73.68 36 73 C35.34 71.02 34.68 69.04 34 67 C33.01 67 32.02 67 31 67 Z M56 70 C55.34 71.98 54.68 73.96 54 76 C54.99 76.495 54.99 76.495 56 77 C58.03144641 76.06553465 60.03533587 75.06775224 62 74 C62 73.01 62 72.02 62 71 C59.03 70.505 59.03 70.505 56 70 Z M33 74 C37 75 37 75 37 75 Z M8 77 C9 79 9 79 9 79 Z M43 78 C43 78.66 43 79.32 43 80 C43.99 79.67 44.98 79.34 46 79 C45.01 78.67 44.02 78.34 43 78 Z M-51 82 C-50.34 83.32 -49.68 84.64 -49 86 C-49 84.68 -49 83.36 -49 82 C-49.66 82 -50.32 82 -51 82 Z M38 80 C38 80.66 38 81.32 38 82 C37.236875 82.061875 36.47375 82.12375 35.6875 82.1875 C32.76948191 82.76935262 32.76948191 82.76935262 31.1875 85.5625 C30.795625 86.366875 30.40375 87.17125 30 88 C35.445 87.505 35.445 87.505 41 87 C41.66 85.02 42.32 83.04 43 81 C41.35 80.67 39.7 80.34 38 80 Z M50 82 C49.67 83.65 49.34 85.3 49 87 C49.66 87 50.32 87 51 87 C51.33 87.66 51.66 88.32 52 89 C52.77242269 87.16299211 52.77242269 87.16299211 53 85 C51.64555699 83.22809091 51.64555699 83.22809091 50 82 Z M31 83 C32 85 32 85 32 85 Z M12 99 C13 101 13 101 13 101 Z M23 124 C24 126 24 126 24 126 Z M-11 140 C-10 142 -10 142 -10 142 Z " fill="#0059A9" transform="translate(741,271)"/>
<path d="M0 0 C46.2 0 92.4 0 140 0 C140 0.99 140 1.98 140 3 C140.66 3 141.32 3 142 3 C142.33 18.84 142.66 34.68 143 51 C144.32 50.67 145.64 50.34 147 50 C147.825 49.855625 148.65 49.71125 149.5 49.5625 C152.013512 49.11186035 152.013512 49.11186035 154.125 47.875 C156 47 156 47 159 48 C158.41313733 52.81227393 157.42261789 56.77607178 155 61 C152.08081752 62.14792377 149.90209359 62.76478044 146.875 63.25 C145.33530876 63.54886217 143.79623408 63.85091941 142.2578125 64.15625 C141.15228027 64.36507812 141.15228027 64.36507812 140.02441406 64.578125 C137.51713359 65.10062629 135.15332355 65.87013917 132.75 66.75 C129.51225194 67.82924935 127.35644048 68.32481682 124 68 C123.67 65.03 123.34 62.06 123 59 C124.32 58.67 125.64 58.34 127 58 C124.058398 49.35141899 120.63135181 42.19707813 115 35 C114.2575 33.96875 113.515 32.9375 112.75 31.875 C105.4350055 24.22750575 96.91955445 19.47043902 87 16 C86.33742188 15.75378906 85.67484375 15.50757813 84.9921875 15.25390625 C71.61504763 11.05545326 55.27125213 13.71226265 43.08325195 20.05786133 C30.90519792 26.75756973 20.93072556 36.77459591 16 50 C15.61714844 51.60488281 15.61714844 51.60488281 15.2265625 53.2421875 C13.04096214 62.24525687 13.04096214 62.24525687 9.76953125 64.6171875 C7.20122215 65.619644 4.67359758 66.33575215 2 67 C0.824375 67.53625 -0.35125 68.0725 -1.5625 68.625 C-7.05808624 70.82323449 -13.02458791 72.56019488 -19 72 C-20 71 -20 71 -20.125 68.6875 C-20.01347319 66.28967362 -19.67883108 64.29105488 -19 62 C-17.02 61.505 -17.02 61.505 -15 61 C-15 60.34 -15 59.68 -15 59 C-12.87562952 58.49733206 -10.75048274 57.9979439 -8.625 57.5 C-7.44164062 57.2215625 -6.25828125 56.943125 -5.0390625 56.65625 C-2 56 -2 56 0 56 C0 37.52 0 19.04 0 0 Z " fill="#045EA8" transform="translate(202,276)"/>
<path d="M0 0 C0 17.16 0 34.32 0 52 C-43.89 52 -87.78 52 -133 52 C-133 39.46 -133 26.92 -133 14 C-128.05 14 -123.1 14 -118 14 C-113.0625 19.5625 -113.0625 19.5625 -110.96484375 22.88671875 C-104.43338687 33.23576673 -92.1691979 39.04512136 -80.7265625 42.30859375 C-63.66177512 45.4747021 -47.68508693 42.20907512 -33 33 C-23.51382897 26.09765816 -15.81290165 16.72130506 -12.5 5.3125 C-11 2 -11 2 -9.15625 1.07421875 C-6.02924061 0.24148255 -3.23675302 0 0 0 Z " fill="#035DA7" transform="translate(339,362)"/>
<path d="M0 0 C28.23673469 -0.88163265 28.23673469 -0.88163265 40 5 C41.92977045 10.44385863 42.6549668 16.29243221 42 22 C40.56799022 24.49670106 39.12462661 25.97654609 37 28 C36.34 28 35.68 28 35 28 C35 28.66 35 29.32 35 30 C30.52941176 34 30.52941176 34 28 34 C28 34.66 28 35.32 28 36 C28.57105469 36.01417969 29.14210938 36.02835937 29.73046875 36.04296875 C37.22719458 36.48395262 44.55039381 38.01365449 51 42 C53.30204404 45.80457578 53.24628942 49.2267162 52.6484375 53.53125 C48.85128517 67.98787816 31.80599031 79.70507242 19.72753906 86.99121094 C9.4375605 93 9.4375605 93 6 93 C5.66104344 91.27192682 5.32908475 89.54248026 5 87.8125 C4.814375 86.84957031 4.62875 85.88664062 4.4375 84.89453125 C4.293125 83.93933594 4.14875 82.98414063 4 82 C3.82726562 81.15308594 3.65453125 80.30617188 3.4765625 79.43359375 C4 77 4 77 7.1484375 74.640625 C8.54873673 73.82881105 9.95825824 73.032766 11.375 72.25 C18.40190363 68.13651983 24.21041849 63.76599869 30 58 C30.58136719 57.46246094 31.16273438 56.92492187 31.76171875 56.37109375 C33.22341623 55.06053701 33.22341623 55.06053701 33 53 C22.87179739 50.17199537 13.5514987 48.43964578 3 48 C3 43.05 3 38.1 3 33 C4.77375 32.195625 6.5475 31.39125 8.375 30.5625 C14.84195477 27.34820101 22.65090997 22.69818006 26 16 C17.3387414 14.74018057 8.72998757 14.90979347 0 15 C0 10.05 0 5.1 0 0 Z " fill="#065EA5" transform="translate(263,304)"/>
<path d="M0 0 C3.46796275 0.70458265 3.46796275 0.70458265 6.1875 -0.125 C9.77913596 -0.67755938 11.63113197 0.57061838 14.625 2.5 C15.8125 4.625 15.8125 4.625 16.625 6.5 C17.615 6.83 18.605 7.16 19.625 7.5 C19.295 8.49 18.965 9.48 18.625 10.5 C19.615 10.5 20.605 10.5 21.625 10.5 C21.625 11.16 21.625 11.82 21.625 12.5 C20.965 12.5 20.305 12.5 19.625 12.5 C19.625 13.16 19.625 13.82 19.625 14.5 C17.975 14.83 16.325 15.16 14.625 15.5 C16.26328753 17.22020191 17.71747879 18.55711925 19.75 19.8125 C21.625 21.5 21.625 21.5 22.5 24.3125 C22.69981703 29.40783424 21.59252554 32.34942909 18.3125 36.25 C12.45318806 41.15547046 6.71384293 40.91157358 -0.68359375 40.83203125 C-5.62026242 40.38799227 -9.76090392 39.11409608 -13.375 35.5 C-13.88925537 36.31275391 -14.40351074 37.12550781 -14.93334961 37.96289062 C-17.375 40.5 -17.375 40.5 -20.62719727 41.11523438 C-21.88588623 41.10814453 -23.1445752 41.10105469 -24.44140625 41.09375 C-25.11670883 41.09379028 -25.79201141 41.09383057 -26.48777771 41.09387207 C-27.91081078 41.08852545 -29.33384393 41.07097856 -30.7565918 41.04199219 C-32.9343478 41.00006069 -35.10901697 41.00092991 -37.28710938 41.0078125 C-47.5777037 40.92985289 -47.5777037 40.92985289 -50.29003906 39.4675293 C-52.03063682 36.31103124 -51.74036907 33.05813551 -51.66796875 29.55078125 C-51.66372391 28.77816452 -51.65947906 28.00554779 -51.65510559 27.20951843 C-51.63832183 24.74349008 -51.60067147 22.27828104 -51.5625 19.8125 C-51.54745271 18.13998577 -51.53376438 16.46745872 -51.52148438 14.79492188 C-51.49097165 10.69604553 -51.43225368 6.59893904 -51.375 2.5 C-40.155 2.5 -28.935 2.5 -17.375 2.5 C-17.375 6.13 -17.375 9.76 -17.375 13.5 C-18.365 13.83 -19.355 14.16 -20.375 14.5 C-19.715 15.16 -19.055 15.82 -18.375 16.5 C-18.10508094 19.18839385 -18.28762643 21.79141936 -18.375 24.5 C-21.37813748 26.00156874 -24.16567522 25.59281204 -27.5 25.5625 C-28.78132812 25.55347656 -30.06265625 25.54445313 -31.3828125 25.53515625 C-32.37023437 25.52355469 -33.35765625 25.51195312 -34.375 25.5 C-34.375 26.16 -34.375 26.82 -34.375 27.5 C-28.105 27.17 -21.835 26.84 -15.375 26.5 C-15.375 25.84 -15.375 25.18 -15.375 24.5 C-13.395 24.17 -11.415 23.84 -9.375 23.5 C-10.035 23.04625 -10.695 22.5925 -11.375 22.125 C-12.035 21.58875 -12.695 21.0525 -13.375 20.5 C-13.375 19.84 -13.375 19.18 -13.375 18.5 C-14.035 18.5 -14.695 18.5 -15.375 18.5 C-15.375 14.87 -15.375 11.24 -15.375 7.5 C-14.715 7.5 -14.055 7.5 -13.375 7.5 C-13.1275 6.860625 -12.88 6.22125 -12.625 5.5625 C-11.375 3.5 -11.375 3.5 -9.3125 2.875 C-8.673125 2.75125 -8.03375 2.6275 -7.375 2.5 C-7.045 1.84 -6.715 1.18 -6.375 0.5 C-3.375 -0.5 -3.375 -0.5 0 0 Z M5.625 11.5 C6.625 13.5 6.625 13.5 6.625 13.5 Z M2.625 12.5 C2.625 13.16 2.625 13.82 2.625 14.5 C3.615 14.17 4.605 13.84 5.625 13.5 C4.635 13.17 3.645 12.84 2.625 12.5 Z M-1.375 25.5 C-1.375 26.49 -1.375 27.48 -1.375 28.5 C0.935 28.5 3.245 28.5 5.625 28.5 C3.00558783 26.75372522 1.58675123 26.11277612 -1.375 25.5 Z " fill="#0058AA" transform="translate(635.375,326.5)"/>
<path d="M0 0 C1.25 2.125 1.25 2.125 2 4 C2.66 4.66 3.32 5.32 4 6 C4 3.03 4 0.06 4 -3 C6.74505463 -4.37252731 9.00327412 -4.13229255 12.0625 -4.125 C13.68865234 -4.12886719 13.68865234 -4.12886719 15.34765625 -4.1328125 C18 -4 18 -4 19 -3 C19.13323751 -1.32881558 19.2033973 0.347494 19.24609375 2.0234375 C19.27896484 3.044375 19.31183594 4.0653125 19.34570312 5.1171875 C19.40667807 7.28114935 19.46399693 9.44521745 19.51757812 11.609375 C19.55173828 12.63289063 19.58589844 13.65640625 19.62109375 14.7109375 C19.6461499 15.65243652 19.67120605 16.59393555 19.69702148 17.56396484 C19.84722108 20.25591057 19.84722108 20.25591057 22 23 C22.99 23.33 23.98 23.66 25 24 C25.33 15.09 25.66 6.18 26 -3 C28.88415883 -4.44207941 31.41721528 -4.09394887 34.625 -4.0625 C35.81351562 -4.05347656 37.00203125 -4.04445313 38.2265625 -4.03515625 C39.14179688 -4.02355469 40.05703125 -4.01195312 41 -4 C42.60878557 0.8263567 42.22614456 5.75812819 42.25 10.8125 C42.270625 11.89337891 42.29125 12.97425781 42.3125 14.08789062 C42.34503526 20.7128835 42.02511623 25.44590169 37.5703125 30.6796875 C35.04732752 32.76626427 33.413729 33.95502946 30.125 34.3125 C29.42375 34.209375 28.7225 34.10625 28 34 C27.505 34.99 27.505 34.99 27 36 C21.00163096 36.11535325 16.99772388 35.83320307 11.875 32.6875 C11.19179688 32.27886719 10.50859375 31.87023437 9.8046875 31.44921875 C6.36021701 28.68320457 5.70283952 25.21703712 5 21 C3.43530899 22.99142493 2.08115738 24.82754057 1 27.125 C0 29 0 29 -3 31 C-3.66 31.66 -4.32 32.32 -5 33 C-13.92367663 34.72211303 -21.57275381 33.55454389 -31 33 C-31 20.79 -31 8.58 -31 -4 C-6.58098068 -5.35661218 -6.58098068 -5.35661218 0 0 Z M-19 6 C-19 11.61 -19 17.22 -19 23 C-18.67 23 -18.34 23 -18 23 C-18 17.39 -18 11.78 -18 6 C-18.33 6 -18.66 6 -19 6 Z M-17 6 C-17 11.28 -17 16.56 -17 22 C-15.35 21.67 -13.7 21.34 -12 21 C-10.28021027 17.56042054 -10.61845069 13.76863616 -11 10 C-12.11564938 7.41982705 -12.11564938 7.41982705 -14 6 C-14.99 6 -15.98 6 -17 6 Z " fill="#005AA9" transform="translate(409,381)"/>
<path d="M0 0 C4.73486599 0.46420255 8.19017158 1.0609895 12 4 C14.34494319 7.01492696 14.34682326 10.20876188 14.26953125 13.9609375 C13.86556545 17.01702658 12.56957111 19.38404815 11 22 C11.73669922 22.58201172 11.73669922 22.58201172 12.48828125 23.17578125 C14.50725753 25.61211696 14.30898805 27.06930672 14.1875 30.1875 C14.14689453 31.53908203 14.14689453 31.53908203 14.10546875 32.91796875 C14.05326172 33.94857422 14.05326172 33.94857422 14 35 C14.66 35 15.32 35 16 35 C15 37 15 37 14 38 C11.46950598 38.07313567 8.96695163 38.09247527 6.4375 38.0625 C5.72658203 38.05798828 5.01566406 38.05347656 4.28320312 38.04882812 C2.52209987 38.03700864 0.76103964 38.01907263 -1 38 C-0.67 37.01 -0.34 36.02 0 35 C-0.30806453 32.92352124 -0.30806453 32.92352124 -0.9375 30.8125 C-1.288125 29.554375 -1.63875 28.29625 -2 27 C-3.32 26.67 -4.64 26.34 -6 26 C-5.98839844 26.78246094 -5.97679687 27.56492187 -5.96484375 28.37109375 C-5.95582031 29.38300781 -5.94679688 30.39492188 -5.9375 31.4375 C-5.92589844 32.44683594 -5.91429687 33.45617187 -5.90234375 34.49609375 C-6 37 -6 37 -7 38 C-9.33160055 38.09909302 -11.66629942 38.12970504 -14 38.125 C-15.27875 38.12757813 -16.5575 38.13015625 -17.875 38.1328125 C-21 38 -21 38 -22 37 C-22.10091475 34.41810554 -22.13971499 31.863535 -22.1328125 29.28125 C-22.13376923 28.50817505 -22.13472595 27.7351001 -22.13571167 26.93859863 C-22.13639341 25.30102456 -22.13453957 23.66344781 -22.13037109 22.02587891 C-22.12502271 19.51068079 -22.13031626 16.99566127 -22.13671875 14.48046875 C-22.13605797 12.89322877 -22.1347768 11.3059889 -22.1328125 9.71875 C-22.13483673 8.96146606 -22.13686096 8.20418213 -22.13894653 7.4239502 C-22.11495132 2.11495132 -22.11495132 2.11495132 -21 1 C-19.43827255 0.91314397 -17.87270656 0.89297781 -16.30859375 0.90234375 C-15.36435547 0.90556641 -14.42011719 0.90878906 -13.44726562 0.91210938 C-11.95743164 0.92467773 -11.95743164 0.92467773 -10.4375 0.9375 C-9.44041016 0.94201172 -8.44332031 0.94652344 -7.41601562 0.95117188 C-4.94395151 0.96299993 -2.47200482 0.97948151 0 1 C0 0.67 0 0.34 0 0 Z M-6 11 C-6 12.32 -6 13.64 -6 15 C-4.35 15 -2.7 15 -1 15 C-1 13.68 -1 12.36 -1 11 C-2.65 11 -4.3 11 -6 11 Z " fill="#0057AC" transform="translate(490,376)"/>
<path d="M0 0 C-0.33 25.41 -0.66 50.82 -1 77 C-12 80 -12 80 -16 80 C-16.86909308 66.18762786 -17.11016994 52.39793874 -17.125 38.5625 C-17.12749756 37.75665466 -17.12999512 36.95080933 -17.13256836 36.12054443 C-17.15904325 25.70029249 -16.84713028 15.38844159 -16 5 C-3.375 0 -3.375 0 0 0 Z " fill="#0960A2" transform="translate(256,306)"/>
<path d="M0 0 C1.65 0 3.3 0 5 0 C5 18.81 5 37.62 5 57 C2.36115323 58.31942338 0.40075259 58.12289871 -2.55545044 58.12025452 C-3.73618134 58.12162918 -4.91691223 58.12300385 -6.13342285 58.12442017 C-8.08629211 58.11902725 -8.08629211 58.11902725 -10.07861328 58.11352539 C-11.45820107 58.11324343 -12.83778901 58.11340142 -14.21737671 58.1139679 C-17.96921781 58.11425553 -21.72102712 58.1083642 -25.47286081 58.10139394 C-29.39131924 58.09515484 -33.30977834 58.09455616 -37.22824097 58.09336853 C-44.65136816 58.09025686 -52.07448067 58.08204567 -59.49760139 58.07201904 C-67.9473036 58.06085282 -76.39700651 58.05534617 -84.84671426 58.05032361 C-102.23115286 58.03986293 -119.61557133 58.02151948 -137 58 C-137 44.47 -137 30.94 -137 17 C-137.66 16.67 -138.32 16.34 -139 16 C-138.34 16 -137.68 16 -137 16 C-137 15.34 -137 14.68 -137 14 C-135.68 14.33 -134.36 14.66 -133 15 C-133 27.54 -133 40.08 -133 53 C-89.11 53 -45.22 53 0 53 C0 35.51 0 18.02 0 0 Z " fill="#EAF1F7" transform="translate(339,361)"/>
<path d="M0 0 C0.66067978 -0.00095673 1.32135956 -0.00191345 2.00205994 -0.00289917 C3.39826554 -0.00357966 4.79447431 -0.0017345 6.19067383 0.00244141 C8.33486989 0.00780007 10.47885728 0.00248771 12.62304688 -0.00390625 C13.97786505 -0.00324561 15.33268309 -0.00196475 16.6875 0 C18.54580444 0.00169189 18.54580444 0.00169189 20.44165039 0.00341797 C23.27734375 0.1328125 23.27734375 0.1328125 24.27734375 1.1328125 C24.75259127 8.49914913 24.75259127 8.49914913 22.77734375 11.1328125 C22.28234375 11.4628125 21.78734375 11.7928125 21.27734375 12.1328125 C21.27734375 11.4728125 21.27734375 10.8128125 21.27734375 10.1328125 C16.98734375 10.1328125 12.69734375 10.1328125 8.27734375 10.1328125 C8.27734375 10.7928125 8.27734375 11.4528125 8.27734375 12.1328125 C9.12039063 12.09800781 9.9634375 12.06320312 10.83203125 12.02734375 C11.92773438 12.00027344 13.0234375 11.97320312 14.15234375 11.9453125 C15.78816406 11.89310547 15.78816406 11.89310547 17.45703125 11.83984375 C18.38773438 11.93652344 19.3184375 12.03320312 20.27734375 12.1328125 C22.95661716 16.15172262 22.43335623 18.37443173 22.27734375 23.1328125 C17.65734375 23.4628125 13.03734375 23.7928125 8.27734375 24.1328125 C8.27734375 24.4628125 8.27734375 24.7928125 8.27734375 25.1328125 C9.25316406 25.18179687 10.22898437 25.23078125 11.234375 25.28125 C13.14283203 25.39339844 13.14283203 25.39339844 15.08984375 25.5078125 C16.35441406 25.57742188 17.61898437 25.64703125 18.921875 25.71875 C22.27734375 26.1328125 22.27734375 26.1328125 25.27734375 28.1328125 C25.74849113 30.8755633 25.45540159 33.32840147 25.27734375 36.1328125 C23.37289049 38.03726576 19.99396838 37.26340112 17.46875 37.265625 C16.44587135 37.26706009 16.44587135 37.26706009 15.40232849 37.26852417 C13.95726428 37.26920589 12.51219703 37.26735219 11.06713867 37.26318359 C8.85263182 37.25784334 6.63832856 37.26312455 4.42382812 37.26953125 C3.02213497 37.26887031 1.62044194 37.26758881 0.21875 37.265625 C-1.06314209 37.26449707 -2.34503418 37.26336914 -3.66577148 37.26220703 C-6.72265625 37.1328125 -6.72265625 37.1328125 -8.72265625 36.1328125 C-8.72265625 24.5828125 -8.72265625 13.0328125 -8.72265625 1.1328125 C-5.81213425 -0.3224485 -3.24709214 0.00295363 0 0 Z " fill="#005BA8" transform="translate(632.72265625,376.8671875)"/>
<path d="M0 0 C46.2 0 92.4 0 140 0 C140 0.99 140 1.98 140 3 C140.66 3 141.32 3 142 3 C142 19.5 142 36 142 53 C141.34 53 140.68 53 140 53 C140 53.66 140 54.32 140 55 C139.01 55 138.02 55 137 55 C137 38.5 137 22 137 5 C92.78 5 48.56 5 3 5 C3 22.49 3 39.98 3 58 C1.35 57.67 -0.3 57.34 -2 57 C-1.01 56.505 -1.01 56.505 0 56 C0 37.52 0 19.04 0 0 Z " fill="#FBFCFD" transform="translate(202,276)"/>
<path d="M0 0 C0 2.64 0 5.28 0 8 C2.475 8.495 2.475 8.495 5 9 C5.66 15.27 6.32 21.54 7 28 C4.091875 27.855625 1.18375 27.71125 -1.8125 27.5625 C-3.18112183 27.49784546 -3.18112183 27.49784546 -4.57739258 27.43188477 C-5.30079834 27.39377686 -6.0242041 27.35566895 -6.76953125 27.31640625 C-7.50792236 27.27974854 -8.24631348 27.24309082 -9.00708008 27.20532227 C-11 27 -11 27 -14 26 C-14.0270043 24.54176788 -14.04639787 23.08339325 -14.0625 21.625 C-14.07410156 20.81289063 -14.08570313 20.00078125 -14.09765625 19.1640625 C-14 17 -14 17 -13 15 C-19.93 16.32 -26.86 17.64 -34 19 C-33.505 14.545 -33.505 14.545 -33 10 C-28.16460211 8.25608601 -23.6496646 6.87865401 -18.5625 6.125 C-13.5015289 5.29930007 -9.54622363 3.52433989 -5.09375 1.0234375 C-3 0 -3 0 0 0 Z " fill="#FAFBFB" transform="translate(214,339)"/>
<path d="M0 0 C1.32 0 2.64 0 4 0 C4 0.66 4 1.32 4 2 C4.66 2 5.32 2 6 2 C6 3.32 6 4.64 6 6 C6.66 6.66 7.32 7.32 8 8 C8.71927295 10.31765729 9.3909893 12.65095874 10 15 C10.99 15 11.98 15 13 15 C13.1546875 13.1128125 13.1546875 13.1128125 13.3125 11.1875 C13.73368298 7.71426646 14.26736864 6.2771928 17 4 C17.71447643 1.89667109 17.71447643 1.89667109 18 0 C19.65 0 21.3 0 23 0 C23 0.66 23 1.32 23 2 C23.66 2 24.32 2 25 2 C25 9.92 25 17.84 25 26 C24.01 26.33 23.02 26.66 22 27 C21.67 27.66 21.34 28.32 21 29 C20.01 28.34 19.02 27.68 18 27 C17.3125 23.375 17.3125 23.375 17 20 C15.42726432 22.8424854 15.42726432 22.8424854 15 26 C13 27.625 13 27.625 11 29 C10.525625 28.505 10.05125 28.01 9.5625 27.5 C8.24076302 25.88457803 8.24076302 25.88457803 7 26 C6.67 24.35 6.34 22.7 6 21 C5.7525 21.94875 5.505 22.8975 5.25 23.875 C4 27 4 27 1.875 28.375 C1.25625 28.58125 0.6375 28.7875 0 29 C-2.64699616 26.35300384 -2.25749767 25.09605591 -2.265625 21.40625 C-2.26820313 20.29378906 -2.27078125 19.18132812 -2.2734375 18.03515625 C-2.26183594 16.28525391 -2.26183594 16.28525391 -2.25 14.5 C-2.25773438 13.33339844 -2.26546875 12.16679687 -2.2734375 10.96484375 C-2.27085937 9.85238281 -2.26828125 8.73992187 -2.265625 7.59375 C-2.26336914 6.56958984 -2.26111328 5.54542969 -2.25878906 4.49023438 C-2 2 -2 2 0 0 Z M3 11 C4 13 4 13 4 13 Z M18 11 C19 13 19 13 19 13 Z " fill="#0063B5" transform="translate(555,280)"/>
<path d="M0 0 C-0.33 3.63 -0.66 7.26 -1 11 C0.73636719 11.07347656 0.73636719 11.07347656 2.5078125 11.1484375 C4.0468967 11.22351478 5.5859581 11.29906043 7.125 11.375 C7.88554687 11.4059375 8.64609375 11.436875 9.4296875 11.46875 C18.33673586 11.9294594 18.33673586 11.9294594 22 14 C23.69304224 16.88061021 24.89844431 19.85084667 26 23 C22.39552566 22.8612119 18.79151288 22.71276065 15.1875 22.5625 C14.16333984 22.52318359 13.13917969 22.48386719 12.08398438 22.44335938 C11.10107422 22.40146484 10.11816406 22.35957031 9.10546875 22.31640625 C8.19949951 22.27974854 7.29353027 22.24309082 6.36010742 22.20532227 C4 22 4 22 1 21 C1 21.66 1 22.32 1 23 C-0.32 23 -1.64 23 -3 23 C-4.125 20.75 -4.125 20.75 -5 18 C-4.34 16.68 -3.68 15.36 -3 14 C-5.97 13.67 -8.94 13.34 -12 13 C-12 13.66 -12 14.32 -12 15 C-15.3 15.66 -18.6 16.32 -22 17 C-23.32589694 10.00890702 -23.32589694 10.00890702 -21.98046875 5.84375 C-19.77083355 2.67094049 -18.40445794 2.08233368 -14.6484375 1.40625 C-13.98070312 1.3134375 -13.31296875 1.220625 -12.625 1.125 C-11.965 1.00898438 -11.305 0.89296875 -10.625 0.7734375 C-7.00174252 0.16715537 -3.69580795 0 0 0 Z " fill="#D51A1C" transform="translate(201,354)"/>
<path d="M0 0 C3.08914085 0.33097938 4.0026931 1.00284699 6.1875 3.3125 C7.79407709 5.69466602 8.58574686 7.20379133 9 10 C9.66 10 10.32 10 11 10 C11.99 11.485 11.99 11.485 13 13 C13.04898438 12.31292969 13.09796875 11.62585938 13.1484375 10.91796875 C13.22320313 10.01691406 13.29796875 9.11585938 13.375 8.1875 C13.47941406 6.84751953 13.47941406 6.84751953 13.5859375 5.48046875 C14 3 14 3 16 0 C16.99 0 17.98 0 19 0 C22.048127 4.57219051 21.36844857 9.1212742 21.375 14.5 C21.39949219 15.55832031 21.42398438 16.61664063 21.44921875 17.70703125 C21.45501953 19.22876953 21.45501953 19.22876953 21.4609375 20.78125 C21.46915527 21.71001953 21.47737305 22.63878906 21.48583984 23.59570312 C21 26 21 26 18.97119141 27.82617188 C17.99545166 28.4072168 17.99545166 28.4072168 17 29 C14.66666667 26.66666667 12.33333333 24.33333333 10 22 C10 20.68 10 19.36 10 18 C9.01 17.67 8.02 17.34 7 17 C6.3125 14.9375 6.3125 14.9375 6 13 C5.34 13 4.68 13 4 13 C4.33 17.29 4.66 21.58 5 26 C4.34 26 3.68 26 3 26 C2.67 26.99 2.34 27.98 2 29 C1.01 28.34 0.02 27.68 -1 27 C-1.35644531 24.50976562 -1.35644531 24.50976562 -1.328125 21.40625 C-1.32296875 20.29378906 -1.3178125 19.18132812 -1.3125 18.03515625 C-1.291875 16.86855469 -1.27125 15.70195312 -1.25 14.5 C-1.24484375 13.33339844 -1.2396875 12.16679687 -1.234375 10.96484375 C-1.15412854 2.30825708 -1.15412854 2.30825708 0 0 Z " fill="#005EB5" transform="translate(612,280)"/>
<path d="M0 0 C1.47668858 0.0133035 2.95331108 0.03716415 4.4296875 0.0703125 C5.18378906 0.07933594 5.93789063 0.08835937 6.71484375 0.09765625 C8.57826004 0.1212438 10.44151343 0.15711531 12.3046875 0.1953125 C12.9646875 1.5153125 13.6246875 2.8353125 14.3046875 4.1953125 C13.3146875 5.6803125 13.3146875 5.6803125 12.3046875 7.1953125 C9.703125 7.48828125 9.703125 7.48828125 6.6796875 7.3828125 C5.17535156 7.34220703 5.17535156 7.34220703 3.640625 7.30078125 C2.48433594 7.24857422 2.48433594 7.24857422 1.3046875 7.1953125 C1.3046875 8.8453125 1.3046875 10.4953125 1.3046875 12.1953125 C4.6046875 12.1953125 7.9046875 12.1953125 11.3046875 12.1953125 C11.3046875 13.8453125 11.3046875 15.4953125 11.3046875 17.1953125 C8.0046875 17.1953125 4.7046875 17.1953125 1.3046875 17.1953125 C1.3046875 19.1753125 1.3046875 21.1553125 1.3046875 23.1953125 C5.2646875 23.1953125 9.2246875 23.1953125 13.3046875 23.1953125 C12.9746875 25.1753125 12.6446875 27.1553125 12.3046875 29.1953125 C9.8668912 29.24928585 7.43029065 29.28896866 4.9921875 29.3203125 C3.95674805 29.34544922 3.95674805 29.34544922 2.90039062 29.37109375 C-0.86666646 29.40749044 -2.47962954 29.33910114 -5.6953125 27.1953125 C-6.06762695 24.70507812 -6.06762695 24.70507812 -6.05859375 21.6015625 C-6.05794922 20.48910156 -6.05730469 19.37664062 -6.05664062 18.23046875 C-6.04052734 17.06386719 -6.02441406 15.89726562 -6.0078125 14.6953125 C-6.01103516 13.52871094 -6.01425781 12.36210937 -6.01757812 11.16015625 C-5.94845685 0.31440047 -5.94845685 0.31440047 0 0 Z " fill="#0067AE" transform="translate(533.6953125,279.8046875)"/>
<path d="M0 0 C-0.33 1.32 -0.66 2.64 -1 4 C0.175625 4.4640625 0.175625 4.4640625 1.375 4.9375 C4 6 4 6 6 7 C6 9 6 9 4.85546875 10.61328125 C2.278719 12.53906265 0.48903179 12.29961289 -2.6875 12.1875 C-3.68136719 12.16042969 -4.67523438 12.13335937 -5.69921875 12.10546875 C-6.45847656 12.07066406 -7.21773438 12.03585937 -8 12 C-8 13.65 -8 15.3 -8 17 C-4.37 17 -0.74 17 3 17 C3 18.32 3 19.64 3 21 C2 22 2 22 -0.28515625 22.09765625 C-1.65994141 22.08025391 -1.65994141 22.08025391 -3.0625 22.0625 C-3.98160156 22.05347656 -4.90070313 22.04445313 -5.84765625 22.03515625 C-6.55792969 22.02355469 -7.26820313 22.01195312 -8 22 C-8 23.98 -8 25.96 -8 28 C-4.04 28 -0.08 28 4 28 C4 28.66 4 29.32 4 30 C4.66 30.33 5.32 30.66 6 31 C5.34 31 4.68 31 4 31 C3.67 31.99 3.34 32.98 3 34 C0.52076199 34.02685095 -1.9581884 34.04676547 -4.4375 34.0625 C-5.14455078 34.07087891 -5.85160156 34.07925781 -6.58007812 34.08789062 C-8.38693559 34.09653588 -10.19387603 34.05220011 -12 34 C-13 33 -13 33 -13.11352539 30.31616211 C-13.10828857 29.14835205 -13.10305176 27.98054199 -13.09765625 26.77734375 C-13.09443359 25.51728516 -13.09121094 24.25722656 -13.08789062 22.95898438 C-13.07953403 21.61848891 -13.07106907 20.27799412 -13.0625 18.9375 C-13.0574866 17.59310058 -13.05292342 16.2486994 -13.04882812 14.90429688 C-13.03699488 11.60282059 -13.02050971 8.30143197 -13 5 C-12.21625 4.731875 -11.4325 4.46375 -10.625 4.1875 C-7.71885077 3.15185568 -7.71885077 3.15185568 -6 0 C-3 -1 -3 -1 0 0 Z " fill="#0064B1" transform="translate(419,275)"/>
<path d="M0 0 C2.08829012 -0.05075966 4.17693543 -0.08705389 6.265625 -0.1171875 C8.01020996 -0.14981689 8.01020996 -0.14981689 9.79003906 -0.18310547 C14.14918973 0.06555311 15.87090009 1.04473897 19 4 C21.07336591 8.14673183 19.89461798 12.63873735 19 17 C18.84300163 20.21846661 19.08450442 22.91020241 20 26 C18.68 26.99 17.36 27.98 16 29 C15.67 28.01 15.34 27.02 15 26 C14.34 25.67 13.68 25.34 13 25 C12.59270772 22.67843403 12.25561323 20.3431213 12 18 C9.36 18 6.72 18 4 18 C4.03480469 18.62648438 4.06960938 19.25296875 4.10546875 19.8984375 C4.13253906 20.71570313 4.15960938 21.53296875 4.1875 22.375 C4.22230469 23.18710937 4.25710938 23.99921875 4.29296875 24.8359375 C4.19628906 25.55007813 4.09960938 26.26421875 4 27 C3.01 27.66 2.02 28.32 1 29 C-0.38308781 26.23382437 -0.11210196 23.98982 -0.09765625 20.8984375 C-0.09443359 19.68671875 -0.09121094 18.475 -0.08789062 17.2265625 C-0.07951172 15.95554687 -0.07113281 14.68453125 -0.0625 13.375 C-0.05798828 12.09625 -0.05347656 10.8175 -0.04882812 9.5 C-0.03701203 6.33328708 -0.02053815 3.16666644 0 0 Z M4 5 C4 5.33 4 5.66 4 6 C6.97 6 9.94 6 13 6 C13 5.67 13 5.34 13 5 C10.03 5 7.06 5 4 5 Z M4 7 C4 8.32 4 9.64 4 11 C7.3 11.33 10.6 11.66 14 12 C13.67 10.35 13.34 8.7 13 7 C10.03 7 7.06 7 4 7 Z " fill="#0066B2" transform="translate(480,280)"/>
<path d="M0 0 C5.96572125 0.028476 8.78906864 1.48661309 13.01171875 5.578125 C16.18348521 9.85349239 16.05104262 15.3782529 15.4375 20.5 C13.621046 24.5870215 11.7937166 26.63160122 7.75 28.375 C3.32264758 29.80075756 -0.95670114 29.78786243 -5.5625 29.5 C-6.91298039 26.79903923 -6.69213577 24.67273483 -6.6953125 21.65234375 C-6.69660156 20.49025391 -6.69789063 19.32816406 -6.69921875 18.13085938 C-6.69535156 16.91205078 -6.69148438 15.69324219 -6.6875 14.4375 C-6.69136719 13.21482422 -6.69523437 11.99214844 -6.69921875 10.73242188 C-6.69792969 9.57162109 -6.69664062 8.41082031 -6.6953125 7.21484375 C-6.69418457 6.14355225 -6.69305664 5.07226074 -6.69189453 3.96850586 C-6.45584382 -0.53471812 -4.02325638 0.20141459 0 0 Z M-2.5625 5.5 C-2.2325 6.16 -1.9025 6.82 -1.5625 7.5 C-1.49068179 10.21760108 -1.46950494 12.90859388 -1.5 15.625 C-1.50451172 16.37910156 -1.50902344 17.13320313 -1.51367188 17.91015625 C-1.52546501 19.77347127 -1.54340058 21.63674555 -1.5625 23.5 C2.13566115 23.61394894 4.3318558 23.54304023 7.8125 22.125 C10.64245113 19.81481742 10.64245113 19.81481742 10.8125 17.0078125 C10.8125 14.47823647 10.69672241 12.01541744 10.4375 9.5 C9.4475 9.17 8.4575 8.84 7.4375 8.5 C7.1075 7.51 6.7775 6.52 6.4375 5.5 C3.4675 5.5 0.4975 5.5 -2.5625 5.5 Z " fill="#005FB7" transform="translate(383.5625,279.5)"/>
<path d="M0 0 C2.625 0.375 2.625 0.375 5 1 C4.41313733 5.81227393 3.42261789 9.77607178 1 14 C-1.91918248 15.14792377 -4.09790641 15.76478044 -7.125 16.25 C-8.66469124 16.54886217 -10.20376592 16.85091941 -11.7421875 17.15625 C-12.47920898 17.29546875 -13.21623047 17.4346875 -13.97558594 17.578125 C-16.48286641 18.10062629 -18.84667645 18.87013917 -21.25 19.75 C-24.48774806 20.82924935 -26.64355952 21.32481682 -30 21 C-30.33 18.03 -30.66 15.06 -31 12 C-28.91891315 11.32635339 -26.8350329 10.66133202 -24.75 10 C-23.58984375 9.62875 -22.4296875 9.2575 -21.234375 8.875 C-18 8 -18 8 -14 8 C-14 7.34 -14 6.68 -14 6 C-13.34 6 -12.68 6 -12 6 C-11.67 5.34 -11.34 4.68 -11 4 C-8.81206102 3.2967339 -6.64226656 2.94037776 -4.375 2.5625 C-1.82892516 2.17899671 -1.82892516 2.17899671 0 0 Z " fill="#049BD9" transform="translate(356,323)"/>
<path d="M0 0 C2.95064148 -0.2208564 5.68368231 -0.28060989 8.625 -0.1875 C9.42679688 -0.17396484 10.22859375 -0.16042969 11.0546875 -0.14648438 C13.03674378 -0.11109051 15.01845551 -0.05728234 17 0 C17.625 1.8125 17.625 1.8125 18 4 C17.01 5.485 17.01 5.485 16 7 C12.9609375 7.29296875 12.9609375 7.29296875 9.375 7.1875 C8.18648437 7.16042969 6.99796875 7.13335937 5.7734375 7.10546875 C4.40058594 7.05326172 4.40058594 7.05326172 3 7 C3 8.65 3 10.3 3 12 C7.29 12 11.58 12 16 12 C16.33 12.66 16.66 13.32 17 14 C16.01 15.485 16.01 15.485 15 17 C12.1796875 17.29296875 12.1796875 17.29296875 8.875 17.1875 C7.77929688 17.16042969 6.68359375 17.13335937 5.5546875 17.10546875 C4.29011719 17.05326172 4.29011719 17.05326172 3 17 C3 18.98 3 20.96 3 23 C3.98742187 22.98839844 4.97484375 22.97679687 5.9921875 22.96484375 C7.27351562 22.95582031 8.55484375 22.94679688 9.875 22.9375 C11.15117188 22.92589844 12.42734375 22.91429687 13.7421875 22.90234375 C17 23 17 23 19 24 C18.67 24.99 18.34 25.98 18 27 C17.34 27 16.68 27 16 27 C16 27.66 16 28.32 16 29 C13.56183415 29.0809723 11.12635616 29.14046972 8.6875 29.1875 C7.65206055 29.22520508 7.65206055 29.22520508 6.59570312 29.26367188 C1.4818784 29.33778528 1.4818784 29.33778528 -0.70068359 27.80786133 C-2.45177381 25.37140453 -2.37285914 23.76541048 -2.36328125 20.78125 C-2.36263672 19.76675781 -2.36199219 18.75226563 -2.36132812 17.70703125 C-2.34521484 16.64871094 -2.32910156 15.59039062 -2.3125 14.5 C-2.31572266 13.44167969 -2.31894531 12.38335937 -2.32226562 11.29296875 C-2.26710975 3.40066463 -2.26710975 3.40066463 0 0 Z " fill="#005EB5" transform="translate(587,280)"/>
<path d="M0 0 C0.33 0 0.66 0 1 0 C1 17.49 1 34.98 1 53 C5.455 52.505 5.455 52.505 10 52 C10.125 54.75 10.125 54.75 9 58 C5.84172078 59.82625688 2.45127854 60.85300281 -1 62 C-2.175625 62.53625 -3.35125 63.0725 -4.5625 63.625 C-10.05808624 65.82323449 -16.02458791 67.56019488 -22 67 C-23 66 -23 66 -23.125 63.6875 C-23.01347319 61.28967362 -22.67883108 59.29105488 -22 57 C-20.02 56.505 -20.02 56.505 -18 56 C-18 55.34 -18 54.68 -18 54 C-16.69297789 53.6261237 -15.37880205 53.27726344 -14.0625 52.9375 C-12.96615234 52.64166016 -12.96615234 52.64166016 -11.84765625 52.33984375 C-9 52 -9 52 0 53 C0 35.51 0 18.02 0 0 Z " fill="#139DD8" transform="translate(205,281)"/>
<path d="M0 0 C0.99 0 1.98 0 3 0 C3.69710731 1.28650706 4.38242876 2.57940665 5.0625 3.875 C5.63677734 4.95394531 5.63677734 4.95394531 6.22265625 6.0546875 C6.47917969 6.69664062 6.73570312 7.33859375 7 8 C6.67 8.66 6.34 9.32 6 10 C6.99 10.33 7.98 10.66 9 11 C9.73046875 12.77734375 9.73046875 12.77734375 10.1875 14.9375 C10.34605469 15.64777344 10.50460937 16.35804688 10.66796875 17.08984375 C11 19 11 19 11 21 C11.66 21.66 12.32 22.32 13 23 C13.625 25.125 13.625 25.125 14 27 C12.02 27.99 12.02 27.99 10 29 C6.125 24.25 6.125 24.25 5 22 C3.10466658 21.53476937 3.10466658 21.53476937 0.9375 21.375 C-0.361875 21.25125 -1.66125 21.1275 -3 21 C-3.28875 21.598125 -3.5775 22.19625 -3.875 22.8125 C-5 25 -5 25 -7 28 C-8.32 27.34 -9.64 26.68 -11 26 C-10.01 22.535 -10.01 22.535 -9 19 C-8.34 19 -7.68 19 -7 19 C-6.7834375 17.1128125 -6.7834375 17.1128125 -6.5625 15.1875 C-6.26251314 12.57332877 -5.84186703 10.52560108 -5 8 C-4.34 7.67 -3.68 7.34 -3 7 C-2.64587656 5.67203709 -2.31478446 4.33783393 -2 3 C-1.34 2.01 -0.68 1.02 0 0 Z M1 7 C2 9 2 9 2 9 Z M1 11 C1 11.66 1 12.32 1 13 C0.01 13.495 0.01 13.495 -1 14 C0.32 13.67 1.64 13.34 3 13 C2.34 12.34 1.68 11.68 1 11 Z M-2 14 C-1 16 -1 16 -1 16 Z " fill="#0062B3" transform="translate(461,280)"/>
<path d="M0 0 C1.92292091 -0.04910306 3.84620383 -0.08416817 5.76953125 -0.11328125 C7.37598511 -0.144823 7.37598511 -0.144823 9.01489258 -0.17700195 C13.25217318 0.07424761 14.94905777 1.11397356 18 4 C18.33 4.99 18.66 5.98 19 7 C18.34 7 17.68 7 17 7 C17 8.32 17 9.64 17 11 C17.66 11.33 18.32 11.66 19 12 C15.61567587 15.38432413 12.77322561 17.96453549 7.875 18.0625 C6.92625 18.041875 5.9775 18.02125 5 18 C5 20.97 5 23.94 5 27 C3.02 27.99 3.02 27.99 1 29 C0 28 0 28 -0.11352539 25.31616211 C-0.10828857 24.14835205 -0.10305176 22.98054199 -0.09765625 21.77734375 C-0.09443359 20.51728516 -0.09121094 19.25722656 -0.08789062 17.95898438 C-0.07953403 16.61848891 -0.07106907 15.27799412 -0.0625 13.9375 C-0.0574866 12.59310058 -0.05292342 11.2486994 -0.04882812 9.90429688 C-0.03699488 6.60282059 -0.02050971 3.30143197 0 0 Z M5 5 C5 5.33 5 5.66 5 6 C7.31 6 9.62 6 12 6 C12 5.67 12 5.34 12 5 C9.69 5 7.38 5 5 5 Z M5 7 C5 8.32 5 9.64 5 11 C7.31 11 9.62 11 12 11 C12 9.68 12 8.36 12 7 C9.69 7 7.38 7 5 7 Z M5 12 C5 12.33 5 12.66 5 13 C6.65 13 8.3 13 10 13 C10 12.67 10 12.34 10 12 C8.35 12 6.7 12 5 12 Z " fill="#0067B2" transform="translate(431,280)"/>
<path d="M0 0 C-1 7.42857143 -1 7.42857143 -2 11 C-2.66 11 -3.32 11 -4 11 C-4 11.66 -4 12.32 -4 13 C-5.175625 13.185625 -5.175625 13.185625 -6.375 13.375 C-9.22526428 13.86642488 -12.04371496 14.41451822 -14.875 15 C-19.23992216 15.88621147 -23.57419363 16.50824374 -28 17 C-27.67 13.7 -27.34 10.4 -27 7 C-23.44022464 5.82440443 -19.87759038 4.65926982 -16.3125 3.5 C-14.80139648 2.99919922 -14.80139648 2.99919922 -13.25976562 2.48828125 C-12.28330078 2.17246094 -11.30683594 1.85664063 -10.30078125 1.53125 C-9.40528564 1.23798828 -8.50979004 0.94472656 -7.5871582 0.64257812 C-4.95406221 -0.01140967 -2.70117163 -0.11920064 0 0 Z " fill="#D4191B" transform="translate(352,348)"/>
<path d="M0 0 C-0.50539802 3.70625213 -0.97493677 6.82293005 -3 10 C-4.75244141 10.88134766 -4.75244141 10.88134766 -6.8515625 11.4140625 C-7.62113281 11.61773437 -8.39070313 11.82140625 -9.18359375 12.03125 C-9.98925781 12.2271875 -10.79492188 12.423125 -11.625 12.625 C-12.40746094 12.82867187 -13.18992187 13.03234375 -13.99609375 13.2421875 C-16.3268113 13.84515921 -18.66220083 14.42516368 -21 15 C-22.52876208 15.382348 -24.05741615 15.76512827 -25.5859375 16.1484375 C-26.71257812 16.42945313 -27.83921875 16.71046875 -29 17 C-29 13.37 -29 9.74 -29 6 C-27.288125 5.5875 -25.57625 5.175 -23.8125 4.75 C-18.0461394 3.32722064 -12.43722772 1.57435644 -6.8125 -0.328125 C-4.0092788 -0.9977834 -2.65776209 -0.99666078 0 0 Z " fill="#F6F8F9" transform="translate(355,338)"/>
<path d="M0 0 C6.27 0 12.54 0 19 0 C19 5 19 5 18 7 C16.35 7 14.7 7 13 7 C13 13.6 13 20.2 13 27 C11.02 27.99 11.02 27.99 9 29 C8.01 28.34 7.02 27.68 6 27 C5.65942383 24.93701172 5.65942383 24.93701172 5.70703125 22.4296875 C5.71669922 21.53378906 5.72636719 20.63789063 5.73632812 19.71484375 C5.76146484 18.77769531 5.78660156 17.84054687 5.8125 16.875 C5.82603516 15.93011719 5.83957031 14.98523438 5.85351562 14.01171875 C5.88893694 11.67391221 5.93832729 9.33723763 6 7 C4.35 7 2.7 7 1 7 C0.67 4.69 0.34 2.38 0 0 Z " fill="#0069AF" transform="translate(504,280)"/>
<path d="M0 0 C6.27 0 12.54 0 19 0 C19.33 1.65 19.66 3.3 20 5 C19.34 5.66 18.68 6.32 18 7 C16.35 7 14.7 7 13 7 C13 13.6 13 20.2 13 27 C11.02 27.99 11.02 27.99 9 29 C8 28 8 28 7.88647461 25.77514648 C7.89171143 24.81680908 7.89694824 23.85847168 7.90234375 22.87109375 C7.90556641 21.83662109 7.90878906 20.80214844 7.91210938 19.73632812 C7.92048828 18.64771484 7.92886719 17.55910156 7.9375 16.4375 C7.94201172 15.34501953 7.94652344 14.25253906 7.95117188 13.12695312 C7.96300174 10.41791505 7.97948457 7.70898401 8 5 C5.36 5 2.72 5 0 5 C0 3.35 0 1.7 0 0 Z " fill="#0063B2" transform="translate(638,280)"/>
<path d="M0 0 C6.27 0.33 12.54 0.66 19 1 C21 7 21 7 21 11 C18.06217531 10.85924795 15.12484829 10.7126162 12.1875 10.5625 C11.35412109 10.52318359 10.52074219 10.48386719 9.66210938 10.44335938 C8.85966797 10.40146484 8.05722656 10.35957031 7.23046875 10.31640625 C6.12288208 10.26141968 6.12288208 10.26141968 4.99291992 10.20532227 C3 10 3 10 0 9 C0 6.03 0 3.06 0 0 Z " fill="#FAFAF8" transform="translate(200,356)"/>
<path d="M0 0 C2.81288705 0.14019692 5.62516885 0.28687955 8.4375 0.4375 C9.23994141 0.47681641 10.04238281 0.51613281 10.86914062 0.55664062 C16.88671875 0.88671875 16.88671875 0.88671875 18 2 C18.07179964 3.51928038 18.08392007 5.04167482 18.0625 6.5625 C18.05347656 7.38878906 18.04445312 8.21507812 18.03515625 9.06640625 C18.02355469 9.70449219 18.01195312 10.34257812 18 11 C5.33029613 11.18451025 5.33029613 11.18451025 0 10 C0 6.7 0 3.4 0 0 Z " fill="#129FD2" transform="translate(201,346)"/>
<path d="M0 0 C1.9375 0.75 1.9375 0.75 3.9375 1.75 C3.9375 6.04 3.9375 10.33 3.9375 14.75 C-2.21484375 14.84765625 -2.21484375 14.84765625 -4.0625 14.75 C-5.79469928 13.01780072 -5.27541761 10.72973192 -5.3125 8.375 C-5.35117187 6.90933594 -5.35117187 6.90933594 -5.390625 5.4140625 C-5.0625 2.75 -5.0625 2.75 -3.67578125 0.8828125 C-2.0625 -0.25 -2.0625 -0.25 0 0 Z " fill="#0051B4" transform="translate(460.0625,387.25)"/>
<path d="M0 0 C4.70588235 0.70588235 4.70588235 0.70588235 6 2 C6.12548989 3.95530764 6.17575363 5.91570479 6.1875 7.875 C6.20167969 8.94492187 6.21585938 10.01484375 6.23046875 11.1171875 C6 14 6 14 4 17 C0.125 16.125 0.125 16.125 -1 15 C-1.09909302 12.66839945 -1.12970504 10.33370058 -1.125 8 C-1.12757813 6.72125 -1.13015625 5.4425 -1.1328125 4.125 C-1 1 -1 1 0 0 Z " fill="#004FB3" transform="translate(663,339)"/>
<path d="M0 0 C0 2.64 0 5.28 0 8 C-1.79158489 8.02696365 -3.58328473 8.04637917 -5.375 8.0625 C-6.37273437 8.07410156 -7.37046875 8.08570313 -8.3984375 8.09765625 C-11 8 -11 8 -13 7 C-13 9.64 -13 12.28 -13 15 C-13.33 15 -13.66 15 -14 15 C-14 12.36 -14 9.72 -14 7 C-14.99 6.67 -15.98 6.34 -17 6 C-15.33784512 5.28764791 -13.67544056 4.57587225 -12.01171875 3.8671875 C-10.69687692 3.30040131 -9.38667573 2.72269249 -8.08203125 2.1328125 C-5.20262105 0.84352435 -3.19320442 0 0 0 Z " fill="#E3F2F1" transform="translate(214,339)"/>
<path d="M0 0 C0.99 0.33 1.98 0.66 3 1 C3.625 3.875 3.625 3.875 4 7 C3.34 7.66 2.68 8.32 2 9 C1.34 9 0.68 9 0 9 C-0.66 9.66 -1.32 10.32 -2 11 C-3.52150158 7.95699684 -3.23899393 5.345915 -3 2 C-2.01 1.34 -1.02 0.68 0 0 Z " fill="#004FB2" transform="translate(698,300)"/>
<path d="M0 0 C0.33 0.66 0.66 1.32 1 2 C2.32 1.67 3.64 1.34 5 1 C5.66 1.99 6.32 2.98 7 4 C6.4375 5.9375 6.4375 5.9375 5 8 C1.375 8.75 1.375 8.75 -2 9 C-2 6.33333333 -2 3.66666667 -2 1 C-1.34 0.67 -0.68 0.34 0 0 Z " fill="#004DB5" transform="translate(713,328)"/>
<path d="M0 0 C0.33 0 0.66 0 1 0 C1 11.55 1 23.1 1 35 C0.67 35 0.34 35 0 35 C0 23.45 0 11.9 0 0 Z " fill="#0000FF" transform="translate(376,378)"/>
<path d="M0 0 C0.33 0 0.66 0 1 0 C1 11.55 1 23.1 1 35 C0.67 35 0.34 35 0 35 C0 23.45 0 11.9 0 0 Z " fill="#0000FF" transform="translate(582,329)"/>
<path d="M0 0 C0.33 0 0.66 0 1 0 C1 10.89 1 21.78 1 33 C0.67 33 0.34 33 0 33 C0 22.11 0 11.22 0 0 Z " fill="#0000FF" transform="translate(622,379)"/>
<path d="M0 0 C9.24 0 18.48 0 28 0 C28 0.33 28 0.66 28 1 C18.76 1 9.52 1 0 1 C0 0.67 0 0.34 0 0 Z " fill="#0000FF" transform="translate(627,415)"/>
<path d="M0 0 C0.33 0 0.66 0 1 0 C1 8.25 1 16.5 1 25 C0.67 25 0.34 25 0 25 C0 16.75 0 8.5 0 0 Z " fill="#0050AE" transform="translate(429,282)"/>
<path d="M0 0 C0.33 0 0.66 0 1 0 C1 7.59 1 15.18 1 23 C0.67 23 0.34 23 0 23 C0 15.41 0 7.82 0 0 Z " fill="#0000FF" transform="translate(404,283)"/>
<path d="M0 0 C1.485 0.99 1.485 0.99 3 2 C2.67 4.64 2.34 7.28 2 10 C1.34 10 0.68 10 0 10 C0 6.7 0 3.4 0 0 Z " fill="#0080B8" transform="translate(558,296)"/>
<path d="M0 0 C4.95 0 9.9 0 15 0 C15 0.33 15 0.66 15 1 C10.05 1 5.1 1 0 1 C0 0.67 0 0.34 0 0 Z " fill="#0000FF" transform="translate(379,415)"/>
<path d="M0 0 C3.63 0 7.26 0 11 0 C11 0.33 11 0.66 11 1 C7.37 1 3.74 1 0 1 C0 0.67 0 0.34 0 0 Z " fill="#0000FF" transform="translate(530,415)"/>
<path d="M0 0 C3.63 0 7.26 0 11 0 C11 0.33 11 0.66 11 1 C7.37 1 3.74 1 0 1 C0 0.67 0 0.34 0 0 Z " fill="#0000FF" transform="translate(492,415)"/>
<path d="M0 0 C3.63 0 7.26 0 11 0 C11 0.33 11 0.66 11 1 C7.37 1 3.74 1 0 1 C0 0.67 0 0.34 0 0 Z " fill="#0000FF" transform="translate(470,415)"/>
<path d="M0 0 C3.3 0 6.6 0 10 0 C10 0.33 10 0.66 10 1 C6.7 1 3.4 1 0 1 C0 0.67 0 0.34 0 0 Z " fill="#0000FF" transform="translate(587,415)"/>
<path d="M0 0 C3.3 0 6.6 0 10 0 C10 0.33 10 0.66 10 1 C6.7 1 3.4 1 0 1 C0 0.67 0 0.34 0 0 Z " fill="#0000FF" transform="translate(508,415)"/>
<path d="M0 0 C3.3 0 6.6 0 10 0 C10 0.33 10 0.66 10 1 C6.7 1 3.4 1 0 1 C0 0.67 0 0.34 0 0 Z " fill="#006897" transform="translate(474,367)"/>
<path d="M0 0 C2.97 0 5.94 0 9 0 C9 0.33 9 0.66 9 1 C6.03 1 3.06 1 0 1 C0 0.67 0 0.34 0 0 Z " fill="#0000FF" transform="translate(610,415)"/>
<path d="M0 0 C2.97 0 5.94 0 9 0 C9 0.33 9 0.66 9 1 C6.03 1 3.06 1 0 1 C0 0.67 0 0.34 0 0 Z " fill="#005BA3" transform="translate(633,367)"/>
<path d="M0 0 C2.64 0 5.28 0 8 0 C8 0.33 8 0.66 8 1 C5.36 1 2.72 1 0 1 C0 0.67 0 0.34 0 0 Z " fill="#006B94" transform="translate(517,367)"/>
<path d="M0 0 C2.64 0 5.28 0 8 0 C8 0.33 8 0.66 8 1 C5.36 1 2.72 1 0 1 C0 0.67 0 0.34 0 0 Z " fill="#005DA1" transform="translate(433,367)"/>
<path d="M0 0 C2.31 0 4.62 0 7 0 C7 0.33 7 0.66 7 1 C4.69 1 2.38 1 0 1 C0 0.67 0 0.34 0 0 Z " fill="#000FEF" transform="translate(560,416)"/>
<path d="M0 0 C1.98 0 3.96 0 6 0 C6 0.33 6 0.66 6 1 C4.02 1 2.04 1 0 1 C0 0.67 0 0.34 0 0 Z " fill="#00629C" transform="translate(708,287)"/>
<path d="M0 0 C1.98 0 3.96 0 6 0 C6 0.33 6 0.66 6 1 C4.02 1 2.04 1 0 1 C0 0.67 0 0.34 0 0 Z " fill="#005DA9" transform="translate(639,286)"/>
<path d="M0 0 C1.65 0 3.3 0 5 0 C5 0.33 5 0.66 5 1 C3.35 1 1.7 1 0 1 C0 0.67 0 0.34 0 0 Z " fill="#0046B8" transform="translate(736,415)"/>
<path d="M0 0 C0.33 0 0.66 0 1 0 C1 1.65 1 3.3 1 5 C0.67 5 0.34 5 0 5 C0 3.35 0 1.7 0 0 Z " fill="#001BE3" transform="translate(619,337)"/>
<path d="M0 0 C4 1 4 1 4 1 Z " fill="#0044BA" transform="translate(716,415)"/>
<path d="M0 0 C4 1 4 1 4 1 Z " fill="#007E81" transform="translate(458,403)"/>
<path d="M0 0 C3 1 3 1 3 1 Z " fill="#004FAF" transform="translate(742,416)"/>
<path d="M0 0 C3 1 3 1 3 1 Z " fill="#0027D7" transform="translate(712,416)"/>
<path d="M0 0 C3 1 3 1 3 1 Z " fill="#003FBF" transform="translate(557,415)"/>
<path d="M0 0 C3 1 3 1 3 1 Z " fill="#0055AA" transform="translate(437,415)"/>
<path d="M0 0 C3 1 3 1 3 1 Z " fill="#FF0000" transform="translate(192,367)"/>
<path d="M0 0 C3 1 3 1 3 1 Z " fill="#002BD4" transform="translate(736,335)"/>
<path d="" fill="#002DD1" transform="translate(0,0)"/>
<path d="M0 0 C3 1 3 1 3 1 Z " fill="#002ED0" transform="translate(712,294)"/>
<path d="" fill="#003DC1" transform="translate(0,0)"/>
<path d="M0 0 C2 1 2 1 2 1 Z " fill="#0037C8" transform="translate(565,388)"/>
<path d="" fill="#C00000" transform="translate(0,0)"/>
<path d="" fill="#0032CC" transform="translate(0,0)"/>
<path d="M0 0 C2 1 2 1 2 1 Z " fill="#003EC1" transform="translate(510,328)"/>
<path d="M0 0 C2 1 2 1 2 1 Z " fill="#0000FF" transform="translate(795,314)"/>
<path d="M0 0 C2 1 2 1 2 1 Z " fill="#006A95" transform="translate(775,302)"/>
<path d="" fill="#003DC1" transform="translate(0,0)"/>
<path d="" fill="#003CC3" transform="translate(0,0)"/>
<path d="" fill="#008080" transform="translate(0,0)"/>
<path d="" fill="#0028D6" transform="translate(0,0)"/>
<path d="" fill="#0000FF" transform="translate(0,0)"/>
<path d="" fill="#008080" transform="translate(0,0)"/>
<path d="" fill="#00708F" transform="translate(0,0)"/>
<path d="" fill="#008080" transform="translate(0,0)"/>
<path d="" fill="#006A95" transform="translate(0,0)"/>
<path d="" fill="#007B84" transform="translate(0,0)"/>
<path d="" fill="#0000FF" transform="translate(0,0)"/>
<path d="" fill="#0040BF" transform="translate(0,0)"/>
<path d="" fill="#0000FF" transform="translate(0,0)"/>
<path d="" fill="#008080" transform="translate(0,0)"/>
<path d="" fill="#0000FF" transform="translate(0,0)"/>
<path d="" fill="#0000FF" transform="translate(0,0)"/>
<path d="" fill="#007F80" transform="translate(0,0)"/>
<path d="" fill="#0000FF" transform="translate(0,0)"/>
<path d="" fill="#008080" transform="translate(0,0)"/>
<path d="" fill="#00649B" transform="translate(0,0)"/>
<path d="" fill="#008080" transform="translate(0,0)"/>
<path d="" fill="#0038C7" transform="translate(0,0)"/>
<path d="" fill="#008080" transform="translate(0,0)"/>
<path d="" fill="#FFFFFF" transform="translate(0,0)"/>
<path d="" fill="#008080" transform="translate(0,0)"/>
<path d="" fill="#008080" transform="translate(0,0)"/>
<path d="" fill="#0000FF" transform="translate(0,0)"/>
<path d="" fill="#008080" transform="translate(0,0)"/>
<path d="" fill="#0057A8" transform="translate(0,0)"/>
<path d="" fill="#0055AA" transform="translate(0,0)"/>
<path d="" fill="#003AC5" transform="translate(0,0)"/>
<path d="" fill="#008080" transform="translate(0,0)"/>
<path d="" fill="#0048B7" transform="translate(0,0)"/>
<path d="" fill="#0055AA" transform="translate(0,0)"/>
<path d="" fill="#0000FF" transform="translate(0,0)"/>
<path d="" fill="#0000FF" transform="translate(0,0)"/>
<path d="" fill="#0053AC" transform="translate(0,0)"/>
<path d="" fill="#0000FF" transform="translate(0,0)"/>
<path d="" fill="#003BC4" transform="translate(0,0)"/>
<path d="" fill="#0080BF" transform="translate(0,0)"/>
<path d="" fill="#0000FF" transform="translate(0,0)"/>
<path d="" fill="#0050AF" transform="translate(0,0)"/>
<path d="" fill="#0000FF" transform="translate(0,0)"/>
<path d="" fill="#0047B8" transform="translate(0,0)"/>
<path d="" fill="#0000FF" transform="translate(0,0)"/>
<path d="" fill="#0000FF" transform="translate(0,0)"/>
<path d="" fill="#0000FF" transform="translate(0,0)"/>
</svg>
