<?xml version="1.0" encoding="UTF-8" standalone="no"?>
<!-- Created with Inkscape (http://www.inkscape.org/) -->

<svg
   version="1.1"
   id="svg1"
   width="2000"
   height="2000"
   viewBox="0 0 2000 2000"
   sodipodi:docname="facebook-icon.svg"
   inkscape:version="1.4.2 (f4327f4, 2025-05-13)"
   xmlns:inkscape="http://www.inkscape.org/namespaces/inkscape"
   xmlns:sodipodi="http://sodipodi.sourceforge.net/DTD/sodipodi-0.dtd"
   xmlns="http://www.w3.org/2000/svg"
   xmlns:svg="http://www.w3.org/2000/svg">
  <defs
     id="defs1">
    <linearGradient
       id="swatch3451"
       inkscape:swatch="solid">
      <stop
         style="stop-color:#ffffff;stop-opacity:1;"
         offset="0"
         id="stop3451" />
    </linearGradient>
  </defs>
  <sodipodi:namedview
     id="namedview1"
     pagecolor="#ffffff"
     bordercolor="#000000"
     borderopacity="0.25"
     inkscape:showpageshadow="2"
     inkscape:pageopacity="0.0"
     inkscape:pagecheckerboard="0"
     inkscape:deskcolor="#d1d1d1"
     inkscape:zoom="0.293"
     inkscape:cx="568.25939"
     inkscape:cy="1000"
     inkscape:window-width="1440"
     inkscape:window-height="830"
     inkscape:window-x="-6"
     inkscape:window-y="-6"
     inkscape:window-maximized="1"
     inkscape:current-layer="g1" />
  <g
     inkscape:groupmode="layer"
     inkscape:label="Image"
     id="g1"
     style="display:inline">
    <path
       style="fill:#ffffff"
       d="M 1003.413,2003.4129 H 3.4130205 l 0.1476,-481.75 0.1476,-481.7499 0.8365,15.9999 0.8365,16 2.0598,22.5 2.0599,22.5 1.9878995,15.5 1.9879,15.5 3.0361,18.5 3.036,18.5 4.4872,21.8505 4.4872,21.8505 5.3687,21.1495 5.3688,21.1495 6.5783,21.736 6.5783,21.736 6.5889,18.764 6.589,18.764 7.3249,18.5 7.3249,18.5 8.4754,19.0761 8.4755,19.0762 12.5391,24.9238 12.5391,24.9239 11.0915,19.3553 11.0915,19.3553 11.2033,17.8761 11.2032,17.8762 10.893,15.7685 10.893,15.7686 14.2954,19 14.2953,19 10.4073,12.6929 10.4073,12.6929 10.2891,11.8071 10.2892,11.8071 17.1399,18.3785 17.1399,18.3786 18.5,17.5576 18.5,17.5576 15.5,13.5679 15.5,13.5679 13,10.5929 13,10.593 16.5776,12.4838 16.5777,12.4839 14.8134,10.3164 14.8133,10.3165 15.109,9.6969 15.109,9.6969 12.7074,7.6564 12.7075,7.6564 17.8925,9.9193 17.8926,9.9193 19.1565,9.5884 19.1566,9.5883 16.7434,7.5929 16.7435,7.5928 14,5.7714 14,5.7714 14.715,5.6466 14.7151,5.6466 20.7849,7.0393 20.785,7.0392 22.037,6.3768 22.037,6.3767 15.963,3.9963 15.963,3.9962 16.6717,3.5686 16.6718,3.5687 h 1.5796 1.5797 l -0.2514,-352.25 -0.2514,-352.25 -124.75,-0.2539 -124.75,-0.2539 V 1144.409 1004.413 h 124.955 124.9551 l 0.3519,-130.75002 0.3519,-130.75002 1.7205,-14.5 1.7204,-14.5 2.5159,-15 2.516,-15 2.4338,-10.78354 2.4339,-10.78355 3.6334,-12.71645 3.6333,-12.71646 5.012,-13.5 5.012,-13.5 6.2086,-13.61995 6.2086,-13.61995 6.7434,-11.78107 6.7435,-11.78108 7.4054,-11.09897 7.4055,-11.09898 8.7225,-11 8.7226,-11 14.5474,-14.54615 14.5474,-14.54614 11,-8.80382 11,-8.80382 14,-9.27275 14,-9.27275 11.33718,-6.15452 11.3373,-6.15452 11.1627,-5.11659 11.1628,-5.1166 12.5508,-4.7527 12.5508,-4.75269 11.9492,-3.57102 11.9492,-3.57102 12.6625,-3.02456 12.6625,-3.02455 14.3375,-2.47208 14.3375,-2.47207 13.5,-1.52155 13.5,-1.52156 19.5,-1.12344 19.5,-1.12345 23.5,0.64182 23.5,0.64182 16,1.00506 16,1.00506 17.5,1.48411 17.5,1.48411 27,3.0345 27,3.03449 26,3.47015 26,3.47014 3.25,0.58484 3.25,0.58483 v 127.38871 127.38871 h -73.3263 -73.3264 l -10.9236,1.06298 -10.9237,1.06298 -12.0584,2.404 -12.0583,2.40401 -10.389,3.61615 -10.3889,3.61615 -5.0527,2.54619 -5.0527,2.54618 -7,4.50388 -7,4.50389 -8.116,8.11679 -8.116,8.1168 -5.0049,7.68059 -5.005,7.68058 -3.6947,8.81942 -3.6947,8.81941 -2.3728,9.12257 -2.3728,9.12257 -1.7465,10.37743 -1.7464,10.37743 -0.3715,109.25002 -0.3714,109.25002 h 132.5563 132.5564 l -0.036,1.75 -0.036,1.75 -22.2205,137.9999 -22.2204,138 -109.994,0.5 -109.9939,0.5 -0.2514,352.25 -0.2514,352.25 h 2.4518 2.4518 l 22.2626,-4.5783 22.2626,-4.5783 23.037,-5.8517 23.037,-5.8516 20,-6.0096 20,-6.0096 19.3191,-6.5981 19.319,-6.5981 17.181,-6.5834 17.1809,-6.5835 20,-8.4915 20,-8.4916 27.3324,-13.3578 27.3325,-13.3578 17.6675,-9.7021 17.6676,-9.7021 17.5,-10.4508 17.5,-10.4507 24.5,-16.2504 24.5,-16.2504 20,-14.9224 20,-14.9223 13.5,-10.887 13.5,-10.887 13.9828,-12.067 13.9829,-12.0669 13.4953,-12.5 13.4953,-12.5 17.8993,-18 17.8993,-18 15.3447,-17.052 15.3447,-17.0519 11.4105,-13.7003 11.4106,-13.7002 11.4511,-14.7478 11.4511,-14.7478 11.8044,-16.5 11.8043,-16.5 10.2034,-15.5 10.2034,-15.5 9.9821,-16.5 9.9821,-16.5 8.0421,-14.5 8.0421,-14.5 7.0618,-13.5 7.0619,-13.5 8.1689,-17.5 8.169,-17.5 7.9176,-18.7096 7.9175,-18.7096 6.8527,-18.2904 6.8526,-18.2904 6.0715,-18.5 6.0716,-18.5 4.6279,-16 4.628,-16 4.9717,-20 4.9717,-20 4.3908,-22 4.3907,-22 2.559,-16.5 2.559,-16.5 2.4319,-20.5 2.432,-20.5 1.1028,-15 1.1028,-15 0.3175,-3.5 0.3175,-3.5 0.1601,471.75 0.16,471.75 z m -168.49998,-11 h 0.5 v -0.5 -0.5 h -0.5 -0.5 v 0.5 0.5 z m 3.5,0 h 1.3333 l -0.6667,-0.6667 -0.6666,-0.6667 -0.6667,0.6667 -0.6667,0.6667 z M 4.5098205,954.41298 l -0.7976,15.5 -0.1496,-483.25002 -0.1496,-483.2499878 H 1003.413 h 1000 l -0.185,472.2499878 -0.185,472.25002 -0.3238,-5.5 -0.3238,-5.5 -2.0327,-22.5 -2.0326,-22.5 -2.482,-18.5 -2.4821,-18.5 -3.5116,-20.42299 -3.5116,-20.42298 -3.5333,-16.42831 -3.5332,-16.42831 -3.9781,-16.14872 -3.9781,-16.14871 -5.012,-17.5 -5.0119,-17.5 -6.5756,-20 -6.5756,-20 -6.7555,-18 -6.7555,-18 -6.0134,-14.5 -6.0134,-14.5 -6.3057,-14 -6.3057,-14 -10.2285,-20.5 -10.2286,-20.5 -7.6873,-14 -7.6872,-14 -11.945,-19.88888 -11.9451,-19.88887 -13.0923,-19.61113 -13.0924,-19.61112 -9.8247,-13.5 -9.8247,-13.5 -9.7635,-12.55433 -9.7635,-12.55434 -8.9989,-10.94566 -8.9989,-10.94567 -14.9498,-17 -14.9498,-17 -26.5513,-26.54055 -26.5513,-26.54055 -13,-11.5641 -13,-11.5641 -16.5,-13.75456 -16.5,-13.75456 -19.5,-14.68418 -19.5,-14.68418 -14.5,-10.07829 -14.5,-10.07828 -18.5,-11.80601 -18.5,-11.806 -22.5,-12.85528 -22.5,-12.85528 -21.5,-10.86972 -21.5,-10.86972 -17,-7.697188 -17,-7.69719 -14,-5.82171 -14,-5.82171 -15,-5.68809 -15,-5.68808 -22,-7.3364 -22,-7.33639 -19.6113,-5.54723 -19.6112,-5.54723 -18.3888,-4.45729 -18.3887,-4.4573 -14.5517,-2.9991 -14.5517,-2.99909 -17.7253,-3.04333 -17.7254,-3.04332 -18.2229,-2.4641 -18.223,-2.46409 -22,-2.0067198 -22,-2.00672 -19,-1.03397 -19,-1.03396 h -33 -32.99998 l -19,1.03396 -19,1.03397 -22,2.00672 -22,2.0067198 -18.223,2.46409 -18.223,2.4641 -17.7253,3.04332 -17.7254,3.04333 -14.5517,3.01365 -14.5516,3.01366 -18.3035,4.41857 -18.3035,4.41857 -19.6965,5.57139 -19.6965,5.5714 -22,7.33639 -22,7.3364 -14.5,5.50806 -14.5,5.50807 -14.5,6.00046 -14.5,6.00047 -17,7.70531 -17,7.705308 -19.5,9.84404 -19.5,9.84403 -15.5,8.635 -15.5,8.63499 -13.5,8.09135 -13.5,8.09135 -15.4676,9.93605 -15.4676,9.93606 -15.0324,10.54903 -15.0324,10.54903 -16.5,12.4948 -16.5,12.49479 -16,13.20474 -16,13.20474 -14.9977,13.39082 -14.9976,13.39083 -18.875,18.5 -18.8751,18.5 -14.2575,15.5 -14.2576,15.5 -10.8008,12.5 -10.8009,12.5 -13.1988,16.5 -13.1989,16.5 -11.7603,16 -11.7603,16 -14.938,22.44527 -14.938,22.44527 -10.7801,18.05473 -10.7802,18.05473 -9.8202,18 -9.8202,18 -10.2479,21.04162 -10.2478,21.04161 -9.0341,21.09813 -9.0341,21.09812 -6.6061,17.21609 -6.606,17.21608 -6.9698,20.64417 -6.9697,20.64418 -6.4363,22.5 -6.4364,22.5 -3.9898,16.5 -3.9898,16.5 -3.0918,14.5 -3.0919,14.5 -3.8872,23 -3.8872,23.00002 -2.5017,20 -2.5016995,20 -1.6095,19 -1.6095,19 z"
       id="path3451" />
  </g>
</svg>
