<?xml version="1.0" encoding="UTF-8" standalone="no"?>
<!-- Created with Inkscape (http://www.inkscape.org/) -->

<svg
   version="1.1"
   id="svg1"
   width="2400"
   height="2400"
   viewBox="0 0 2400 2400"
   sodipodi:docname="mail-icon.svg"
   inkscape:version="1.4.2 (f4327f4, 2025-05-13)"
   xmlns:inkscape="http://www.inkscape.org/namespaces/inkscape"
   xmlns:sodipodi="http://sodipodi.sourceforge.net/DTD/sodipodi-0.dtd"
   xmlns="http://www.w3.org/2000/svg"
   xmlns:svg="http://www.w3.org/2000/svg">
  <defs
     id="defs1" />
  <sodipodi:namedview
     id="namedview1"
     pagecolor="#ffffff"
     bordercolor="#000000"
     borderopacity="0.25"
     inkscape:showpageshadow="2"
     inkscape:pageopacity="0.0"
     inkscape:pagecheckerboard="0"
     inkscape:deskcolor="#d1d1d1"
     inkscape:zoom="0.24416667"
     inkscape:cx="1197.9522"
     inkscape:cy="1200"
     inkscape:window-width="1440"
     inkscape:window-height="830"
     inkscape:window-x="-6"
     inkscape:window-y="-6"
     inkscape:window-maximized="1"
     inkscape:current-layer="g1" />
  <g
     inkscape:groupmode="layer"
     inkscape:label="Image"
     id="g1">
    <path
       style="fill:#ffffff"
       d="M 4.0955593,1204.0955 V 4.0955641 H 1204.0956 h 1200 V 1204.0955 v 1200 h -1200 H 4.0955593 Z M 1249.5956,2351.079 l 24,-1.0046 19.5,-1.5098 19.5,-1.5098 18.5,-2.0458 18.5,-2.0457 17.5,-2.4636 17.5,-2.4635 17.3245,-2.9993 17.3245,-2.9993 17.1755,-3.5234 17.1755,-3.5234 22.281,-5.4238 22.2811,-5.4239 19.5124,-5.531 19.5124,-5.531 23.2065,-7.6143 23.2066,-7.6143 17,-6.2689 17,-6.2689 15.474,-6.1935 15.474,-6.1936 19.526,-8.596 19.526,-8.596 30.5,-15.2752 30.5,-15.2753 22.5,-12.8626 22.5,-12.8626 16.5,-10.3064 16.5,-10.3063 19.5921,-13.2294 19.5921,-13.2294 16.6645,-12.2119 16.6645,-12.212 19.7434,-15.7308 19.7434,-15.7308 16.5,-14.3159 16.5,-14.316 18,-16.7809 18,-16.7808 14.0046,-14.3569 14.0046,-14.3569 12.8674,-13.9126 12.8673,-13.9125 14.6281,-17.0875 14.628,-17.0874 13.3484,-16.8159 13.3483,-16.8159 13.0095,-17.6841 13.0096,-17.6841 17.285,-26 17.285,-26 10.473,-17.5 10.4729,-17.5 9.2092,-16.5 9.2092,-16.5 14.7329,-29.5 14.733,-29.5 6.8283,-15.5 6.8284,-15.5 9.2704,-23 9.2704,-23 5.71,-16 5.71,-16 4.9352,-15 4.9351,-15 6.5187,-22.5 6.5187,-22.5 5.3874,-21.7132 5.3874,-21.7131 4.4775,-21.7869 4.4775,-21.7868 3.5448,-21.5 3.5448,-21.5 2.4866,-19.1738 2.4867,-19.1739 1.9961,-21.8261 1.9962,-21.8262 1.2547,-18.5 1.2548,-18.5 v -48.5 -48.5 l -1.2548,-18.5 -1.2547,-18.5 -1.9962,-21.8262 -1.9961,-21.8261 -2.4867,-19.1739 -2.4866,-19.1738 -3.5448,-21.5 -3.5448,-21.49997 -4.4775,-21.7868 -4.4775,-21.7868 -5.5016,-22.2132 -5.5015,-22.2132 -6.4339,-22.1574 -6.4338,-22.1575 -6.9562,-20.8425 -6.9561,-20.8426 -6.9464,-18.5 -6.9463,-18.5 -7.709,-18.5 -7.709,-18.5 -6.882,-15.1999 -6.8821,-15.1999 -12.0985,-24.181 -12.0986,-24.181 -9.9518,-17.9511 -9.9517,-17.9511 -11.2009,-18.668 -11.2009,-18.668 -16.6696,-25 -16.6696,-25 -10.2291,-14 -10.2291,-14 -12.043,-15.5 -12.043,-15.5 -14.2132,-17 -14.2131,-17 -11.2441,-12.5 -11.2441,-12.5 -17.1289,-17.927 -17.1289,-17.92704 -18.5,-17.47192 -18.5,-17.47191 -12.5,-10.98805 -12.5,-10.98804 -14,-11.68828 -14,-11.68828 -13.6802,-10.68128 -13.6801,-10.68128 -17.3199,-12.63947 -17.3198,-12.63948 -24.5,-16.23912 -24.5,-16.23912 -17.5609,-10.53422 -17.5609,-10.53422 -18.4391,-10.22794 -18.4391,-10.22793 -26.5,-13.15078 -26.5,-13.15078 -20,-8.83197 -20,-8.83197 -23.5,-9.2437 -23.5,-9.24369 -16,-5.57642 -16,-5.57642 -15.5,-4.96456 -15.5,-4.96456 -18,-5.17653 -18,-5.176516 -24.3019,-5.9506 -24.3019,-5.9506 -24.6981,-4.90207 -24.6981,-4.90206 -23,-3.52198 -23,-3.52198 -22,-2.49568 -22,-2.49567 -20.5,-1.54469 -20.5,-1.54468 -22.5,-0.98041 -22.5,-0.98041 h -23.5 -23.5 l -22.5,0.98137 -22.5,0.98136 -14.5,1.04779 -14.5,1.04779 -19.5,1.96913 -19.5,1.96913 -11.5,1.5089 -11.5,1.50891 -13.5,2.04626 -13.5,2.04626 -19.50004,3.47567 -19.5,3.47568 -20.5,4.48599 -20.5,4.48599 -19.5,5.02534 -19.5,5.02534 -10.5,3.016846 -10.5,3.01685 -19.5,6.09817 -19.5,6.09817 -21.60079,7.74333 -21.6008,7.74333 -20.8992,8.4676 -20.89921,8.46761 -19.5,8.7079 -19.5,8.70789 -27.5,13.88629 -27.5,13.88629 -22.5,12.84389 -22.5,12.84388 -16.5,10.30636 -16.5,10.30636 -19.5,13.17292 -19.5,13.17292 -13,9.43763 -13,9.43762 -16,12.44663 -16,12.44663 -17,14.2101 -17,14.2101 -12.5,11.2391 -12.5,11.23909 -17.92312,17.11946 -17.92311,17.11946 -17.47584,18.5 -17.47583,18.49997 -10.99531,12.5 -10.99531,12.5 -12.24388,14.6754 -12.24389,14.6754 -11.36185,14.6504 -11.36186,14.6503 -10.35612,14.1743 -10.35611,14.1742 -16.67174,25 -16.67173,25 -11.20088,18.668 -11.20089,18.668 -10.0105,18.0571 -10.01051,18.057 -11.56435,23.0926 -11.56436,23.0927 -6.04261,13.1823 -6.04261,13.1823 -7.95465,18.7964 -7.95464,18.7964 -5.06369,13.2036 -5.06368,13.2036 -6.87941,19.3464 -6.8794,19.3464 -5.91976,19.1711 -5.91977,19.1712 -3.658509,12.9825 -3.658513,12.9824 -5.385758,21.7132 -5.385759,21.7132 -4.473715,21.7868 -4.473715,21.7868 -3.563314,21.49997 -3.563314,21.5 -2.471921,19.1738 -2.47192,19.1739 -1.996188,21.8261 -1.996187,21.8262 -1.259682,18.5 -1.259682,18.5 v 48.5 48.5 l 1.259682,18.5 1.259682,18.5 1.996187,21.8262 1.996188,21.8261 2.486648,19.1739 2.486648,19.1738 3.544771,21.5 3.544771,21.5 4.477531,21.7868 4.47753,21.7869 5.508551,22.2131 5.508552,22.2132 4.010934,14 4.010932,14 5.56088,18 5.56089,18 7.47472,21 7.47472,21 7.79805,19.5 7.79805,19.5 7.82498,18 7.82498,18 14.11892,28.5 14.11891,28.5 10.30163,18.5 10.30162,18.5 11.0698,18.5 11.06981,18.5 17.05818,25.5 17.05819,25.5 9.46604,13 9.46604,13 12.44819,16 12.4482,16 11.68009,14 11.6801,14 11.11457,12.6504 11.11457,12.6503 18.82381,19.835 18.82381,19.835 18.94861,17.9275 18.94862,17.9275 17,14.9539 17,14.9539 21.5,17.2568 21.5,17.2569 18,13.2343 18,13.2343 26,17.2706 26,17.2706 17.5,10.475 17.5,10.4751 16.5,9.1873 16.5,9.1873 24.5,12.3529 24.5,12.353 17,7.7113 17,7.7113 18,7.4674 18,7.4673 21,7.8249 21,7.8249 25,8.1653 25,8.1653 25,6.8359 25,6.836 24.5,5.5715 24.5,5.5716 19.5,3.5761 19.50004,3.5761 20,2.9979 20,2.9979 21.5,2.4266 21.5,2.4265 20.0899,1.5796 20.0899,1.5796 18.9101,0.7969 18.9101,0.7969 26,0.1469 26,0.1469 z m -701.50004,-640.5436 -6.5,-1.4011 -7.37509,-3.6358 -7.3751,-3.6359 -6.67104,-6.6336 -6.67105,-6.6335 -3.6812,-7.1031 -3.6812,-7.1031 -1.50788,-6.3969 -1.50788,-6.3969 v -457.5 -457.49997 l 1.50788,-6.3969 1.50788,-6.3968 3.6812,-7.1032 3.6812,-7.1031 6.67105,-6.6335 6.67104,-6.6336 7.3751,-3.6294 7.37509,-3.6294 7,-1.4697 7,-1.4696 h 648.50004 648.5 l 7,1.4696 7,1.4697 7.3751,3.6294 7.3751,3.6294 6.671,6.6336 6.6711,6.6335 3.6812,7.1031 3.6812,7.1032 1.5079,6.3968 1.5078,6.3969 v 457.49997 457.5 l -1.5078,6.3969 -1.5079,6.3969 -3.6812,7.1031 -3.6812,7.1031 -6.6711,6.6335 -6.671,6.6336 -7.3751,3.6294 -7.3751,3.6294 -7,1.4697 -7,1.4697 -649,-0.062 -649.00004,-0.062 z m 1137.92994,-115.7217 -1.5701,-1.2182 -169.2967,-151 -169.2966,-151 -0.64,-0.2522 -0.64,-0.2523 -54.3139,47.3998 -54.3139,47.3997 -6.2323,3.0681 -6.2322,3.0681 -6.4471,1.5196 -6.4471,1.5196 -7.0399,0.015 -7.0399,0.015 -5.9601,-1.4975 -5.9601,-1.4976 -7.2409,-3.7524 -7.241,-3.7525 -52.0384,-45.5 -52.0384,-45.5 -0.8278,-0.2857 -0.8277,-0.2857 -167.39296,149.1518 -167.39288,149.1518 -2.47727,2.3839 -2.47728,2.3839 481.47729,-0.032 481.4773,-0.032 z m -880.92994,-223.1971 172.5,-153.7689 v -0.7723 -0.7723 L 797.81934,1059.1993 618.04311,902.09553 h -0.47377 -0.47378 v 318.60587 318.606 l 7.75,-6.961 7.75,-6.9609 z m 985.75314,-311.3015 -0.2531,-158.94237 -179,156.38047 -179,156.3806 v 1.199 1.1991 l 179,159.5776 179,159.5776 0.2531,-158.2148 0.253,-158.2148 z m -340.5322,-12.7819 244.8468,-213.93767 -245.5338,-0.252 -245.5339,-0.252 -245.7107,0.252 -245.71067,0.252 245.32807,214.29417 245.3281,214.2942 1.0696,-0.3565 1.0696,-0.3566 z"
       id="path1" />
  </g>
</svg>
