<?xml version="1.0" encoding="UTF-8"?>
<svg version="1.1" xmlns="http://www.w3.org/2000/svg" width="631" height="285">
<path d="M0 0 C5.91069902 0.4429206 9.69396278 2.16156286 14.625 5.375 C15.32012695 5.81980713 16.01525391 6.26461426 16.73144531 6.72290039 C23.06954031 10.87222253 28.83180199 15.54295326 34.453125 20.60888672 C36.00736429 22.00662275 37.58002567 23.38104997 39.15625 24.75390625 C45.82620912 30.63074317 51.58818821 36.9351257 57 44 C58.12535156 45.41925781 58.12535156 45.41925781 59.2734375 46.8671875 C77.94207791 70.8879296 87.86129474 98.77970644 95 128 C108.05901362 101.52552326 114.14350939 75.51509729 114 46 C115.70703125 45.2421875 115.70703125 45.2421875 118 45 C129.92788677 53.61115141 137.38728267 67.81916704 143 81 C143.5775 82.11375 144.155 83.2275 144.75 84.375 C152.43510723 106.66181095 147.09405797 132.41259384 137.20092773 153.07983398 C123.89748929 179.92707654 104.94218776 203.1569485 80.63427734 220.81005859 C79.00685595 221.99500808 77.40339432 223.20756057 75.80078125 224.42578125 C60.14504418 236.15411801 43.05972065 245.47717984 25.08544922 253.10693359 C22.32392983 254.28951823 19.59964319 255.54762357 16.875 256.8125 C13.45758933 258.36244374 10.02628359 259.86883911 6.5625 261.3125 C5.78003906 261.63863281 4.99757812 261.96476562 4.19140625 262.30078125 C2 263 2 263 -2 263 C-0.92528574 258.70114296 0.49014942 254.75609346 2.25 250.6875 C14.73428477 221.14257974 20.79429711 189.75297207 24 158 C24.09788818 157.13101074 24.19577637 156.26202148 24.29663086 155.36669922 C25.17771804 147.00540977 25.20065712 138.64739148 25.1875 130.25 C25.18656342 129.47622009 25.18562683 128.70244019 25.18466187 127.9052124 C25.07709418 86.74440957 18.13659838 43.85840081 1.265625 6.046875 C0 3 0 3 0 0 Z " fill="#041B72" transform="translate(221,0)"/>
<path d="M0 0 C5.91069902 0.4429206 9.69396278 2.16156286 14.625 5.375 C15.66769043 6.04221069 15.66769043 6.04221069 16.73144531 6.72290039 C23.06954031 10.87222253 28.83180199 15.54295326 34.453125 20.60888672 C36.00736429 22.00662275 37.58002567 23.38104997 39.15625 24.75390625 C45.82620912 30.63074317 51.58818821 36.9351257 57 44 C58.12535156 45.41925781 58.12535156 45.41925781 59.2734375 46.8671875 C74.12692196 65.97900881 84.77687905 89.0569603 91.375 112.25 C91.63812988 113.1486377 91.90125977 114.04727539 92.17236328 114.97314453 C94.19836918 122.41636594 96.00499426 130.74196482 92.34765625 137.93359375 C91.61268409 139.11857576 90.84994441 140.28671864 90.0625 141.4375 C89.65499512 142.07091309 89.24749023 142.70432617 88.82763672 143.35693359 C84.8454196 149.4566667 80.54527724 155.30891831 76 161 C75.23816406 161.96679688 74.47632813 162.93359375 73.69140625 163.9296875 C62.06772031 178.18275637 48.78902646 192.01930653 34 203 C33.38721191 203.4626123 32.77442383 203.92522461 32.14306641 204.40185547 C30.10127784 205.94265189 28.05273452 207.47382058 26 209 C25.35184326 209.48218994 24.70368652 209.96437988 24.03588867 210.46118164 C21.37634737 212.40551675 19.14566807 213.95144398 16 215 C17.63628448 199.09916494 17.63628448 199.09916494 19.4375 191.5625 C21.96022924 180.54957034 22.84369263 169.22219179 24 158 C24.09933838 157.12230957 24.19867676 156.24461914 24.30102539 155.34033203 C25.18054985 146.9883866 25.20064239 138.63798973 25.1875 130.25 C25.18656342 129.47622009 25.18562683 128.70244019 25.18466187 127.9052124 C25.07709418 86.74440957 18.13659838 43.85840081 1.265625 6.046875 C0 3 0 3 0 0 Z " fill="#009EDD" transform="translate(221,0)"/>
<path d="M0 0 C1.47928429 0.00561737 2.95857427 0.00987729 4.43786621 0.01286316 C8.27158902 0.02414398 12.10495336 0.05345929 15.9385376 0.0869751 C19.87434036 0.1180448 23.81020287 0.13144608 27.74609375 0.14648438 C35.42463998 0.17835122 43.10289417 0.22933517 50.78125 0.29296875 C51.54814875 3.83395123 51.81316076 6.53036852 51.2578125 10.12109375 C51.05671875 11.44367188 51.05671875 11.44367188 50.8515625 12.79296875 C50.70460938 13.70046875 50.55765625 14.60796875 50.40625 15.54296875 C50.19742188 16.92742187 50.19742188 16.92742187 49.984375 18.33984375 C48.92252831 25.15169044 48.92252831 25.15169044 47.78125 26.29296875 C45.87881238 26.38688171 43.97286541 26.41040533 42.06811523 26.40649414 C40.8469249 26.40641861 39.62573456 26.40634308 38.36753845 26.40626526 C37.02497314 26.40115786 35.68240825 26.39594186 34.33984375 26.390625 C32.97363842 26.38876074 31.60743243 26.38733688 30.2412262 26.38633728 C26.63923305 26.38251269 23.03728 26.37268292 19.43530273 26.3616333 C15.76221255 26.35141791 12.08911591 26.34683939 8.41601562 26.34179688 C1.20440877 26.33106059 -6.007165 26.31398489 -13.21875 26.29296875 C-13.1775 27.57171875 -13.13625 28.85046875 -13.09375 30.16796875 C-13.07717217 35.38169731 -14.03563642 40.23304547 -15.21875 45.29296875 C-14.15426132 45.28963783 -14.15426132 45.28963783 -13.06826782 45.28623962 C-6.38776448 45.26622131 0.29273053 45.25098673 6.97325706 45.24115658 C10.40796562 45.23593296 13.84264943 45.22884474 17.27734375 45.2175293 C21.22395535 45.2046084 25.17055684 45.19973623 29.1171875 45.1953125 C30.35367035 45.19015121 31.5901532 45.18498993 32.86410522 45.17967224 C34.00513702 45.17959671 35.14616882 45.17952118 36.32177734 45.17944336 C37.83401382 45.17611244 37.83401382 45.17611244 39.37680054 45.17271423 C41.78125 45.29296875 41.78125 45.29296875 43.78125 46.29296875 C43.36111452 52.52866372 42.80501312 58.73148262 41.90625 64.91796875 C41.76445313 65.90023437 41.62265625 66.8825 41.4765625 67.89453125 C40.78125 70.29296875 40.78125 70.29296875 37.78125 72.29296875 C35.18061829 72.53347778 35.18061829 72.53347778 32.0246582 72.52001953 C30.84366043 72.51986847 29.66266266 72.51971741 28.44587708 72.51956177 C27.17080795 72.5092392 25.89573883 72.49891663 24.58203125 72.48828125 C23.27670944 72.48545135 21.97138763 72.48262146 20.62651062 72.47970581 C17.15929485 72.47207622 13.69224712 72.45243368 10.22509766 72.43029785 C6.68589552 72.4098248 3.14666618 72.40070098 -0.39257812 72.390625 C-7.33470437 72.36918705 -14.27671911 72.33505931 -21.21875 72.29296875 C-21.20171021 73.92564697 -21.20171021 73.92564697 -21.18432617 75.59130859 C-21.21842293 79.25779852 -21.73100675 82.34765269 -22.53125 85.91796875 C-24.11727012 93.40458504 -25.21824921 100.91252212 -26.21606445 108.49853516 C-26.33296631 109.36655762 -26.44986816 110.23458008 -26.5703125 111.12890625 C-26.67166504 111.9079834 -26.77301758 112.68706055 -26.87744141 113.48974609 C-27.21875 115.29296875 -27.21875 115.29296875 -28.21875 116.29296875 C-30.8850103 116.38152036 -33.52522114 116.40821548 -36.19140625 116.390625 C-36.98904892 116.38921005 -37.78669159 116.3877951 -38.60850525 116.38633728 C-41.16612435 116.38072191 -43.72365718 116.36816687 -46.28125 116.35546875 C-48.01106645 116.35045573 -49.74088426 116.34589248 -51.47070312 116.34179688 C-55.72008553 116.3307475 -59.96940312 116.31347261 -64.21875 116.29296875 C-64.52212709 108.30114938 -63.35912096 100.78748509 -62.03125 92.91796875 C-61.80452404 91.54465017 -61.57812951 90.17127684 -61.35205078 88.79785156 C-59.68333272 78.73628214 -57.86227435 68.70429575 -55.9543457 58.68530273 C-54.86325303 52.92745206 -53.87924011 47.17787405 -53.06005859 41.37524414 C-51.29119884 28.96412448 -48.92627586 17.04461132 -39.21875 8.29296875 C-38.74308594 7.803125 -38.26742187 7.31328125 -37.77734375 6.80859375 C-28.64004944 -1.30284245 -11.48211093 -0.13125088 0 0 Z " fill="#03196E" transform="translate(64.21875,98.70703125)"/>
<path d="M0 0 C1.4644777 -0.00067468 2.9289553 -0.00164607 4.39343262 -0.00289917 C7.44263794 -0.0043647 10.49181376 -0.00225615 13.54101562 0.00244141 C17.45634517 0.00817875 21.37160676 0.0048274 25.2869339 -0.00113106 C28.30139688 -0.00473318 31.31584355 -0.00360041 34.33030701 -0.00100327 C35.77526355 -0.00033512 37.22022156 -0.00115852 38.66517639 -0.00348282 C40.67326837 -0.00600792 42.68136554 -0.00148034 44.68945312 0.00341797 C45.83256958 0.00421356 46.97568604 0.00500916 48.15344238 0.00582886 C50.71875 0.1328125 50.71875 0.1328125 51.71875 1.1328125 C51.7067518 3.65243447 51.61839226 6.12063642 51.46875 8.6328125 C51.42814453 9.65761719 51.42814453 9.65761719 51.38671875 10.703125 C51.04634889 16.56627035 49.69282628 20.21058366 47.71875 26.1328125 C27.91875 26.1328125 8.11875 26.1328125 -12.28125 26.1328125 C-12.61125 29.7628125 -12.94125 33.3928125 -13.28125 37.1328125 C-13.88888316 39.81354701 -14.53270714 42.48796106 -15.28125 45.1328125 C-14.55684219 45.13059189 -13.83243439 45.12837128 -13.08607483 45.12608337 C-6.27281547 45.10608023 0.54043953 45.09083825 7.35372066 45.08100033 C10.85683885 45.07577261 14.35993285 45.068677 17.86303711 45.05737305 C21.88655841 45.04447044 25.91005414 45.03958338 29.93359375 45.03515625 C31.19711166 45.02999496 32.46062958 45.02483368 33.76243591 45.01951599 C34.923564 45.01944046 36.08469208 45.01936493 37.28100586 45.01928711 C38.8232206 45.01595619 38.8232206 45.01595619 40.39659119 45.01255798 C42.71875 45.1328125 42.71875 45.1328125 43.71875 46.1328125 C43.65436368 48.4477932 43.51724567 50.76094451 43.34375 53.0703125 C43.25351563 54.33746094 43.16328125 55.60460937 43.0703125 56.91015625 C42.71875 60.1328125 42.71875 60.1328125 41.71875 62.1328125 C41.44919167 64.46470595 41.27367623 66.79602757 41.09765625 69.13671875 C40.97261719 69.79542969 40.84757812 70.45414062 40.71875 71.1328125 C38.07454883 72.45491309 36.03675385 72.29403372 33.07568359 72.33813477 C31.30407364 72.3680526 31.30407364 72.3680526 29.49667358 72.39857483 C28.21644318 72.41528732 26.93621277 72.43199982 25.6171875 72.44921875 C24.31045074 72.46999985 23.00371399 72.49078094 21.65737915 72.51219177 C18.182061 72.56740544 14.70668347 72.61681775 11.23126221 72.66503906 C7.685371 72.71525927 4.1395661 72.77094262 0.59375 72.82617188 C-6.3645085 72.93374478 -13.32284496 73.03519167 -20.28125 73.1328125 C-20.39194824 73.79700195 -20.50264648 74.46119141 -20.61669922 75.14550781 C-23.2109375 90.7109375 -23.2109375 90.7109375 -23.74902344 93.91992188 C-24.10447498 96.0656752 -24.45145533 98.21284862 -24.79003906 100.36132812 C-24.9547168 101.39451172 -25.11939453 102.42769531 -25.2890625 103.4921875 C-25.43230957 104.40967773 -25.57555664 105.32716797 -25.72314453 106.27246094 C-26.37342231 109.60520565 -27.348409 112.86786898 -28.28125 116.1328125 C-40.16125 116.1328125 -52.04125 116.1328125 -64.28125 116.1328125 C-65.39929523 110.54258636 -65.39929523 110.54258636 -64.46484375 107.046875 C-62.87767066 100.61037593 -61.91641321 94.08519011 -60.86914062 87.54296875 C-59.95827217 81.94711553 -58.94368043 76.39020945 -57.8046875 70.8359375 C-55.9679545 61.79382631 -54.60558003 52.68928275 -53.26367188 43.5625 C-51.15405371 29.9080135 -48.71428805 15.90179871 -37.46875 6.7578125 C-26.34911857 -0.87372162 -12.93022038 -0.02107019 0 0 Z " fill="#03196E" transform="translate(176.28125,98.8671875)"/>
<path d="M0 0 C6.40739964 5.59217245 9.78350186 12.74438154 10.3828125 21.1875 C10.75703755 30.73841853 9.63420847 39.07276315 6 48 C5.58427734 49.10021484 5.58427734 49.10021484 5.16015625 50.22265625 C0.5868758 60.82339389 -9.37562193 69.76196632 -19.875 74.25 C-28.15391723 77.24689312 -35.79300203 78.17877909 -44.5625 78.25 C-45.35390381 78.2593457 -46.14530762 78.26869141 -46.96069336 78.27832031 C-57.91371856 78.21929271 -65.93890138 75.68521653 -74.015625 68.109375 C-80.60659581 61.07531371 -82.89450943 54.20920946 -82.671875 44.546875 C-81.46430362 38.17202145 -77.77082236 33.31379594 -74.24462891 27.9765625 C-72.15907044 24.66454184 -70.41961037 21.19392697 -68.6875 17.6875 C-68.18162354 16.68082275 -68.18162354 16.68082275 -67.66552734 15.65380859 C-65.82989712 11.93378203 -64.38802028 8.27192172 -63.125 4.3125 C-61.65940502 0.53113807 -60.12456885 -0.99351379 -56.5625 -2.9375 C-38.79846322 -10.22928802 -16.26778118 -11.66069471 0 0 Z M-44.03125 18.71875 C-49.76972881 28.28288135 -51.99618336 42.01479219 -50 53 C-47.48761094 56.11136923 -46.11770083 57.75162204 -42.1875 58.625 C-37.648015 57.7349049 -34.41011584 56.14996267 -31 53 C-24.35666528 43.09356637 -22.10071044 30.78069321 -23 19 C-24.08949912 15.06104164 -24.52705994 14.31529337 -28 12 C-35.28137191 11.28379948 -39.4618171 12.60273981 -44.03125 18.71875 Z " fill="#009DDC" transform="translate(431,139)"/>
<path d="M0 0 C0.64195312 0.29003906 1.28390625 0.58007812 1.9453125 0.87890625 C6.45235627 3.13242813 8.66502027 5.59390818 11 10 C11.56039893 13.18442662 11.56020778 16.27386647 11.5 19.5 C11.52320313 20.74330078 11.52320313 20.74330078 11.546875 22.01171875 C11.50602052 28.43608547 9.79796457 32.00218082 5.359375 36.7578125 C-7.05455496 47.30362678 -24.97560367 51 -41 51 C-39.26349007 56.2997333 -39.26349007 56.2997333 -35.1875 59.875 C-24.80732535 63.53859105 -13.95620717 61.44540861 -4.18359375 56.8046875 C-1.66972723 55.87828946 0.34166279 55.85984162 3 56 C2.5828084 59.10725019 2.13777123 62.20988484 1.6875 65.3125 C1.56955078 66.19357422 1.45160156 67.07464844 1.33007812 67.98242188 C1.14155273 69.25375977 1.14155273 69.25375977 0.94921875 70.55078125 C0.78425903 71.72120972 0.78425903 71.72120972 0.6159668 72.9152832 C-0.12200403 75.41291813 -0.97601904 76.3867251 -3 78 C-17.83459032 84.7429956 -38.91954058 85.98954784 -54.265625 80.32421875 C-62.8718317 76.15635579 -68.34428567 70.45112792 -71.96484375 61.65625 C-75.91889107 50.14031495 -74.11224554 39.27861495 -70 28 C-66.88040748 21.89387815 -63.17127683 16.54063332 -58 12 C-57.46246094 11.45988281 -56.92492187 10.91976562 -56.37109375 10.36328125 C-42.99412114 -2.51100763 -17.28067016 -8.64033508 0 0 Z M-35.8125 23.875 C-38.07381725 27.10545321 -38.72233641 29.11270969 -39 33 C-31.93256775 33.6282162 -25.12782307 31.73412797 -19.18359375 27.796875 C-16.93796446 25.77516886 -16.04822642 24.29624801 -15.5625 21.3125 C-15.81026503 18.81417709 -15.81026503 18.81417709 -18 17 C-25.72798912 15.67078587 -30.59554981 18.22701974 -35.8125 23.875 Z " fill="#009CDB" transform="translate(619,134)"/>
<path d="M0 0 C5.81861432 0.6563296 9.36798201 5.85577435 13 10 C19.35517847 18.11121462 23.96372128 26.52125513 28 36 C28.5775 37.11375 29.155 38.2275 29.75 39.375 C37.43510723 61.66181095 32.09405797 87.41259384 22.20092773 108.07983398 C12.2744044 128.11223243 -0.47069724 145.90905312 -17 161 C-17.33 161 -17.66 161 -18 161 C-17.98428955 159.70191406 -17.9685791 158.40382812 -17.95239258 157.06640625 C-17.31727541 125.52008952 -17.31727541 125.52008952 -20.34375 94.18359375 C-21.4842075 87.15334458 -20.84749038 82.96766877 -17.375 76.6875 C-5.48345836 53.90217945 -0.68222643 29.07304085 -1.05078125 3.47265625 C-1 1 -1 1 0 0 Z " fill="#D3252E" transform="translate(336,45)"/>
<path d="M0 0 C10.56 0 21.12 0 32 0 C32 5.30252605 31.64815165 9.82396579 30.64453125 14.94140625 C30.50260345 15.69387634 30.36067566 16.44634644 30.21444702 17.22161865 C29.91007808 18.83334786 29.60303813 20.44457459 29.29354858 22.05532837 C28.47518125 26.32056774 27.67993406 30.59012299 26.8828125 34.859375 C26.7220372 35.71819778 26.5612619 36.57702057 26.39561462 37.46186829 C20.48248109 65.55183664 20.48248109 65.55183664 18 94 C18.85722656 93.90976563 19.71445312 93.81953125 20.59765625 93.7265625 C24.47163121 93.61300743 27.31538149 93.74894348 31 95 C34.7844707 99.80994018 38 105.76412176 38 112 C29.24304005 116.28118042 20.45709654 117.18300916 10.8125 117.3125 C10.06444092 117.33014404 9.31638184 117.34778809 8.5456543 117.3659668 C0.71068138 117.35646148 -5.7514507 115.08612343 -11.5234375 109.72265625 C-16.46417529 103.95846216 -16.37647375 97.23678744 -16 90 C-15.57328704 86.3828946 -14.94239041 82.81842867 -14.27734375 79.23828125 C-14.09631104 78.22475586 -13.91527832 77.21123047 -13.72875977 76.16699219 C-13.13979335 72.88063965 -12.53876766 69.59662199 -11.9375 66.3125 C-11.52792828 64.04010153 -11.11916274 61.76755763 -10.71118164 59.49487305 C-9.88369728 54.89286646 -9.05144147 50.29176473 -8.21484375 45.69140625 C-7.0806397 39.45238525 -5.95945466 33.21110279 -4.84375 26.96875 C-3.23614996 17.97789702 -1.62054078 8.98853007 0 0 Z " fill="#009DDB" transform="translate(511,100)"/>
<path d="M0 0 C1.29744141 -0.00128906 2.59488281 -0.00257813 3.93164062 -0.00390625 C4.94665649 -0.00076416 4.94665649 -0.00076416 5.98217773 0.00244141 C8.0539479 0.00780048 10.12550214 0.00248732 12.19726562 -0.00390625 C14.14149414 -0.00197266 14.14149414 -0.00197266 16.125 0 C17.92046265 0.00169189 17.92046265 0.00169189 19.75219727 0.00341797 C22.49609375 0.1328125 22.49609375 0.1328125 23.49609375 1.1328125 C24.00296156 7.89423784 22.47653779 14.33478538 21.18359375 20.9453125 C20.72419213 23.36307851 20.26586141 25.78104824 19.80859375 28.19921875 C19.47214844 29.96869873 19.47214844 29.96869873 19.12890625 31.77392578 C18.27545048 36.30395838 17.45987394 40.83895976 16.68359375 45.3828125 C16.56008545 46.07737549 16.43657715 46.77193848 16.30932617 47.48754883 C15.59193696 51.74188265 15.304571 55.82081462 15.49609375 60.1328125 C17.15952212 61.79624087 19.27866465 61.49329347 21.55859375 61.6953125 C22.47769531 61.77910156 23.39679688 61.86289063 24.34375 61.94921875 C25.40916016 62.04009766 25.40916016 62.04009766 26.49609375 62.1328125 C28.14290624 68.44041507 29.75919262 74.64808257 30.49609375 81.1328125 C23.27956714 83.55272561 16.37377842 84.45435354 8.80859375 84.5078125 C8.02572998 84.52134766 7.24286621 84.53488281 6.4362793 84.54882812 C-0.16407096 84.49896712 -6.30305789 83.29164846 -11.84375 79.5546875 C-17.48203141 73.65448103 -18.7455374 68.29856593 -18.69360352 60.27514648 C-18.28791497 53.55491829 -16.94744057 46.93719497 -15.75390625 40.3203125 C-15.477712 38.75936186 -15.20199888 37.19832602 -14.92675781 35.63720703 C-14.25223347 31.82592116 -13.56647339 28.01675472 -12.87744141 24.20806885 C-12.33768007 21.20930658 -11.81259865 18.20798115 -11.28515625 15.20703125 C-10.94279323 13.30704122 -10.59917065 11.40727744 -10.25390625 9.5078125 C-10.02815918 8.22233521 -10.02815918 8.22233521 -9.79785156 6.91088867 C-9.43402953 4.97098144 -8.97955298 3.04837161 -8.50390625 1.1328125 C-5.64555139 -0.29636493 -3.19132906 0.00300441 0 0 Z " fill="#009BD9" transform="translate(463.50390625,132.8671875)"/>
<path d="M0 0 C-0.53387787 4.89388046 -3.99536848 6.87689905 -7.60986328 9.8034668 C-26.70451013 25.03612184 -47.43396907 37.56433247 -69.91455078 47.10693359 C-72.67607017 48.28951823 -75.40035681 49.54762357 -78.125 50.8125 C-81.54241067 52.36244374 -84.97371641 53.86883911 -88.4375 55.3125 C-89.61119141 55.80169922 -89.61119141 55.80169922 -90.80859375 56.30078125 C-93 57 -93 57 -97 57 C-95.92528574 52.70114296 -94.50985058 48.75609346 -92.75 44.6875 C-90.53939378 39.4879972 -88.65214916 34.23376251 -86.875 28.875 C-86.63362305 28.14756592 -86.39224609 27.42013184 -86.14355469 26.6706543 C-84.3320368 21.14255099 -82.65114384 15.57787467 -81 10 C-80.15912842 9.97812622 -80.15912842 9.97812622 -79.30126953 9.95581055 C-55.16251204 9.26620138 -31.11137805 7.01631209 -7.6953125 0.87890625 C-4 0 -4 0 0 0 Z " fill="#009CDB" transform="translate(316,206)"/>
<path d="M0 0 C3.18778259 2.34889244 3.88816746 3.56065788 4.875 7.4375 C5.02942849 11.83871192 4.51888931 14.16086294 1.703125 17.5703125 C-2.14651292 21.67791585 -5.38707335 23.71875883 -11.12109375 24.3359375 C-22.41031045 24.46890825 -22.41031045 24.46890825 -27 20 C-29.71475716 16.84737878 -29.99467374 15.3302282 -30.0625 11.125 C-29.19116223 6.27302441 -26.84002238 3.03033081 -23 0 C-15.16312057 -4.01088929 -7.83559341 -4.13955878 0 0 Z " fill="#009AD7" transform="translate(487,103)"/>
<path d="M0 0 C1 2 1 2 0.44140625 3.9453125 C0.15136719 4.66460937 -0.13867188 5.38390625 -0.4375 6.125 C-0.72496094 6.84945312 -1.01242187 7.57390625 -1.30859375 8.3203125 C-1.53675781 8.87460938 -1.76492188 9.42890625 -2 10 C-2.33 10 -2.66 10 -3 10 C-2.88637738 8.5199159 -2.75877092 7.04089926 -2.625 5.5625 C-2.55539062 4.73878906 -2.48578125 3.91507813 -2.4140625 3.06640625 C-2.27742187 2.38449219 -2.14078125 1.70257813 -2 1 C-1.34 0.67 -0.68 0.34 0 0 Z " fill="#000000" transform="translate(543,153)"/>
<path d="M0 0 C1.20220203 3.53094302 0.79532349 6.12898982 0.0625 9.75 C-0.13214844 10.73484375 -0.32679688 11.7196875 -0.52734375 12.734375 C-0.68332031 13.48203125 -0.83929688 14.2296875 -1 15 C-1.33 15 -1.66 15 -2 15 C-2.19392201 9.47322267 -1.7479503 5.24385089 0 0 Z " fill="#000000" transform="translate(489,165)"/>
<path d="M0 0 C0.33 0 0.66 0 1 0 C1.07654536 4.51617599 1.10228696 8.59085217 0 13 C-0.33 13 -0.66 13 -1 13 C-0.67 8.71 -0.34 4.42 0 0 Z " fill="#000000" transform="translate(490,172)"/>
<path d="M0 0 C0.33 0 0.66 0 1 0 C0.67 2.97 0.34 5.94 0 9 C-0.33 9 -0.66 9 -1 9 C-0.67 6.03 -0.34 3.06 0 0 Z " fill="#000000" transform="translate(495,145)"/>
<path d="M0 0 C0.93065133 2.60582371 1.14917407 3.64198224 0.0625 6.25 C-0.4634375 7.11625 -0.4634375 7.11625 -1 8 C-0.67 5.36 -0.34 2.72 0 0 Z " fill="#000000" transform="translate(493,143)"/>
<path d="M0 0 C1 4 1 4 1 4 Z " fill="#000000" transform="translate(536,181)"/>
<path d="M0 0 C0.66 0 1.32 0 2 0 C1.67 0.66 1.34 1.32 1 2 C0.67 1.34 0.34 0.68 0 0 Z " fill="#000000" transform="translate(398,160)"/>
<path d="" fill="#000000" transform="translate(0,0)"/>
<path d="" fill="#FF0000" transform="translate(0,0)"/>
<path d="" fill="#000000" transform="translate(0,0)"/>
<path d="" fill="#000000" transform="translate(0,0)"/>
<path d="" fill="#000000" transform="translate(0,0)"/>
<path d="" fill="#000000" transform="translate(0,0)"/>
<path d="" fill="#000000" transform="translate(0,0)"/>
</svg>
