<?xml version="1.0" encoding="UTF-8"?>
<svg version="1.1" xmlns="http://www.w3.org/2000/svg" width="1392" height="737">
<path d="M0 0 C2.50032411 0.99270774 2.50032411 0.99270774 4.859375 -0.13671875 C5.60960937 -0.61496094 6.35984375 -1.09320313 7.1328125 -1.5859375 C14.64145169 -6.26282027 22.86490157 -6.31999406 31.5078125 -5.2734375 C41.51412519 -2.35400106 48.11558453 4.07284921 53.3828125 12.8515625 C55.56241866 18.74353012 55.82749944 25.50770073 56.5078125 31.7265625 C58.8178125 31.7265625 61.1278125 31.7265625 63.5078125 31.7265625 C63.67796875 30.61539063 63.848125 29.50421875 64.0234375 28.359375 C66.13369433 15.14312946 68.79270375 4.60989824 78.5078125 -5.2734375 C79.1678125 -5.2734375 79.8278125 -5.2734375 80.5078125 -5.2734375 C80.69339774 2.33234869 80.83543003 9.93789954 80.92230988 17.54543591 C80.96401657 21.07838745 81.02054758 24.60978736 81.11132812 28.1418457 C81.21511184 32.2053896 81.2537372 36.26731157 81.2890625 40.33203125 C81.33035278 41.5967778 81.37164307 42.86152435 81.41418457 44.16459656 C81.41855741 52.71018573 81.41855741 52.71018573 78.81201172 55.61904907 C71.15655575 60.57014647 61.79688575 62.03004667 52.92578125 60.19140625 C43.92926344 57.72309627 36.29444547 52.71717999 31.24609375 44.73046875 C28.48914737 39.1448339 27.80540668 33.62012627 27.29296875 27.44921875 C27.03386719 26.55074219 26.77476562 25.65226562 26.5078125 24.7265625 C24.04314452 23.26960808 24.04314452 23.26960808 21.5078125 22.7265625 C19.1542616 25.0801134 19.22781874 25.67044951 19.05078125 28.875 C18.9933374 29.7098291 18.93589355 30.5446582 18.87670898 31.40478516 C18.78691772 32.73968994 18.78691772 32.73968994 18.6953125 34.1015625 C17.51710446 47.70110433 13.82159625 57.35663583 3.5078125 66.7265625 C-0.00458835 69.36847232 -3.32159061 71.33636354 -7.4921875 72.7265625 C-7.4921875 76.6865625 -7.4921875 80.6465625 -7.4921875 84.7265625 C-5.8525 83.3653125 -5.8525 83.3653125 -4.1796875 81.9765625 C5.23624942 75.0298398 14.95886011 73.48434291 26.5078125 74.7265625 C32.20927097 76.12632177 36.91761759 78.0438544 41.5078125 81.7265625 C44.79144436 80.31207493 46.69494103 78.62384474 49.0703125 75.9765625 C55.48930132 69.402468 64.42831495 64.5111534 73.5078125 62.7265625 C75.8178125 62.7265625 78.1278125 62.7265625 80.5078125 62.7265625 C80.5078125 71.9665625 80.5078125 81.2065625 80.5078125 90.7265625 C77.5378125 92.0465625 74.5678125 93.3665625 71.5078125 94.7265625 C64.7391425 100.44232828 61.93237908 106.17916301 60.5078125 114.7265625 C60.1778125 118.6865625 59.8478125 122.6465625 59.5078125 126.7265625 C50.5978125 126.7265625 41.6878125 126.7265625 32.5078125 126.7265625 C31.3203125 119.1015625 31.3203125 119.1015625 30.98364258 116.73583984 C30.0655151 111.40569375 28.31484066 108.57503575 24.5078125 104.7265625 C21.44351474 103.19441362 18.8912483 103.49717702 15.5078125 103.7265625 C11.55665434 105.10487349 10.0659868 107.10373299 8.2578125 110.7265625 C5.97960664 116.58483027 5.97960664 116.58483027 5.5078125 126.7265625 C-3.7321875 126.7265625 -12.9721875 126.7265625 -22.4921875 126.7265625 C-22.4921875 122.7665625 -22.4921875 118.8065625 -22.4921875 114.7265625 C-33.0521875 114.7265625 -43.6121875 114.7265625 -54.4921875 114.7265625 C-54.4921875 105.4865625 -54.4921875 96.2465625 -54.4921875 86.7265625 C-48.2221875 86.7265625 -41.9521875 86.7265625 -35.4921875 86.7265625 C-35.4921875 82.1065625 -35.4921875 77.4865625 -35.4921875 72.7265625 C-37.4721875 72.0665625 -39.4521875 71.4065625 -41.4921875 70.7265625 C-43.90625 69.39453125 -43.90625 69.39453125 -46.1171875 67.9140625 C-47.21933594 67.19283203 -47.21933594 67.19283203 -48.34375 66.45703125 C-51.63270331 63.80792886 -54.13930158 61.71821187 -54.91000366 57.36845398 C-55.12251606 54.37294057 -55.20403361 51.40140884 -55.234375 48.3984375 C-55.25243195 47.29485901 -55.27048889 46.19128052 -55.28909302 45.05426025 C-55.31807677 42.72101673 -55.33586631 40.38761104 -55.34326172 38.05419922 C-55.36702567 34.50076055 -55.46534399 30.95431231 -55.56640625 27.40234375 C-55.81891407 9.86969042 -55.81891407 9.86969042 -52.42163086 5.21679688 C-49.88242814 2.85874415 -47.58321937 1.26974206 -44.4921875 -0.2734375 C-43.38488281 -0.9128125 -42.27757812 -1.5521875 -41.13671875 -2.2109375 C-26.50738971 -7.69945819 -13.94292243 -7.12443999 0 0 Z M-33.3046875 27.6015625 C-34.89194898 30.44192515 -35.36413946 32.46133753 -35.4921875 35.7265625 C-33.89868769 40.861173 -32.12498055 43.9253388 -27.4921875 46.7265625 C-23.61724167 47.99013179 -21.78903945 47.81868897 -17.8671875 46.6015625 C-13.77081816 44.32580175 -11.34317567 42.40109674 -9.890625 37.8359375 C-9.13591761 33.95881327 -9.30610918 32.11360541 -11.0546875 28.4765625 C-14.45687148 24.63820109 -17.34048432 22.0851797 -22.4921875 21.2265625 C-27.12462038 21.99863465 -30.08251828 24.268284 -33.3046875 27.6015625 Z " fill="#B5CD2A" transform="translate(315.4921875,329.2734375)"/>
<path d="M0 0 C0 9.24 0 18.48 0 28 C-2.97 29.32 -5.94 30.64 -9 32 C-15.76867 37.71576578 -18.57543342 43.45260051 -20 52 C-20.33 55.96 -20.66 59.92 -21 64 C-29.91 64 -38.82 64 -48 64 C-49.1875 56.375 -49.1875 56.375 -49.52416992 54.00927734 C-50.4422974 48.67913125 -52.19297184 45.84847325 -56 42 C-59.06429776 40.46785112 -61.6165642 40.77061452 -65 41 C-68.95115816 42.37831099 -70.4418257 44.37717049 -72.25 48 C-74.52820586 53.85826777 -74.52820586 53.85826777 -75 64 C-84.24 64 -93.48 64 -103 64 C-103 46.63630765 -99.61724958 34.07482214 -87.57421875 21.234375 C-78.74074385 13.56707964 -69.25618671 11.51767593 -57.9140625 11.7109375 C-50.70904359 12.24304469 -44.63214684 14.48133506 -39 19 C-35.71636814 17.58551243 -33.81287147 15.89728224 -31.4375 13.25 C-22.96662532 4.57443876 -11.9766315 0 0 0 Z " fill="#E85329" transform="translate(396,392)"/>
<path d="M0 0 C6.74173307 3.92650387 13.14517734 9.82873744 15.91796875 17.32421875 C17.23112463 22.98164973 17.80667698 28.79603541 18.4375 34.5625 C20.7475 34.5625 23.0575 34.5625 25.4375 34.5625 C25.60765625 33.45132813 25.7778125 32.34015625 25.953125 31.1953125 C28.06338183 17.97906696 30.72239125 7.44583574 40.4375 -2.4375 C41.0975 -2.4375 41.7575 -2.4375 42.4375 -2.4375 C42.62308524 5.16828619 42.76511753 12.77383704 42.85199738 20.38137341 C42.89370407 23.91432495 42.95023508 27.44572486 43.04101562 30.9777832 C43.14479934 35.0413271 43.1834247 39.10324907 43.21875 43.16796875 C43.26004028 44.4327153 43.30133057 45.69746185 43.34387207 47.00053406 C43.34824491 55.54612323 43.34824491 55.54612323 40.74169922 58.45498657 C33.08624325 63.40608397 23.72657325 64.86598417 14.85546875 63.02734375 C5.85895094 60.55903377 -1.77586703 55.55311749 -6.82421875 47.56640625 C-9.58116513 41.9807714 -10.26490582 36.45606377 -10.77734375 30.28515625 C-11.16599609 28.93744141 -11.16599609 28.93744141 -11.5625 27.5625 C-14.02716798 26.10554558 -14.02716798 26.10554558 -16.5625 25.5625 C-19.6999827 28.27782417 -19.6999827 28.27782417 -19.5625 37.5625 C-28.8025 37.5625 -38.0425 37.5625 -47.5625 37.5625 C-47.5625 23.44110459 -46.18891402 14.61360876 -36.5625 4.5625 C-26.80740346 -4.11105323 -11.74922606 -5.40314727 0 0 Z " fill="#00A0E3" transform="translate(353.5625,326.4375)"/>
<path d="M0 0 C11 0 11 0 14.36010742 2.11132812 C15.30391602 3.05684272 16.21888016 4.03188361 17.10546875 5.03125 C17.84788567 5.79701355 17.84788567 5.79701355 18.6053009 6.57824707 C20.16074267 8.19465779 21.67328221 9.84500897 23.1875 11.5 C24.24281892 12.61057207 25.30074397 13.71867381 26.36132812 14.82421875 C28.93827157 17.521609 31.47817771 20.25088628 34 23 C37.75343465 21.4643824 39.89239931 19.19221851 42.59765625 16.2109375 C43.92506836 14.79941406 43.92506836 14.79941406 45.27929688 13.359375 C46.67369922 11.87266543 48.05759308 10.38047708 49.41772461 8.86230469 C50.74217223 7.39106993 52.10726422 5.95675458 53.47265625 4.5234375 C54.26937744 3.65638184 55.06609863 2.78932617 55.88696289 1.89599609 C59 0 59 0 70 0 C70 23.43 70 46.86 70 71 C65.05 71 60.1 71 55 71 C54.67 56.48 54.34 41.96 54 27 C48.06 32.94 42.12 38.88 36 45 C32.46866927 43.23433463 30.78657357 42.02506669 28.109375 39.3046875 C27.1498291 38.33764893 27.1498291 38.33764893 26.17089844 37.35107422 C25.37200195 36.53396973 24.57310547 35.71686523 23.75 34.875 C19.91375 30.976875 19.91375 30.976875 16 27 C15.67 41.52 15.34 56.04 15 71 C10.05 71 5.1 71 0 71 C0 47.57 0 24.14 0 0 Z " fill="#FFFFFF" transform="translate(545,324)"/>
<path d="M0 0 C6.105 -0.061875 12.21 -0.12375 18.5 -0.1875 C20.41103516 -0.21481201 22.32207031 -0.24212402 24.29101562 -0.27026367 C25.82942068 -0.27903694 27.36783278 -0.28667888 28.90625 -0.29296875 C30.07559082 -0.3159906 30.07559082 -0.3159906 31.26855469 -0.33947754 C38.02868604 -0.34265828 43.83739181 1.12052219 49.3125 5.3125 C54.10889103 10.10889103 56 15.22854647 56 22 C55.37221271 27.77760493 53.97279138 32.62992948 50 37 C46.76936781 38.92009272 43.44885559 40.51251648 40 42 C43.36835938 46.90192138 46.91944842 50.85693219 51.375 54.8125 C54.27306646 57.60210589 55.81655065 59.11742963 56.640625 63.08203125 C56.6266946 65.79497711 56.3716487 68.31894491 56 71 C52.06476628 71.97008321 48.94335807 71.98540732 45 71 C39.5314006 67.49792201 35.21467372 62.33449417 30.8125 57.625 C29.56431621 56.33874701 28.31368386 55.05486532 27.06054688 53.7734375 C18 44.40964367 18 44.40964367 18 42 C16.68 42 15.36 42 14 42 C14 51.57 14 61.14 14 71 C9.38 71 4.76 71 0 71 C0 47.57 0 24.14 0 0 Z M14 15 C14 19.29 14 23.58 14 28 C17.56377018 28.13510502 21.12241117 28.23417099 24.6875 28.3125 C25.69490234 28.35439453 26.70230469 28.39628906 27.74023438 28.43945312 C33.89109795 28.56639752 33.89109795 28.56639752 39.20703125 25.6796875 C41.29542671 23.09583558 41.29542671 23.09583558 41 19.8125 C40.21262767 16.70976172 40.21262767 16.70976172 37 15 C34.48176099 14.7242706 34.48176099 14.7242706 31.67578125 14.8046875 C30.64775391 14.81113281 29.61972656 14.81757813 28.56054688 14.82421875 C27.48869141 14.84097656 26.41683594 14.85773438 25.3125 14.875 C24.22904297 14.88402344 23.14558594 14.89304687 22.02929688 14.90234375 C19.35277052 14.92592548 16.67635759 14.96179664 14 15 Z " fill="#FFFFFF" transform="translate(737,324)"/>
<path d="M0 0 C6.63106093 5.59587322 10.67562438 10.79659671 11.66992188 19.58203125 C11.81987433 22.89446408 11.88490725 26.17369266 11.85375977 29.48754883 C11.83988424 31.54477799 11.87406051 33.59744912 11.91210938 35.65429688 C11.96683662 44.8636842 10.72111558 52.31868533 4.30126953 59.24536133 C-2.02088584 65.2562046 -9.03313334 68.07054589 -17.72265625 68.11328125 C-25.79920365 67.63591343 -31.75439806 64.50909549 -37.72265625 59.11328125 C-44.54322488 51.1106937 -45.06818118 41.83070128 -45.03515625 31.73828125 C-45.05126953 30.76117188 -45.06738281 29.7840625 -45.08398438 28.77734375 C-45.09077176 18.56911183 -43.06742359 9.55752625 -35.72265625 2.11328125 C-25.44590128 -6.24855043 -11.09473614 -7.68831787 0 0 Z M-27.53515625 15.11328125 C-30.55412933 20.19786748 -29.9818959 25.63246738 -30.03515625 31.36328125 C-30.06416016 32.38808594 -30.09316406 33.41289062 -30.12304688 34.46875 C-30.17709384 40.92944084 -29.62439414 44.88975897 -25.72265625 50.11328125 C-21.40532243 53.08744455 -17.91189549 53.76193615 -12.72265625 53.11328125 C-8.34279147 50.75489252 -4.64912538 48.17586595 -3.16113281 43.25708008 C-2.3856233 39.46546033 -2.49630528 35.65852884 -2.47265625 31.80078125 C-2.45203125 30.97126953 -2.43140625 30.14175781 -2.41015625 29.28710938 C-2.36867448 22.71743432 -3.37402325 17.90228293 -7.72265625 12.73828125 C-13.89296938 7.72490183 -22.42734897 9.47708012 -27.53515625 15.11328125 Z " fill="#FFFFFF" transform="translate(978.72265625,327.88671875)"/>
<path d="M0 0 C5.39322695 4.23571834 8.29925133 9.21186681 10.1875 15.75 C10.58583278 20.12880397 10.60122744 24.50372653 10.61303711 28.89794922 C10.62489389 30.98135457 10.67410434 33.06175286 10.72460938 35.14453125 C10.84468877 44.92869958 9.16790966 51.62359907 3.15234375 59.37109375 C-3.34006656 65.18799316 -9.79607088 67.55900225 -18.51953125 67.8359375 C-27.10759137 67.33463752 -33.45769493 63.91407121 -39.2734375 57.66015625 C-48.6520962 46.02014583 -45.87321502 30.54753491 -44.5078125 16.6484375 C-43.44888589 9.66816616 -40.409229 4.6704845 -34.921875 0.21484375 C-24.20621208 -7.0203381 -10.85529774 -7.1659155 0 0 Z M-26.8125 12.75 C-31.12480274 18.65683362 -31.42898132 23.49963212 -31.3125 30.6875 C-31.32796875 31.63818359 -31.3434375 32.58886719 -31.359375 33.56835938 C-31.32552437 39.70801818 -30.48746416 44.69761775 -26.8125 49.75 C-22.53226044 52.79372591 -18.99985224 53.31589297 -13.8125 52.75 C-9.6913337 50.92901954 -7.37876074 48.41608677 -4.8125 44.75 C-3.3559728 40.38041839 -3.54707039 36.1408797 -3.5 31.5625 C-3.47099609 30.64146484 -3.44199219 29.72042969 -3.41210938 28.77148438 C-3.35557241 22.64374751 -4.14250818 17.794665 -7.8125 12.75 C-13.99303685 8.35495157 -20.60021053 8.47042281 -26.8125 12.75 Z " fill="#FFFFFF" transform="translate(847.8125,328.25)"/>
<path d="M0 0 C6.249375 -0.061875 12.49875 -0.12375 18.9375 -0.1875 C20.89163818 -0.21481201 22.84577637 -0.24212402 24.85913086 -0.27026367 C26.4360289 -0.27903871 28.01293383 -0.28668023 29.58984375 -0.29296875 C30.38588013 -0.30831665 31.1819165 -0.32366455 32.0020752 -0.33947754 C38.4277358 -0.34242374 44.92584968 0.61088133 50.12109375 4.6484375 C50.55550781 5.21820313 50.98992188 5.78796875 51.4375 6.375 C51.88996094 6.93960937 52.34242188 7.50421875 52.80859375 8.0859375 C56.75001964 14.41806434 56.69429829 20.73183937 56 28 C54.48940202 33.67152654 51.52176351 36.91109079 46.68359375 40.08984375 C42.99229863 42.08536988 39.91602137 42.11697663 35.80078125 42.09765625 C34.71192627 42.09515869 33.62307129 42.09266113 32.5012207 42.09008789 C31.11894287 42.08098389 29.73666504 42.07187988 28.3125 42.0625 C21.7228125 42.0315625 21.7228125 42.0315625 15 42 C15 51.57 15 61.14 15 71 C10.05 71 5.1 71 0 71 C0 47.57 0 24.14 0 0 Z M15 15 C15 19.29 15 23.58 15 28 C18.39631472 28.08107913 21.79068616 28.14053944 25.1875 28.1875 C26.14720703 28.21263672 27.10691406 28.23777344 28.09570312 28.26367188 C35.06970904 28.40296029 35.06970904 28.40296029 41 25 C42.11703004 22.09572189 42.2453571 20.67945043 41.1875 17.75 C40.10600632 15.84925076 40.10600632 15.84925076 38 15 C36.2595583 14.91550372 34.51590278 14.89276976 32.7734375 14.90234375 C31.2265625 14.90717773 31.2265625 14.90717773 29.6484375 14.91210938 C28.56820312 14.92048828 27.48796875 14.92886719 26.375 14.9375 C25.28703125 14.94201172 24.1990625 14.94652344 23.078125 14.95117188 C20.38539338 14.9629821 17.69268991 14.98091795 15 15 Z " fill="#FFFFFF" transform="translate(871,324)"/>
<path d="M0 0 C14.19 0 28.38 0 43 0 C43 4.95 43 9.9 43 15 C33.76 15 24.52 15 15 15 C15 19.29 15 23.58 15 28 C24.24 28 33.48 28 43 28 C43 32.62 43 37.24 43 42 C33.76 42 24.52 42 15 42 C15 46.62 15 51.24 15 56 C24.24 56 33.48 56 43 56 C43 60.95 43 65.9 43 71 C28.81 71 14.62 71 0 71 C0 47.57 0 24.14 0 0 Z " fill="#FFFFFF" transform="translate(1055,324)"/>
<path d="M0 0 C13.86 0 27.72 0 42 0 C42 4.95 42 9.9 42 15 C33.09 15 24.18 15 15 15 C15 19.29 15 23.58 15 28 C23.91 28 32.82 28 42 28 C42 32.62 42 37.24 42 42 C33.09 42 24.18 42 15 42 C15 46.62 15 51.24 15 56 C23.91 56 32.82 56 42 56 C42 60.95 42 65.9 42 71 C28.14 71 14.28 71 0 71 C0 47.57 0 24.14 0 0 Z " fill="#FFFFFF" transform="translate(631,324)"/>
<path d="M0 0 C6.48914619 5.85552585 9.87996709 11.31054704 11 20 C11.1326877 23.6229952 11.11642032 27.24218815 11.09765625 30.8671875 C11.0962413 31.90191193 11.09482635 32.93663635 11.09336853 34.00271606 C11.08779039 37.29350732 11.07524188 40.58422946 11.0625 43.875 C11.05748218 46.11197818 11.05291976 48.34895743 11.04882812 50.5859375 C11.03782812 56.05731508 11.02111177 61.5286526 11 67 C8.36 67 5.72 67 3 67 C3 56.77 3 46.54 3 36 C-9.87 36 -22.74 36 -36 36 C-36 46.23 -36 56.46 -36 67 C-38.64 67 -41.28 67 -44 67 C-44.12743604 59.77769954 -44.2146172 52.55569214 -44.2746582 45.33251953 C-44.29970445 42.87863327 -44.33375133 40.42482087 -44.37719727 37.97119141 C-44.43828239 34.431129 -44.46631012 30.8920583 -44.48828125 27.3515625 C-44.52699089 25.722827 -44.52699089 25.722827 -44.56648254 24.06118774 C-44.56943312 15.93325617 -42.81440819 9.2628997 -37.29072571 3.0897522 C-27.59120459 -6.15012891 -11.21124397 -7.29312756 0 0 Z M-33.80078125 12.28125 C-37.3412742 17.35557214 -36 21.20310775 -36 28 C-23.13 28 -10.26 28 3 28 C3 20.41261626 2.48304113 15.08702411 -2.3125 9.125 C-12.98030689 0.6899899 -25.18492149 1.96935486 -33.80078125 12.28125 Z " fill="#FFFFFF" transform="translate(514,328)"/>
<path d="M0 0 C4.95 0 9.9 0 15 0 C15 18.48 15 36.96 15 56 C23.91 56 32.82 56 42 56 C42 60.95 42 65.9 42 71 C28.14 71 14.28 71 0 71 C0 47.57 0 24.14 0 0 Z " fill="#FFFFFF" transform="translate(1003,324)"/>
<path d="M0 0 C13.86 0 27.72 0 42 0 C42 4.95 42 9.9 42 15 C37.38 15 32.76 15 28 15 C28 33.48 28 51.96 28 71 C23.38 71 18.76 71 14 71 C14 52.52 14 34.04 14 15 C9.38 15 4.76 15 0 15 C0 10.05 0 5.1 0 0 Z " fill="#FFFFFF" transform="translate(683,324)"/>
<path d="M0 0 C2.64 0 5.28 0 8 0 C8 20.79 8 41.58 8 63 C18.23 63 28.46 63 39 63 C39 65.64 39 68.28 39 71 C26.13 71 13.26 71 0 71 C0 47.57 0 24.14 0 0 Z " fill="#FFFFFF" transform="translate(421,324)"/>
<path d="M0 0 C6.27 0 12.54 0 19 0 C19 4.62 19 9.24 19 14 C24.61 14 30.22 14 36 14 C35.01 18.62 34.02 23.24 33 28 C22.11 28 11.22 28 0 28 C0 18.76 0 9.52 0 0 Z " fill="#B1DAD8" transform="translate(261,416)"/>
<path d="M0 0 C6 0 6 0 7.58984375 1.22265625 C8.25693359 2.13337891 8.25693359 2.13337891 8.9375 3.0625 C12.63235159 7.70625666 16.72610389 11.83138433 20.9375 16 C23.268125 18.31 25.59875 20.62 28 23 C28.33 15.41 28.66 7.82 29 0 C31.31 0 33.62 0 36 0 C36 12.21 36 24.42 36 37 C31 37 31 37 28.32104492 34.88867188 C27.36126482 33.92810398 26.41504475 32.95385721 25.48046875 31.96875 C24.97703445 31.45824097 24.47360016 30.94773193 23.95491028 30.42175293 C22.35363679 28.79254691 20.77064088 27.14681251 19.1875 25.5 C18.10337497 24.39079073 17.01810068 23.28270349 15.93164062 22.17578125 C13.27186334 19.46520608 10.63750085 16.7329856 8 14 C7.67 21.59 7.34 29.18 7 37 C4.69 37 2.38 37 0 37 C0 24.79 0 12.58 0 0 Z " fill="#FFFFFF" transform="translate(1001,420)"/>
<path d="M0 0 C5 0 5 0 6.66918945 1.1015625 C7.14573975 1.60429687 7.62229004 2.10703125 8.11328125 2.625 C8.9012207 3.43710937 8.9012207 3.43710937 9.70507812 4.265625 C10.23552734 4.83796875 10.76597656 5.4103125 11.3125 6 C12.13717773 6.85851562 12.13717773 6.85851562 12.97851562 7.734375 C14.3305941 9.14523949 15.66688335 10.57120512 17 12 C20.12749407 10.61536056 22.2404985 9.00477577 24.625 6.5625 C25.21539063 5.96566406 25.80578125 5.36882812 26.4140625 4.75390625 C28.18443039 2.88218742 28.18443039 2.88218742 30 0 C31.98 0 33.96 0 36 0 C36 11.88 36 23.76 36 36 C33.69 36 31.38 36 29 36 C28.67 28.74 28.34 21.48 28 14 C25.03 16.97 22.06 19.94 19 23 C15 21 15 21 8 14 C7.67 21.26 7.34 28.52 7 36 C4.69 36 2.38 36 0 36 C0 24.12 0 12.24 0 0 Z " fill="#FFFFFF" transform="translate(536,420)"/>
<path d="M0 0 C3.34125 -0.0825 6.6825 -0.165 10.125 -0.25 C11.16672363 -0.28641602 12.20844727 -0.32283203 13.28173828 -0.36035156 C19.19191573 -0.43083262 22.51922043 0.04209908 27 4 C28.91303463 7.0774905 29.00253398 8.85809708 28.9375 12.5 C27.82143759 16.66663299 26.24102554 18.23327088 23 21 C22.34 21.66 21.68 22.32 21 23 C21.5775 23.51949219 22.155 24.03898437 22.75 24.57421875 C23.4925 25.27160156 24.235 25.96898437 25 26.6875 C25.7425 27.37199219 26.485 28.05648438 27.25 28.76171875 C29.3231932 31.41336988 29.36795695 32.7171341 29 36 C26.000267 36.46743192 23.86768185 36.62653192 21.33447266 34.79736328 C19.58932127 33.10769507 17.94111936 31.36473811 16.3125 29.5625 C15.18807842 28.35128992 14.05934052 27.14406878 12.92578125 25.94140625 C12.43505127 25.40201416 11.94432129 24.86262207 11.4387207 24.30688477 C9.91719828 22.74806577 9.91719828 22.74806577 7 22 C7 26.62 7 31.24 7 36 C4.69 36 2.38 36 0 36 C0 24.12 0 12.24 0 0 Z M7 7 C7 9.64 7 12.28 7 15 C9.12472576 15.05386629 11.24983652 15.09273071 13.375 15.125 C15.15003906 15.15980469 15.15003906 15.15980469 16.9609375 15.1953125 C20.11153817 15.32866229 20.11153817 15.32866229 22 13 C21.71016731 9.69316534 21.71016731 9.69316534 20 7 C17.81360547 6.92741054 15.62499611 6.91626217 13.4375 6.9375 C12.23996094 6.94652344 11.04242187 6.95554687 9.80859375 6.96484375 C8.41833984 6.98224609 8.41833984 6.98224609 7 7 Z " fill="#FFFFFF" transform="translate(616,420)"/>
<path d="M0 0 C3.17625 -0.061875 6.3525 -0.12375 9.625 -0.1875 C11.1092749 -0.22846802 11.1092749 -0.22846802 12.62353516 -0.27026367 C17.82669214 -0.31917145 21.54756216 -0.01276945 26 3 C28.82043984 7.23065977 28.79113297 11.03168498 28 16 C25.6875 19.125 25.6875 19.125 23 21 C22.01 21 21.02 21 20 21 C21.64568667 24.03152807 23.10993093 26.0997048 25.6875 28.4375 C28 31 28 31 28.3125 34.3125 C28.209375 35.199375 28.10625 36.08625 28 37 C25.9140625 37.43359375 25.9140625 37.43359375 23 37 C20.49805256 34.95105785 18.46703112 32.51992012 16.375 30.0625 C15.24204446 28.7573046 14.10421791 27.45631719 12.9609375 26.16015625 C12.46384277 25.57886963 11.96674805 24.99758301 11.45458984 24.39868164 C9.9391592 22.7410501 9.9391592 22.7410501 7 22 C7 26.95 7 31.9 7 37 C4.69 37 2.38 37 0 37 C0 24.79 0 12.58 0 0 Z M6 7 C6 9.64 6 12.28 6 15 C8.12472576 15.05386629 10.24983652 15.09273071 12.375 15.125 C14.15003906 15.15980469 14.15003906 15.15980469 15.9609375 15.1953125 C19.11153817 15.32866229 19.11153817 15.32866229 21 13 C20.71016731 9.69316534 20.71016731 9.69316534 19 7 C16.81360547 6.92741054 14.62499611 6.91626217 12.4375 6.9375 C11.23996094 6.94652344 10.04242187 6.95554687 8.80859375 6.96484375 C7.41833984 6.98224609 7.41833984 6.98224609 6 7 Z " fill="#FFFFFF" transform="translate(866,420)"/>
<path d="M0 0 C4.03843343 2.60254599 6.29289779 5.25369336 7.8125 9.8125 C7.89516486 11.73156917 7.91990663 13.65339474 7.91015625 15.57421875 C7.90693359 16.69248047 7.90371094 17.81074219 7.90039062 18.96289062 C7.89201172 20.13013672 7.88363281 21.29738281 7.875 22.5 C7.87048828 23.67884766 7.86597656 24.85769531 7.86132812 26.07226562 C7.84953273 28.98572789 7.8330727 31.89908863 7.8125 34.8125 C5.5025 34.8125 3.1925 34.8125 0.8125 34.8125 C0.8125 30.1925 0.8125 25.5725 0.8125 20.8125 C-4.1375 20.8125 -9.0875 20.8125 -14.1875 20.8125 C-14.1875 25.4325 -14.1875 30.0525 -14.1875 34.8125 C-16.4975 34.8125 -18.8075 34.8125 -21.1875 34.8125 C-21.24624776 31.47924246 -21.28134467 28.14612062 -21.3125 24.8125 C-21.32925781 23.87792969 -21.34601563 22.94335938 -21.36328125 21.98046875 C-21.41194893 15.02099107 -21.42368448 8.51946015 -16.8125 2.9375 C-11.3475778 -1.48648464 -6.86667836 -2.55817429 0 0 Z M-13.1875 8.8125 C-13.5175 10.4625 -13.8475 12.1125 -14.1875 13.8125 C-9.2375 13.8125 -4.2875 13.8125 0.8125 13.8125 C0.32044085 9.01211878 0.32044085 9.01211878 -1.9375 7 C-6.35729655 4.6673296 -9.72121669 5.22242086 -13.1875 8.8125 Z " fill="#FFFFFF" transform="translate(441.1875,421.1875)"/>
<path d="M0 0 C6.51586247 2.77796815 11.33339178 9.04632968 14.375 15.3125 C16 20 16 20 18 32 C8.76 32 -0.48 32 -10 32 C-10 18.18062574 -8.73022818 10.15616545 0 0 Z " fill="#199A4A" transform="translate(316,332)"/>
<path d="M0 0 C2.10546875 -0.375 2.10546875 -0.375 5 0 C7.3769223 1.73910098 9.31503307 3.84477444 11.3125 6 C12.13717773 6.85851562 12.13717773 6.85851562 12.97851562 7.734375 C14.3305941 9.14523949 15.66688335 10.57120512 17 12 C20.40414403 10.86528532 21.24276648 9.82774013 23.5 7.125 C28.24115037 1.48968531 28.24115037 1.48968531 30 0 C33.1875 -0.1875 33.1875 -0.1875 36 0 C36.33984375 2.1484375 36.33984375 2.1484375 36 5 C34.23275427 7.0787701 32.5691563 8.81478217 30.5625 10.625 C26.48094767 14.23217237 26.48094767 14.23217237 24 19 C24.86625 19.80824219 25.7325 20.61648438 26.625 21.44921875 C27.75065066 22.5279673 28.87561517 23.60743214 30 24.6875 C30.57234375 25.21794922 31.1446875 25.74839844 31.734375 26.29492188 C35.91606946 30.35216114 35.91606946 30.35216114 36.375 33.89453125 C36.189375 34.93673828 36.189375 34.93673828 36 36 C33.3671875 36.34375 33.3671875 36.34375 30 36 C27.76809329 34.20515074 26.01779083 32.59338551 24.125 30.5 C23.62742187 29.97535156 23.12984375 29.45070313 22.6171875 28.91015625 C21.39736085 27.61995498 20.19669751 26.31168268 19 25 C14.02642301 26.98713353 11.05215593 31.09383078 7.53515625 34.98046875 C5 37 5 37 2.18359375 36.80078125 C1.46300781 36.53652344 0.74242187 36.27226562 0 36 C-0.375 33.89453125 -0.375 33.89453125 0 31 C1.73910098 28.6230777 3.84477444 26.68496693 6 24.6875 C6.57234375 24.13771484 7.1446875 23.58792969 7.734375 23.02148438 C9.14523949 21.6694059 10.57120512 20.33311665 12 19 C9.01555303 15.44528037 6.08403277 12.0423937 2.625 8.9375 C0 6 0 6 -0.375 2.625 C-0.25125 1.75875 -0.1275 0.8925 0 0 Z " fill="#FFFFFF" transform="translate(470,420)"/>
<path d="M0 0 C3.78495272 2.13203033 6.44220379 4.93098273 8 9 C8.22705078 11.93261719 8.22705078 11.93261719 8.1953125 15.296875 C8.18886719 16.50214844 8.18242188 17.70742188 8.17578125 18.94921875 C8.15902344 20.20347656 8.14226563 21.45773437 8.125 22.75 C8.11597656 24.01972656 8.10695313 25.28945313 8.09765625 26.59765625 C8.07409005 29.73196093 8.04118832 32.86588541 8 36 C6.02 36 4.04 36 2 36 C2 31.05 2 26.1 2 21 C-3.28 21 -8.56 21 -14 21 C-14 25.95 -14 30.9 -14 36 C-15.98 36 -17.96 36 -20 36 C-20.11651725 31.62522526 -20.18736 27.25085173 -20.25 22.875 C-20.28351562 21.6375 -20.31703125 20.4 -20.3515625 19.125 C-20.47382073 7.75498506 -20.47382073 7.75498506 -16 3 C-10.98489071 -1.40721725 -6.28010181 -1.5753839 0 0 Z M-13 10 C-13 11.32 -13 12.64 -13 14 C-8.38 14 -3.76 14 1 14 C0.50794085 9.19961878 0.50794085 9.19961878 -1.75 7.1875 C-6.68540498 4.58270293 -9.70571198 5.60761597 -13 10 Z " fill="#FFFFFF" transform="translate(600,421)"/>
<path d="M0 0 C0.89267578 0.00322266 1.78535156 0.00644531 2.70507812 0.00976562 C4.09823242 0.02233398 4.09823242 0.02233398 5.51953125 0.03515625 C6.45990234 0.03966797 7.40027344 0.04417969 8.36914062 0.04882812 C10.69016837 0.06060999 13.01106769 0.07706067 15.33203125 0.09765625 C15.33203125 2.40765625 15.33203125 4.71765625 15.33203125 7.09765625 C5.92703125 7.59265625 5.92703125 7.59265625 -3.66796875 8.09765625 C-3.99796875 9.74765625 -4.32796875 11.39765625 -4.66796875 13.09765625 C-2.92317776 14.84244724 -0.35395582 14.30797661 2.01953125 14.41015625 C7.39435206 14.80686921 10.31951692 15.51892725 14.33203125 19.09765625 C16.1931676 22.81992895 15.89922969 27.04441795 15.33203125 31.09765625 C13.19320274 34.09201616 11.79094914 35.6676021 8.23828125 36.71484375 C4.15681511 37.25245623 0.13082957 37.20234005 -3.98046875 37.16015625 C-5.2344043 37.15338867 -5.2344043 37.15338867 -6.51367188 37.14648438 C-8.56513524 37.13476173 -10.61656148 37.11682828 -12.66796875 37.09765625 C-12.66796875 34.78765625 -12.66796875 32.47765625 -12.66796875 30.09765625 C-2.27296875 29.60265625 -2.27296875 29.60265625 8.33203125 29.09765625 C8.00203125 27.11765625 7.67203125 25.13765625 7.33203125 23.09765625 C6.52378906 23.06027344 5.71554687 23.02289063 4.8828125 22.984375 C3.27986328 22.88576172 3.27986328 22.88576172 1.64453125 22.78515625 C0.58878906 22.72714844 -0.46695313 22.66914063 -1.5546875 22.609375 C-5.92495021 21.89105077 -8.62883991 20.2753356 -11.54296875 16.97265625 C-13.16056432 12.83880091 -12.85090165 9.3450999 -11.66796875 5.09765625 C-8.40701015 0.74971144 -5.25742785 -0.0334868 0 0 Z " fill="#FFFFFF" transform="translate(661.66796875,419.90234375)"/>
<path d="M0 0 C7.26 0 14.52 0 22 0 C22 2.31 22 4.62 22 7 C17.05 7 12.1 7 7 7 C7 9.64 7 12.28 7 15 C11.95 15 16.9 15 22 15 C22 17.31 22 19.62 22 22 C17.05 22 12.1 22 7 22 C7 24.64 7 27.28 7 30 C11.95 30 16.9 30 22 30 C22 31.98 22 33.96 22 36 C20.41062444 37.58937556 18.76100154 37.12981143 16.5625 37.1328125 C15.22058594 37.13474609 15.22058594 37.13474609 13.8515625 37.13671875 C12.91054688 37.13285156 11.96953125 37.12898438 11 37.125 C9.58847656 37.13080078 9.58847656 37.13080078 8.1484375 37.13671875 C7.25382813 37.13542969 6.35921875 37.13414062 5.4375 37.1328125 C4.61121094 37.13168457 3.78492188 37.13055664 2.93359375 37.12939453 C1 37 1 37 0 36 C-0.08855161 33.3337397 -0.11524673 30.69352886 -0.09765625 28.02734375 C-0.0962413 27.22970108 -0.09482635 26.43205841 -0.09336853 25.61024475 C-0.08775316 23.05262565 -0.07519812 20.49509282 -0.0625 17.9375 C-0.05748698 16.20768355 -0.05292373 14.47786574 -0.04882812 12.74804688 C-0.03862791 8.49863761 -0.01905568 4.24941584 0 0 Z " fill="#FFFFFF" transform="translate(780,420)"/>
<path d="M0 0 C3.47914941 -0.02887814 6.95826831 -0.04675687 10.4375 -0.0625 C11.92733398 -0.07506836 11.92733398 -0.07506836 13.44726562 -0.08789062 C14.39150391 -0.09111328 15.33574219 -0.09433594 16.30859375 -0.09765625 C17.62041626 -0.10551147 17.62041626 -0.10551147 18.95874023 -0.11352539 C21 0 21 0 22 1 C22.125 3.5 22.125 3.5 22 6 C21 7 21 7 17.83984375 7.09765625 C15.90818359 7.08025391 15.90818359 7.08025391 13.9375 7.0625 C12.64714844 7.05347656 11.35679688 7.04445313 10.02734375 7.03515625 C9.02832031 7.02355469 8.02929688 7.01195312 7 7 C7 9.64 7 12.28 7 15 C7.99902344 14.98839844 8.99804688 14.97679687 10.02734375 14.96484375 C11.31769531 14.95582031 12.60804687 14.94679688 13.9375 14.9375 C15.22527344 14.92589844 16.51304688 14.91429687 17.83984375 14.90234375 C21 15 21 15 22 16 C22.125 18.5 22.125 18.5 22 21 C21 22 21 22 17.83984375 22.09765625 C16.55207031 22.08605469 15.26429687 22.07445312 13.9375 22.0625 C12.64714844 22.05347656 11.35679688 22.04445313 10.02734375 22.03515625 C9.02832031 22.02355469 8.02929688 22.01195312 7 22 C7 24.64 7 27.28 7 30 C11.95 30 16.9 30 22 30 C22 31.98 22 33.96 22 36 C20.41062444 37.58937556 18.76100154 37.12981143 16.5625 37.1328125 C15.22058594 37.13474609 15.22058594 37.13474609 13.8515625 37.13671875 C12.91054687 37.13285156 11.96953125 37.12898438 11 37.125 C9.58847656 37.13080078 9.58847656 37.13080078 8.1484375 37.13671875 C7.25382812 37.13542969 6.35921875 37.13414062 5.4375 37.1328125 C4.61121094 37.13168457 3.78492188 37.13055664 2.93359375 37.12939453 C1 37 1 37 0 36 C-0.08855161 33.3337397 -0.11524673 30.69352886 -0.09765625 28.02734375 C-0.0962413 27.22970108 -0.09482635 26.43205841 -0.09336853 25.61024475 C-0.08775316 23.05262565 -0.07519812 20.49509282 -0.0625 17.9375 C-0.05748698 16.20768355 -0.05292373 14.47786574 -0.04882812 12.74804688 C-0.03777875 8.49866447 -0.02050386 4.24934688 0 0 Z " fill="#FFFFFF" transform="translate(1076,420)"/>
<path d="M0 0 C3.515625 0.42317708 7.03125 0.84635417 10.546875 1.26953125 C10.546875 9.84953125 10.546875 18.42953125 10.546875 27.26953125 C1.966875 27.26953125 -6.613125 27.26953125 -15.453125 27.26953125 C-14.62510036 20.64533412 -14.03714382 17.67038984 -11.140625 12.08203125 C-10.54636719 10.91285156 -9.95210938 9.74367188 -9.33984375 8.5390625 C-4.62039669 0.36064182 -4.62039669 0.36064182 0 0 Z " fill="#BA4A2D" transform="translate(309.453125,415.73046875)"/>
<path d="M0 0 C4.29574386 2.3381897 6.56566127 5.36598257 8 10 C9.29828527 23.61689904 9.29828527 23.61689904 6.3125 29.25 C3.19123422 32.96177552 1.34125413 34.68138896 -3.5546875 35.34765625 C-8.15408791 35.590714 -11.84932949 35.71321982 -15.5625 32.75 C-19.93788529 27.81366788 -20.340306 24.07466617 -20.3125 17.5625 C-20.32861328 16.81162109 -20.34472656 16.06074219 -20.36132812 15.28710938 C-20.36537803 10.68236363 -19.92365212 7.76097493 -17 4 C-11.45617353 -0.98944382 -7.11915936 -1.77371547 0 0 Z M-13.046875 9.953125 C-14.99924932 14.14592887 -14.73005023 18.51735513 -14 23 C-12.078729 26.69475192 -10.921039 27.64726166 -7.0625 29.125 C-3.90393171 29.22169262 -3.90393171 29.22169262 -1.125 27.4375 C2.29278547 23.53145946 1.61182362 18.17212649 1.6640625 13.27734375 C1.28131205 9.84324944 1.28131205 9.84324944 -1.3828125 7.60546875 C-3.86964729 5.89953634 -3.86964729 5.89953634 -6.5 5.375 C-9.53764656 6.13441164 -11.16771759 7.45551072 -13.046875 9.953125 Z " fill="#FFFFFF" transform="translate(919,421)"/>
<path d="M0 0 C5.0428125 -0.0928125 5.0428125 -0.0928125 10.1875 -0.1875 C11.76374146 -0.22846802 11.76374146 -0.22846802 13.37182617 -0.27026367 C22.10553644 -0.34814602 22.10553644 -0.34814602 26 3 C28.8199641 7.22994616 28.79231188 11.03220448 28 16 C25.47323961 19.34625024 23.96066458 20.67977847 20 22 C15.66328697 22.13501597 11.33988266 22.04296914 7 22 C7 26.62 7 31.24 7 36 C4.69 36 2.38 36 0 36 C0 24.12 0 12.24 0 0 Z M7 7 C7 9.64 7 12.28 7 15 C8.93681161 15.08107583 10.8745934 15.13922475 12.8125 15.1875 C13.89144531 15.22230469 14.97039063 15.25710938 16.08203125 15.29296875 C18.99364085 15.2481738 18.99364085 15.2481738 20.8984375 13.62109375 C22.22853946 12.03131977 22.22853946 12.03131977 21.8125 9.875 C21.1564434 7.81035868 21.1564434 7.81035868 19 7 C16.95944995 6.92934383 14.91665743 6.91578024 12.875 6.9375 C11.77929688 6.94652344 10.68359375 6.95554687 9.5546875 6.96484375 C8.29011719 6.98224609 8.29011719 6.98224609 7 7 Z " fill="#FFFFFF" transform="translate(832,420)"/>
<path d="M0 0 C6.93 0 13.86 0 21 0 C21 2.31 21 4.62 21 7 C16.38 7 11.76 7 7 7 C7 9.64 7 12.28 7 15 C11.62 15 16.24 15 21 15 C21 17.31 21 19.62 21 22 C16.38 22 11.76 22 7 22 C7 24.64 7 27.28 7 30 C11.62 30 16.24 30 21 30 C21 32.31 21 34.62 21 37 C14.07 37 7.14 37 0 37 C0 24.79 0 12.58 0 0 Z " fill="#FFFFFF" transform="translate(972,420)"/>
<path d="M0 0 C6.93 0 13.86 0 21 0 C21 2.31 21 4.62 21 7 C16.05 7 11.1 7 6 7 C6 9.64 6 12.28 6 15 C10.95 15 15.9 15 21 15 C21 17.31 21 19.62 21 22 C16.05 22 11.1 22 6 22 C6 24.64 6 27.28 6 30 C10.95 30 15.9 30 21 30 C21 32.31 21 34.62 21 37 C14.07 37 7.14 37 0 37 C0 24.79 0 12.58 0 0 Z " fill="#FFFFFF" transform="translate(683,420)"/>
<path d="M0 0 C2.5057741 2.06357867 3.78669898 3.79165038 5.125 6.75 C5.3125 9.5625 5.3125 9.5625 5.125 11.75 C3.145 11.75 1.165 11.75 -0.875 11.75 C-1.535 10.1 -2.195 8.45 -2.875 6.75 C-4.1125 6.5025 -5.35 6.255 -6.625 6 C-7.32109375 5.86078125 -8.0171875 5.7215625 -8.734375 5.578125 C-11.03720949 5.58088023 -11.03720949 5.58088023 -13.1171875 7.32421875 C-15.41146969 10.49032817 -15.34701173 12.43644054 -15.25 16.3125 C-15.23710938 17.44816406 -15.22421875 18.58382813 -15.2109375 19.75390625 C-15.08676544 22.929096 -15.08676544 22.929096 -12.875 25.75 C-10.05944653 26.92797389 -10.05944653 26.92797389 -6.875 26.75 C-4.25544456 24.59614331 -2.39526703 22.79053406 -0.875 19.75 C1.105 19.75 3.085 19.75 5.125 19.75 C5.58296457 22.87942457 5.63059016 24.98225198 3.859375 27.671875 C-1.16989516 33.58004674 -1.16989516 33.58004674 -5.265625 33.98828125 C-9.89272065 34.10838346 -13.12253676 34.09935793 -17.375 32.125 C-21.14870379 28.5399814 -22.70798727 25.28258745 -23.2734375 20.09375 C-23.26570313 18.8253125 -23.25796875 17.556875 -23.25 16.25 C-23.25773437 14.9815625 -23.26546875 13.713125 -23.2734375 12.40625 C-22.70994324 7.23536149 -21.18795316 3.96448167 -17.375 0.4375 C-11.83725835 -3.30047561 -5.94985969 -2.58689552 0 0 Z " fill="#FFFFFF" transform="translate(1064.875,422.25)"/>
<path d="M0 0 C2.64 0 5.28 0 8 0 C8.32798584 0.69150146 8.65597168 1.38300293 8.99389648 2.09545898 C10.47290191 5.21052076 11.95515565 8.3240258 13.4375 11.4375 C13.95376953 12.52611328 14.47003906 13.61472656 15.00195312 14.73632812 C15.49501953 15.77080078 15.98808594 16.80527344 16.49609375 17.87109375 C16.95169678 18.82943115 17.4072998 19.78776855 17.87670898 20.77514648 C18.81250539 22.91668091 18.81250539 22.91668091 20 24 C20.32798584 23.30849854 20.65597168 22.61699707 20.99389648 21.90454102 C22.47290191 18.78947924 23.95515565 15.6759742 25.4375 12.5625 C25.95376953 11.47388672 26.47003906 10.38527344 27.00195312 9.26367188 C27.49501953 8.22919922 27.98808594 7.19472656 28.49609375 6.12890625 C28.95169678 5.17056885 29.4072998 4.21223145 29.87670898 3.22485352 C31 1 31 1 32 0 C34.33297433 -0.04092937 36.66705225 -0.04241723 39 0 C38.37497638 4.42760018 36.66533683 8.07501591 34.65625 12.015625 C34.32709595 12.67205994 33.99794189 13.32849487 33.65881348 14.00482178 C32.96561979 15.38451301 32.26955981 16.76276747 31.57080078 18.13964844 C30.49794352 20.25405294 29.43379764 22.37266455 28.37109375 24.4921875 C27.69581269 25.83358526 27.02004841 27.17473988 26.34375 28.515625 C26.02394165 29.15099182 25.7041333 29.78635864 25.37463379 30.440979 C23.11722446 34.88277554 23.11722446 34.88277554 22 36 C20.33382885 36.04063832 18.66611905 36.042721 17 36 C14.57385134 31.1970455 12.15291158 26.39151582 9.73681641 21.58349609 C8.91370938 19.94735559 8.08916949 18.31193512 7.26318359 16.67724609 C6.07795122 14.33096977 4.8978523 11.98217415 3.71875 9.6328125 C3.34689575 8.89942657 2.9750415 8.16604065 2.59191895 7.41043091 C0 2.22774341 0 2.22774341 0 0 Z " fill="#FFFFFF" transform="translate(928,420)"/>
<path d="M0 0 C3.53571429 0.53571429 3.53571429 0.53571429 5 2 C5.08767112 4.07262076 5.10695873 6.14820294 5.09765625 8.22265625 C5.09443359 9.48271484 5.09121094 10.74277344 5.08789062 12.04101562 C5.07953403 13.38151109 5.07106907 14.72200588 5.0625 16.0625 C5.0574866 17.40689942 5.05292342 18.7513006 5.04882812 20.09570312 C5.03699497 23.39715433 5.01905886 26.6985826 5 30 C9.62 30 14.24 30 19 30 C19 31.98 19 33.96 19 36 C12.07 36 5.14 36 -2 36 C-2.04586601 31.19426126 -2.08570391 26.38927918 -2.10986328 21.58349609 C-2.11993254 19.94805328 -2.13358881 18.31262851 -2.15087891 16.67724609 C-2.17508705 14.3290563 -2.18647357 11.98110412 -2.1953125 9.6328125 C-2.21079636 8.53273361 -2.21079636 8.53273361 -2.22659302 7.41043091 C-2.22699368 5.60537303 -2.12212755 3.8009217 -2 2 C-1.34 1.34 -0.68 0.68 0 0 Z " fill="#FFFFFF" transform="translate(729,420)"/>
<path d="M0 0 C1.32 0.33 2.64 0.66 4 1 C4 10.57 4 20.14 4 30 C8.95 30 13.9 30 19 30 C19 32.31 19 34.62 19 37 C12.07 37 5.14 37 -2 37 C-2.04586336 32.0518528 -2.0857022 27.10444026 -2.10986328 22.15625 C-2.11993317 20.47230534 -2.13358988 18.78837821 -2.15087891 17.10449219 C-2.17508426 14.68680499 -2.18647296 12.26934857 -2.1953125 9.8515625 C-2.20563507 9.0963028 -2.21595764 8.34104309 -2.22659302 7.56289673 C-2.22699318 5.7070602 -2.12222716 3.8518072 -2 2 C-1.34 1.34 -0.68 0.68 0 0 Z " fill="#FFFFFF" transform="translate(756,420)"/>
<path d="M0 0 C8.58 0 17.16 0 26 0 C23.33333333 4.66666667 20.66666667 9.33333333 18 14 C12.06 14 6.12 14 0 14 C0 9.38 0 4.76 0 0 Z " fill="#71A579" transform="translate(280,416)"/>
<path d="M0 0 C3.875 1.875 3.875 1.875 5 3 C5.08726223 4.78071246 5.10699041 6.5648314 5.09765625 8.34765625 C5.09282227 9.96704102 5.09282227 9.96704102 5.08789062 11.61914062 C5.07951172 12.75544922 5.07113281 13.89175781 5.0625 15.0625 C5.05798828 16.20267578 5.05347656 17.34285156 5.04882812 18.51757812 C5.03699747 21.34510351 5.0205141 24.1725264 5 27 C2.69 27 0.38 27 -2 27 C-2.05784708 22.87505849 -2.09354407 18.75022056 -2.125 14.625 C-2.14175781 13.449375 -2.15851562 12.27375 -2.17578125 11.0625 C-2.18222656 9.94101562 -2.18867187 8.81953125 -2.1953125 7.6640625 C-2.20578613 6.62717285 -2.21625977 5.5902832 -2.22705078 4.52197266 C-2 2 -2 2 0 0 Z " fill="#FFFFFF" transform="translate(714,429)"/>
<path d="M0 0 C1.32 0.66 2.64 1.32 4 2 C4 10.25 4 18.5 4 27 C2.02 27 0.04 27 -2 27 C-2.05784708 22.87505849 -2.09354407 18.75022056 -2.125 14.625 C-2.14175781 13.449375 -2.15851563 12.27375 -2.17578125 11.0625 C-2.18222656 9.94101562 -2.18867188 8.81953125 -2.1953125 7.6640625 C-2.20578613 6.62717285 -2.21625977 5.5902832 -2.22705078 4.52197266 C-2 2 -2 2 0 0 Z " fill="#FFFFFF" transform="translate(458,429)"/>
<path d="M0 0 C5.94 0 11.88 0 18 0 C18 2.31 18 4.62 18 7 C12.06 7 6.12 7 0 7 C0 4.69 0 2.38 0 0 Z " fill="#FFFFFF" transform="translate(808,435)"/>
<path d="M0 0 C5.94 0 11.88 0 18 0 C18 2.31 18 4.62 18 7 C12.06 7 6.12 7 0 7 C0 4.69 0 2.38 0 0 Z " fill="#FFFFFF" transform="translate(512,435)"/>
<path d="M0 0 C1.98 0 3.96 0 6 0 C6 2.31 6 4.62 6 7 C4.02 7 2.04 7 0 7 C0 4.69 0 2.38 0 0 Z " fill="#FFFFFF" transform="translate(456,420)"/>
<path d="M0 0 C1.98 0 3.96 0 6 0 C6 1.98 6 3.96 6 6 C4.02 6 2.04 6 0 6 C0 4.02 0 2.04 0 0 Z " fill="#FFFFFF" transform="translate(712,420)"/>
</svg>
